<?xml version="1.0" encoding="utf-8"?>
<!-- Generator: Adobe Illustrator 19.0.0, SVG Export Plug-In . SVG Version: 6.00 Build 0)  -->
<svg version="1.1" id="Layer_1" xmlns="http://www.w3.org/2000/svg" xmlns:xlink="http://www.w3.org/1999/xlink" x="0px" y="0px"
	 viewBox="0 0 80.2 140.9" style="enable-background:new 0 0 80.2 140.9;" xml:space="preserve">
<style type="text/css">
	.st0{fill:#6D582B;}
	.st1{fill:#FBB13F;}
	.st2{fill:#E89022;}
	.st3{fill:#F8CE5D;}
	.st4{fill:#DFE5E9;}
	.st5{fill:#BFD4DD;}
	.st6{fill:#AAC9DC;}
	.st7{fill:#B8D1DD;}
	.st8{fill:#F6F182;}
	.st9{fill:#015784;}
	.st10{fill:#A8C8DB;}
	.st11{fill:#FABD8F;}
	.st12{opacity:0.45;}
	.st13{clip-path:url(#XMLID_45_);}
	.st14{clip-path:url(#XMLID_47_);fill:#FFFFFF;}
	.st15{clip-path:url(#XMLID_48_);fill:#FFFFFF;}
	.st16{fill:#F06D73;}
	.st17{fill:#38D6FE;}
	.st18{fill:#5C1403;}
	.st19{fill:#8A4415;}
	.st20{fill:#793711;}
	.st21{fill:#5C1704;}
	.st22{fill:#BC6736;}
	.st23{fill:#D9B576;}
	.st24{fill:#D9A610;}
	.st25{fill:#D78149;}
</style>
<path id="XMLID_103_" class="st0" d="M0,139.1c0,1.6,15.7,1.7,35,1.7c19.3,0,35-0.1,35-1.7c0-1.6-15.7-3.9-35-3.9
	C15.7,135.3,0,137.5,0,139.1"/>
<path id="XMLID_102_" class="st1" d="M28.8,113.1l-6.2-1.4l0,2.5l0,19.5c0,0-2.9,2.8-2.8,3.8c0.1,1,14.5,0.4,15.5-1.3
	c0.5-0.8,1.6-4,2.6-7.1c1.1-3.4,4.6-17.3,4.6-17.3L28.8,113.1z"/>
<path id="XMLID_101_" class="st2" d="M35.7,125.1c-0.6,4-2.1,7.5-3.9,9.7c0.4,0.7,0.7,1.5,0.9,2.4c1.4-0.3,2.5-0.6,2.7-1.1
	c0.5-0.8,1.6-4,2.6-7.1c1.1-3.4,5-19.4,5-19.4l-7.3,5.6C35.9,117.2,36,122.9,35.7,125.1"/>
<path id="XMLID_100_" class="st3" d="M20.9,136.9c0.4,1,4.4,1,5.2-0.9c0.4-0.9,0.1-2.3-0.6-2.7c-1.1-0.6-2.8,1-3.3,1.4
	C21.8,135.1,20.6,136.3,20.9,136.9"/>
<polygon id="XMLID_99_" class="st4" points="16.9,79.7 27.5,67.4 46.7,79 46.7,104.6 27.3,118 23,116.9 16.9,105.3 "/>
<polygon id="XMLID_98_" class="st5" points="60.6,74 47.6,61.4 27.5,67.4 46.7,79 "/>
<polygon id="XMLID_97_" class="st6" points="71.8,80.5 60.6,74 47.6,61.4 63.2,68.5 "/>
<polygon id="XMLID_96_" class="st5" points="48.2,123.3 27.3,118 46.7,104.6 58.4,110.8 "/>
<polygon id="XMLID_95_" class="st6" points="63.7,115.7 48.2,123.3 58.4,110.8 71.8,105.2 "/>
<polygon id="XMLID_94_" class="st7" points="60.7,111.5 60.6,74 46.7,79 46.7,104.6 58.4,110.8 "/>
<polygon id="XMLID_93_" class="st6" points="71.8,105.2 71.8,80.5 60.6,74 60.7,111.5 "/>
<path id="XMLID_92_" class="st1" d="M60.7,111.5l-2.3-0.8l-2.5-0.7L42.9,122c0,0,1.1,3.4,2.4,6.8c1.1,3.1-1,6.9-0.5,7.7
	c1.1,1.7,17.1,2.4,17.2,1.3c0.1-1-3.1-3.8-3.1-3.8l3.3-20.1L60.7,111.5z"/>
<path id="XMLID_91_" class="st2" d="M60.7,111.5l-2.3-0.8c0.5,0.7,0.7,3.1,0.7,4c0,7-1.6,13.3-4.1,17.8c1.1,1.3,1.7,2.9,1.7,4.7
	c0,0.4,0,0.8-0.1,1.1c2.9,0.1,5.3-0.1,5.3-0.5c0.1-1-3.1-3.8-3.1-3.8l3.3-20.1L60.7,111.5z"/>
<path id="XMLID_90_" class="st3" d="M54.7,136.5c-0.3,0.8-4.3,1.3-5.4-0.2c-0.5-0.7-0.4-1.9,0.3-2.3c1.1-0.6,3,0.6,3.5,0.8
	C53.6,135.1,54.9,135.9,54.7,136.5"/>
<path id="XMLID_89_" class="st4" d="M45,0c19.4,0,35.2,17.1,35.2,36.1c0,6.7-1.7,12.8-5.3,17.7c-5.4,7.2-15,11.9-29.9,11.9
	c-15.3,0-25-4.6-30.3-12.6c-3.4-5-4.9-11.4-4.9-18.8C9.8,15.4,25.5,0,45,0"/>
<path id="XMLID_88_" class="st6" d="M34.9,61.1c23.7,0,42.9-16.8,42.9-37.5c0-0.1,0-0.1,0-0.2c1.5,4,2.4,8.3,2.4,12.7
	c0,6.7-1.7,12.8-5.3,17.7c-5.4,7.2-15,11.9-29.9,11.9c-11.2,0-19.4-2.5-25.1-6.9C24.6,60.2,29.6,61.1,34.9,61.1"/>
<path id="XMLID_87_" class="st1" d="M54.6,35.6c0,8.4,4.6,15.3,10.3,15.3c5.7,0,10.3-6.8,10.3-15.3c0-8.4-4.6-15.3-10.3-15.3
	C59.2,20.3,54.6,27.2,54.6,35.6"/>
<path id="XMLID_86_" class="st2" d="M53.4,29.3C53.4,29.3,53.4,29.3,53.4,29.3c0,3.2,0.5,6.2,1.4,8.9c0.8,6.7,4.5,11.8,9,12.5
	c-0.4,0.1-0.7,0.1-1.1,0.1c-5.7,0-10.3-6.8-10.3-15.3C52.4,33.4,52.8,31.2,53.4,29.3"/>
<path id="XMLID_85_" class="st8" d="M53.4,29.3c1.6-5.3,5.2-9,9.4-9c0.4,0,0.7,0,1.1,0.1c-5.2,0.8-9.2,7.3-9.2,15.2
	c0,0.9,0.1,1.8,0.2,2.6C53.9,35.5,53.4,32.5,53.4,29.3C53.4,29.3,53.4,29.3,53.4,29.3"/>
<path id="XMLID_84_" class="st8" d="M72.3,39.6c0,0,2.8,4.5-2,5.6C66.2,43.7,72.3,39.6,72.3,39.6"/>
<path id="XMLID_83_" class="st5" d="M5.5,55c0,0,1.7,5,4.5,6.1c0.7-1.1,2-2.5,3.6-3.3c2.7-1.4,0.7-9.6-1.1-11
	C11,45.2,8.9,44,6.6,44.5C3.2,48.7,5.5,55,5.5,55"/>
<path id="XMLID_82_" class="st9" d="M44.3,69.1c-5,0-9.2-2.1-10.6-4.4c6.3,0.9,13.5,1.1,21.5,0.2C53.8,67.3,49.4,69.1,44.3,69.1"/>
<path id="XMLID_81_" class="st10" d="M21.9,59.6c0,0-4.6-0.5-7.2-3.1c-2.6-2.6-6.9-18.7-2.4-28.8C16.8,17.6,31,16.8,31,16.8
	s14.3-1.5,21,18c6.7,19.4-10,22.3-10,22.3S27.1,60.3,21.9,59.6"/>
<path id="XMLID_80_" class="st9" d="M21.8,57.9c0,0-4.5-0.5-7.1-2.9c-2.6-2.4-6.6-17.8-2.2-27.4C17,18,31,17.2,31,17.2
	s14.1-1.5,20.5,16.9s-10,21.3-10,21.3S26.9,58.6,21.8,57.9"/>
<path id="XMLID_79_" class="st11" d="M21.7,57.1c0,0-4.4-0.4-6.9-2.7c-2.5-2.3-6.4-17-2-26.2c4.4-9.2,18-10,18-10
	s13.6-1.5,19.9,16.1c6.2,17.6-9.7,20.4-9.7,20.4S26.6,57.7,21.7,57.1"/>
<g id="XMLID_73_" class="st12">
	<g id="XMLID_74_">
		<defs>
			<rect id="XMLID_75_" x="10.8" y="20.9" width="11.4" height="36.3"/>
		</defs>
		<clipPath id="XMLID_45_">
			<use xlink:href="#XMLID_75_"  style="overflow:visible;"/>
		</clipPath>
		<g id="XMLID_76_" class="st13">
			<defs>
				<rect id="XMLID_77_" x="10.8" y="20.9" width="11.4" height="36.3"/>
			</defs>
			<clipPath id="XMLID_47_">
				<use xlink:href="#XMLID_77_"  style="overflow:visible;"/>
			</clipPath>
			<path id="XMLID_78_" class="st14" d="M12.8,28.2c1.7-3.5,4.7-5.8,7.8-7.3c-1.9,8.7-1.9,19.3,0.2,30.3c0.4,2.1,0.9,4.1,1.4,6
				c-0.2,0-0.4,0-0.5,0c0,0-4.4-0.4-6.9-2.7C12.3,52.1,8.4,37.4,12.8,28.2"/>
		</g>
	</g>
</g>
<path id="XMLID_72_" class="st4" d="M9.9,61C7.2,60,5.5,55,5.5,55s-2.3-6.3,1.1-10.5c-0.7,0.2-1.5,0.5-2.2,1.1
	c-3.5,4.1-1.1,10.5-1.1,10.5s2.3,6.7,5.9,6.3C9.1,62.3,9.4,61.8,9.9,61"/>
<path id="XMLID_71_" class="st6" d="M60.6,74.4c0,0,3.4,15.4-2.9,22.3c-6.3,6.9-13.2,1.2-13.2,1.2l6.9-3.3l0.2-3.7l-7.3-0.4
	c0,0-3.9,4.4-9,3.9c-5.1-0.5-8.4-3.5-7.8-7.7c0.6-4.2,6.3-9.4,14.5-8.8c4.4,0.3,6.6,1.4,8.6,3c-0.9-1.9-0.4-2.3-0.4-2.3L60.6,74.4z"
	/>
<path id="XMLID_70_" class="st4" d="M33.7,91.1c7.9,1.5,7-3.1,9.3-3.1c2.3,0,1.3,2.4,1.3,2.4l7.3,0.5l-0.2,3.3
	c3.1,0,6.5-1.4,9.1-2.7c2.2-7.4,0.1-17,0.1-17l-10.5,4.1c0,0,0.6,2,1.5,3.9c-2-1.6-5.2-3.3-9.6-3.6c-8-0.6-13,3.5-13.9,7.5
	C28.9,88.5,30.5,90.5,33.7,91.1"/>
<path id="XMLID_69_" class="st4" d="M9.1,62.3l10.5,14.2L27,68l-11-7.7c0,0-2.3-1.7-1.5-3.6c0.7-1.9-4.5,2.3-4.5,2.3L9.1,62.3z"/>
<path id="XMLID_68_" class="st5" d="M19.6,76.5c0,0-3.8-3.1-5.5-6c-4.5-7.8-5.9-8.2-5.9-8.2l1.4-0.4c0,0,4,5.3,5.9,5.9
	s6.2,6.2,6.2,6.2L19.6,76.5z"/>
<path id="XMLID_67_" class="st6" d="M27,68l-5.2,6c0,0,1.5-3.1,2.9-4.6C26.1,68,27,68,27,68z"/>
<path id="XMLID_66_" class="st11" d="M21.5,56.9c0,0-4.3-0.4-6.7-2.7c-2.4-2.2-6.2-16.5-2-25.5c4.3-9,17.5-9.8,17.5-9.8
	s13.3-1.4,19.3,15.7c6.1,17.1-9.5,19.9-9.5,19.9S26.3,57.5,21.5,56.9"/>
<g id="XMLID_62_" class="st12">
	<g id="XMLID_63_">
		<defs>
			<rect id="XMLID_64_" x="10.9" y="21.7" width="11.1" height="35.3"/>
		</defs>
		<clipPath id="XMLID_48_">
			<use xlink:href="#XMLID_64_"  style="overflow:visible;"/>
		</clipPath>
		<path id="XMLID_65_" class="st15" d="M12.8,28.8c1.6-3.4,4.6-5.7,7.6-7.1c-1.8,8.5-1.9,18.8,0.2,29.5c0.4,2,0.9,3.9,1.4,5.9
			c-0.2,0-0.4,0-0.5,0c0,0-4.3-0.4-6.7-2.7C12.4,52,8.6,37.8,12.8,28.8"/>
	</g>
</g>
<path id="XMLID_61_" class="st16" d="M41.3,46c0.3,1.8-0.8,3.4-2.6,3.8C37,50.1,35.3,49,35,47.2c-0.3-1.8,0.8-3.4,2.6-3.8
	C39.3,43.1,41,44.3,41.3,46"/>
<path id="XMLID_60_" d="M11,40.9c2.6-0.7,2.4-2.7,2.4-2.9c0-0.4,0.2-0.7,0.6-0.7c0,0,0.1,0,0.1,0c0.4,0,0.7,0.3,0.7,0.7
	c0,1.3-0.5,3.7-3.7,4.5L11,40.9z"/>
<path id="XMLID_59_" d="M37.5,33.3c-0.3,0.1-0.6,0.4-0.6,0.7c0,0.3-0.1,2.6-3.1,3.2c0,0,0,0,0,0c-3.1,0.6-4-1.6-4-1.9
	c-0.1-0.4-0.5-0.6-0.9-0.4c-0.4,0.1-0.6,0.5-0.4,0.9c0.4,1.2,2.2,3.4,5.7,2.8c0,0,0,0,0,0c3.5-0.7,4.3-3.3,4.3-4.6
	c0-0.4-0.3-0.7-0.7-0.7C37.6,33.3,37.5,33.3,37.5,33.3"/>
<path id="XMLID_58_" class="st9" d="M16.4,51.9c-0.2-0.4-0.3-0.9-0.4-1.3c-0.4-2-0.5-6.2,2.6-6.7c3-0.5,7.9,0.7,8.6,3.4
	c0.1,0.4,0.3,0.8,0.3,1.2c0.1,0.5,0.2,1.1-0.7,1.9c-0.9,0.7-3.9-0.2-7.1,0.5C18.2,51.1,16.9,51.6,16.4,51.9"/>
<path id="XMLID_57_" d="M11.1,34.1c-0.1,0,0.1-1.3,0.3-1.5c0.8-0.9,1.2-1.7,1-3.1c0-0.3,0.1-0.5,0.4-0.6c0.3-0.1,0.5,0.1,0.6,0.4
	c0.3,1.7-0.5,3.5-2.1,4.7c-0.1,0.1-0.2,0.1-0.3,0.1"/>
<path id="XMLID_56_" d="M31.9,31.2c-1.1,0-2.2-0.3-3.1-0.8c-1.3-0.7-2.2-1.8-2.4-3.1c0-0.3,0.1-0.5,0.4-0.6c0.3,0,0.5,0.1,0.6,0.4
	c0.2,1,0.9,1.9,2,2.5c1.1,0.6,2.5,0.8,3.8,0.5c0.2,0,0.5-0.1,0.7-0.2c0.3-0.1,0.5,0.1,0.6,0.3c0.1,0.3-0.1,0.5-0.3,0.6
	c-0.3,0.1-0.5,0.1-0.8,0.2C32.8,31.2,32.4,31.2,31.9,31.2"/>
<path id="XMLID_55_" class="st17" d="M41.9,23.8c0.3,1.7-1.1,3.3-3.2,3.7c-2.1,0.4-4-0.7-4.3-2.4c-1-4,0.7-10,2-10.2
	C37.8,14.7,41.1,19.4,41.9,23.8"/>
<g id="XMLID_5_">
	<rect id="XMLID_52_" x="13.6" y="94" class="st18" width="46" height="28.7"/>
	<rect id="XMLID_49_" x="14" y="94.4" class="st19" width="45.2" height="27.8"/>
	<path id="XMLID_46_" class="st20" d="M59.2,94.4c0,0,0.4,23.5-4.5,24.4c-12.6,2.3-40.7,3.3-40.7,3.3h45.2V94.4z"/>
	<path id="XMLID_43_" class="st21" d="M59.2,102.2c0,0-16.7,6.8-22.6,6.8S14,102.2,14,102.2v-7h45.2V102.2z"/>
	<path id="XMLID_40_" class="st22" d="M59.2,101.5c0,0-16.7,6.8-22.6,6.8S14,101.5,14,101.5v-7h45.2V101.5z"/>
	<rect id="XMLID_37_" x="34.4" y="107" class="st23" width="4.5" height="2.4"/>
	<rect id="XMLID_34_" x="42.7" y="89.8" class="st19" width="1.8" height="4.2"/>
	<polygon id="XMLID_31_" class="st19" points="29.8,92.5 31.3,93.4 31.6,94 29.8,94 	"/>
	<rect id="XMLID_27_" x="34.4" y="108" class="st24" width="4.5" height="2.4"/>
	<rect id="XMLID_7_" x="44.5" y="93.7" class="st24" width="3.3" height="0.3"/>
	<rect id="XMLID_6_" x="26.5" y="93.7" class="st24" width="3.3" height="0.3"/>
</g>
<path id="XMLID_2_" class="st25" d="M14,101.5v-7l24.3,0c0,0-15.8-0.2-21.5,2.3C15.3,97.4,14,101.5,14,101.5z"/>
</svg>
