<?xml version="1.0" encoding="utf-8"?>
<!-- Generator: Adobe Illustrator 19.0.0, SVG Export Plug-In . SVG Version: 6.00 Build 0)  -->
<svg version="1.1" id="Layer_1" xmlns="http://www.w3.org/2000/svg" xmlns:xlink="http://www.w3.org/1999/xlink" x="0px" y="0px"
	 viewBox="0 0 54.4 53.3" style="enable-background:new 0 0 54.4 53.3;" xml:space="preserve">
<style type="text/css">
	.st0{opacity:0.3;}
	.st1{fill:#F8CE5D;stroke:#000000;stroke-miterlimit:10;}
	.st2{opacity:0.6;fill:#F9ECD7;}
	.st3{fill:none;stroke:#000000;stroke-miterlimit:10;}
	.st4{fill:#606060;}
	.st5{fill:#B7B7B7;}
</style>
<path id="XMLID_66_" class="st0" d="M44.4,53.3L5.7,53.3c-3.1,0-5.7-2.6-5.7-5.7l0-22.2c0-3.1,2.6-5.7,5.7-5.7l38.8,0.1
	c3.1,0,5.7,2.6,5.7,5.7l0,22.2C50.1,50.8,47.6,53.3,44.4,53.3z"/>
<path id="XMLID_65_" class="st1" d="M48.2,49.6L9.5,49.6c-3.1,0-5.7-2.6-5.7-5.7l0-22.2c0-3.1,2.6-5.7,5.7-5.7l38.8,0.1
	c3.1,0,5.7,2.6,5.7,5.7l0,22.2C53.9,47.1,51.4,49.6,48.2,49.6z"/>
<g id="XMLID_37_">
	<path id="XMLID_62_" d="M8,34.8l-1.1,0l0-5.1c0.7,0,1.2,0,1.4,0c0.8,0,1.3,0.2,1.8,0.7c0.4,0.4,0.7,1,0.7,1.7
		C10.7,33.8,9.8,34.8,8,34.8z M7.8,30.4l0,3.5c0.1,0,0.3,0,0.5,0c0.5,0,0.8-0.2,1.1-0.5c0.3-0.3,0.4-0.8,0.4-1.4
		c0-1.1-0.5-1.7-1.5-1.7C8.1,30.4,8,30.4,7.8,30.4z"/>
	<path id="XMLID_60_" d="M12.4,30.4l0,1.2l1.7,0l0,0.8l-1.7,0l0,1.5l2.3,0l0,0.8l-3.2,0l0-5.1l3.3,0l0,0.8L12.4,30.4z"/>
	<path id="XMLID_58_" d="M15.4,34.5l0.3-0.8c0.4,0.3,0.7,0.4,1.1,0.4c0.5,0,0.8-0.2,0.8-0.6c0-0.2-0.1-0.3-0.2-0.5
		c-0.1-0.2-0.4-0.3-0.8-0.5c-0.4-0.2-0.7-0.4-0.8-0.5c-0.1-0.1-0.2-0.3-0.3-0.5c-0.1-0.2-0.1-0.4-0.1-0.6c0-0.4,0.1-0.7,0.4-1
		c0.3-0.3,0.7-0.4,1.1-0.4c0.6,0,1,0.1,1.3,0.3L18,30.7c-0.3-0.2-0.7-0.3-1-0.3c-0.2,0-0.4,0.1-0.5,0.2s-0.2,0.3-0.2,0.4
		c0,0.3,0.3,0.6,1,0.9c0.3,0.2,0.6,0.3,0.7,0.5c0.2,0.1,0.3,0.3,0.3,0.5c0.1,0.2,0.1,0.4,0.1,0.6c0,0.4-0.2,0.8-0.5,1
		c-0.3,0.3-0.8,0.4-1.3,0.4C16.2,34.9,15.7,34.7,15.4,34.5z"/>
	<path id="XMLID_55_" d="M22.3,34.8l-0.4-1l-1.8,0l-0.4,1l-1,0l2.1-5.2l0.4,0l2.1,5.2L22.3,34.8z M21,31.1L20.4,33l1.2,0L21,31.1z"
		/>
	<path id="XMLID_53_" d="M27.4,29.9L27,30.7c-0.2-0.2-0.5-0.3-1-0.3c-0.4,0-0.8,0.2-1.1,0.5c-0.3,0.4-0.4,0.8-0.4,1.4
		c0,0.6,0.1,1,0.4,1.3c0.3,0.3,0.6,0.5,1,0.5c0.5,0,0.9-0.2,1.1-0.5l0.4,0.7c-0.4,0.4-0.9,0.6-1.6,0.6c-0.7,0-1.3-0.2-1.7-0.7
		c-0.4-0.5-0.6-1.1-0.6-1.9c0-0.8,0.2-1.4,0.7-1.9c0.4-0.5,1-0.8,1.7-0.8C26.5,29.6,27,29.7,27.4,29.9z"/>
	<path id="XMLID_51_" d="M30.3,30.5l0,4.3l-0.9,0l0-4.3l-1.6,0l0-0.8l4.3,0l0,0.8L30.3,30.5z"/>
	<path id="XMLID_49_" d="M32.7,34.8l0-5.1l0.9,0l0,5.1L32.7,34.8z"/>
	<path id="XMLID_47_" d="M36.6,34.9l-0.5,0l-1.9-5.2l1,0l1.2,3.5l1.3-3.5l1,0L36.6,34.9z"/>
	<path id="XMLID_44_" d="M41.6,34.8l-0.4-1l-1.8,0l-0.4,1l-1,0l2.1-5.2l0.4,0l2.1,5.2L41.6,34.8z M40.3,31.2l-0.6,1.9l1.2,0
		L40.3,31.2z"/>
	<path id="XMLID_41_" d="M44.3,34.8l-1.1,0l0-5.1c0.7,0,1.2,0,1.4,0c0.7,0,1.3,0.2,1.8,0.7s0.7,1,0.7,1.7
		C47,33.9,46.1,34.8,44.3,34.8z M44.1,30.5l0,3.5c0.1,0,0.3,0,0.5,0c0.5,0,0.8-0.2,1.1-0.5c0.3-0.3,0.4-0.8,0.4-1.4
		c0-1.1-0.5-1.7-1.5-1.7C44.4,30.5,44.2,30.5,44.1,30.5z"/>
	<path id="XMLID_38_" d="M47.5,32.2c0-0.7,0.2-1.4,0.6-1.9c0.4-0.5,0.9-0.8,1.6-0.8c0.7,0,1.3,0.2,1.7,0.7c0.4,0.5,0.6,1.1,0.6,1.9
		c0,0.8-0.2,1.5-0.6,2c-0.4,0.5-1,0.7-1.7,0.7c-0.7,0-1.2-0.2-1.6-0.7C47.7,33.7,47.5,33,47.5,32.2z M48.5,32.2
		c0,0.6,0.1,1.1,0.3,1.4c0.2,0.3,0.5,0.5,0.9,0.5c0.5,0,0.8-0.2,1-0.5c0.2-0.3,0.4-0.8,0.4-1.4c0-1.2-0.4-1.8-1.3-1.8
		c-0.4,0-0.7,0.2-0.9,0.5C48.6,31.2,48.5,31.7,48.5,32.2z"/>
</g>
<circle id="XMLID_36_" cx="49.8" cy="20" r="0.8"/>
<path id="XMLID_32_" class="st2" d="M29.3,16.5l-20.2,0c0,0-1.3-0.1-3,1.3c-1.4,1-1.7,3.1-1.7,3.1l0,17.9c0,0,4.8-12.5,8.3-15.7
	C15.3,20.7,29.3,16.5,29.3,16.5z"/>
<line id="XMLID_35_" class="st3" x1="28.6" y1="2.1" x2="49.8" y2="20"/>
<line id="XMLID_31_" class="st3" x1="7.7" y1="19.5" x2="28.6" y2="2.1"/>
<path id="XMLID_34_" class="st4" d="M30.6,1.7c0.1,1-0.8,2-1.7,2.2c-1,0.1-1.9-0.6-2-1.5c-0.1-1,0.7-2.2,1.6-2.3S30.5,0.7,30.6,1.7z
	"/>
<circle id="XMLID_33_" class="st5" cx="28.6" cy="2.1" r="1.8"/>
<circle id="XMLID_30_" cx="7.7" cy="19.5" r="0.8"/>
<path id="XMLID_29_" class="st2" d="M30.8,49l17.5,0.1c0,0,2.2-0.1,3.6-1.6c1.6-1.7,1.5-3.4,1.5-3.4l0-12.7c0,0-4.2,9.4-6.7,11.3
	C43.6,45.2,30.8,49,30.8,49z"/>
</svg>
