<?xml version="1.0" encoding="utf-8"?>
<!-- Generator: Adobe Illustrator 19.0.0, SVG Export Plug-In . SVG Version: 6.00 Build 0)  -->
<svg version="1.1" id="Layer_1" xmlns="http://www.w3.org/2000/svg" xmlns:xlink="http://www.w3.org/1999/xlink" x="0px" y="0px"
	 viewBox="0 0 57.5 55" style="enable-background:new 0 0 57.5 55;" xml:space="preserve">
<style type="text/css">
	.st0{opacity:0.3;}
	.st1{fill:#F8CE5D;stroke:#000000;stroke-miterlimit:10;}
	.st2{fill:none;stroke:#000000;stroke-miterlimit:10;}
	.st3{fill:#B7B7B7;}
	.st4{fill:#878787;}
	.st5{opacity:0.6;fill:#F9ECD7;}
</style>
<g id="XMLID_28_">
	<path id="XMLID_66_" class="st0" d="M43.3,55L4.9,49.7c-3.1-0.4-5.3-3.3-4.9-6.4l3-22c0.4-3.1,3.3-5.3,6.4-4.9l38.4,5.3
		c3.1,0.4,5.3,3.3,4.9,6.4l-3,22C49.3,53.2,46.4,55.4,43.3,55z"/>
	<path id="XMLID_65_" class="st1" d="M47.6,51.8L9.2,46.6c-3.1-0.4-5.3-3.3-4.9-6.4l3-22c0.4-3.1,3.3-5.3,6.4-4.9l38.4,5.3
		c3.1,0.4,5.3,3.3,4.9,6.4l-3,22C53.5,50.1,50.7,52.3,47.6,51.8z"/>
	<g id="XMLID_37_">
		<path id="XMLID_62_" d="M9.7,31.7l-1.1-0.2l0.7-5.1c0.7,0.1,1.2,0.1,1.4,0.1c0.7,0.1,1.3,0.4,1.7,0.9c0.4,0.5,0.5,1.1,0.4,1.8
			C12.5,31.1,11.5,31.9,9.7,31.7z M10.1,27.4l-0.5,3.5c0.1,0,0.3,0.1,0.5,0.1c0.5,0.1,0.8-0.1,1.1-0.4c0.3-0.3,0.5-0.7,0.6-1.3
			c0.1-1.1-0.3-1.7-1.3-1.8C10.4,27.4,10.3,27.4,10.1,27.4z"/>
		<path id="XMLID_60_" d="M14.7,28l-0.2,1.2l1.7,0.2l-0.1,0.8L14.4,30l-0.2,1.5l2.3,0.3l-0.1,0.8l-3.2-0.4l0.7-5.1l3.3,0.4L17,28.3
			L14.7,28z"/>
		<path id="XMLID_58_" d="M17,32.4l0.4-0.8c0.3,0.3,0.7,0.5,1,0.5c0.5,0.1,0.8-0.1,0.9-0.4c0-0.2,0-0.3-0.1-0.5
			c-0.1-0.2-0.3-0.4-0.7-0.6c-0.4-0.2-0.6-0.4-0.7-0.6c-0.1-0.1-0.2-0.3-0.3-0.5c0-0.2-0.1-0.4,0-0.6c0.1-0.4,0.2-0.7,0.6-0.9
			c0.3-0.2,0.7-0.3,1.2-0.2c0.6,0.1,1,0.3,1.3,0.5L20.1,29c-0.3-0.3-0.6-0.4-1-0.5c-0.2,0-0.4,0-0.5,0.1s-0.2,0.2-0.2,0.4
			c0,0.3,0.2,0.6,0.8,1c0.3,0.2,0.5,0.4,0.7,0.6c0.1,0.2,0.2,0.3,0.3,0.5c0.1,0.2,0.1,0.4,0,0.6c-0.1,0.4-0.3,0.7-0.6,1
			c-0.4,0.2-0.8,0.3-1.4,0.2C17.8,32.9,17.4,32.7,17,32.4z"/>
		<path id="XMLID_55_" d="M23.9,33.6l-0.2-1.1l-1.7-0.2l-0.5,1l-1-0.1l2.7-4.9l0.4,0.1l1.3,5.4L23.9,33.6z M23.1,29.8l-0.9,1.8
			l1.2,0.2L23.1,29.8z"/>
		<path id="XMLID_53_" d="M29.6,29.5l-0.5,0.7c-0.2-0.2-0.5-0.4-0.9-0.4c-0.4-0.1-0.8,0.1-1.1,0.4c-0.3,0.3-0.5,0.8-0.6,1.3
			c-0.1,0.5,0,1,0.2,1.4c0.2,0.4,0.5,0.6,0.9,0.6c0.5,0.1,0.9-0.1,1.2-0.4l0.3,0.8c-0.4,0.3-1,0.5-1.7,0.4c-0.7-0.1-1.2-0.4-1.6-0.9
			c-0.3-0.5-0.4-1.2-0.3-2c0.1-0.8,0.4-1.4,0.9-1.8c0.5-0.4,1.1-0.6,1.8-0.5C28.8,29,29.2,29.2,29.6,29.5z"/>
		<path id="XMLID_51_" d="M32.4,30.4l-0.6,4.3l-0.9-0.1l0.6-4.3l-1.6-0.2l0.1-0.8l4.2,0.6l-0.1,0.8L32.4,30.4z"/>
		<path id="XMLID_49_" d="M34.1,35l0.7-5.1l0.9,0.1L35,35.2L34.1,35z"/>
		<path id="XMLID_47_" d="M38,35.6l-0.5-0.1l-1.2-5.4l1,0.1l0.7,3.6l1.7-3.3l1,0.1L38,35.6z"/>
		<path id="XMLID_44_" d="M43,36.2l-0.2-1.1L41,34.9l-0.5,1l-1-0.1l2.7-4.9l0.4,0.1l1.3,5.5L43,36.2z M42.2,32.5l-0.9,1.8l1.2,0.2
			L42.2,32.5z"/>
		<path id="XMLID_41_" d="M45.7,36.6l-1.1-0.2l0.7-5.1c0.7,0.1,1.2,0.1,1.4,0.1c0.7,0.1,1.3,0.4,1.7,0.9c0.4,0.5,0.5,1.1,0.4,1.8
			C48.4,36.1,47.4,36.9,45.7,36.6z M46,32.3l-0.5,3.5c0.1,0,0.3,0.1,0.5,0.1c0.5,0.1,0.8-0.1,1.1-0.4c0.3-0.3,0.5-0.7,0.6-1.3
			c0.1-1.1-0.3-1.7-1.3-1.8C46.3,32.3,46.2,32.3,46,32.3z"/>
		<path id="XMLID_38_" d="M49.2,34.5c0.1-0.7,0.4-1.3,0.8-1.8c0.5-0.4,1-0.6,1.7-0.5c0.7,0.1,1.3,0.4,1.6,0.9c0.3,0.5,0.4,1.2,0.3,2
			s-0.4,1.4-0.9,1.9c-0.5,0.4-1.1,0.6-1.8,0.5c-0.7-0.1-1.2-0.4-1.5-0.9C49.2,36,49.1,35.3,49.2,34.5z M50.2,34.6
			c-0.1,0.6,0,1.1,0.1,1.4c0.2,0.4,0.4,0.6,0.8,0.6c0.5,0.1,0.8-0.1,1.1-0.3c0.3-0.3,0.5-0.7,0.5-1.3c0.2-1.2-0.2-1.9-1.1-2
			c-0.4-0.1-0.7,0.1-1,0.4C50.4,33.6,50.2,34,50.2,34.6z"/>
	</g>
	<circle id="XMLID_36_" cx="53.1" cy="22.7" r="0.8"/>
	<line id="XMLID_35_" class="st2" x1="36.3" y1="2.1" x2="53.1" y2="22.7"/>
	<path id="XMLID_34_" class="st3" d="M38.3,1.9c0,1-1,1.9-2,1.9S34.5,3,34.5,2.1S35.5,0,36.5,0S38.3,0.9,38.3,1.9z"/>
	<circle id="XMLID_33_" class="st4" cx="36.3" cy="2.1" r="1.8"/>
	<path id="XMLID_32_" class="st5" d="M33.2,16.5l-20-2.7c0,0-1.3-0.3-3.2,0.8c-1.5,0.9-2.1,2.9-2.1,2.9L5.5,35.2
		c0,0,6.4-11.8,10.4-14.4C18.8,18.8,33.2,16.5,33.2,16.5z"/>
	<line id="XMLID_31_" class="st2" x1="11.5" y1="16.5" x2="36.3" y2="2.1"/>
	<circle id="XMLID_30_" cx="11.5" cy="16.5" r="0.8"/>
	<path id="XMLID_29_" class="st5" d="M30.4,48.9l17.3,2.5c0,0,2.2,0.2,3.8-1.1c1.8-1.5,1.9-3.2,1.9-3.2l1.7-12.5
		c0,0-5.4,8.7-8.2,10.3C43.6,46.8,30.4,48.9,30.4,48.9z"/>
</g>
</svg>
