<?xml version="1.0" encoding="utf-8"?>
<!-- Generator: Adobe Illustrator 19.0.0, SVG Export Plug-In . SVG Version: 6.00 Build 0)  -->
<svg version="1.1" id="Layer_1" xmlns="http://www.w3.org/2000/svg" xmlns:xlink="http://www.w3.org/1999/xlink" x="0px" y="0px"
	 viewBox="0 0 196.6 199.5" style="enable-background:new 0 0 196.6 199.5;" xml:space="preserve">
<style type="text/css">
	.st0{fill:#6D582B;}
	.st1{fill:#D52029;}
	.st2{fill:#FD1719;}
	.st3{fill:#FC1A1E;}
	.st4{fill:#DC151B;}
	.st5{fill:#FFA59D;}
	.st6{fill:#FFFFFF;}
	.st7{fill:#25A8F4;}
	.st8{fill:#FA1E1D;}
	.st9{fill:#FFA7A8;}
	.st10{opacity:0.18;}
	.st11{clip-path:url(#SVGID_2_);}
	.st12{fill:#2B1A3B;}
	.st13{fill:#FF2525;}
	.st14{fill:#21A9F1;}
	.st15{fill:#A6DDF8;}
</style>
<path class="st0" d="M66,192.5c0,1.6,15.7,1.7,35,1.7c19.3,0,35-0.1,35-1.7c0-1.6-15.7-3.9-35-3.9C81.7,188.6,66,190.8,66,192.5"/>
<path class="st1" d="M143.6,133.3c-4.7-4.1-8.5-5.1-8.5-5.1l-8.2,24.5c11.5-2.7,21.2,15.4,22,20.7c0.8,5.4,2.6,2,2.6,2
	s1.5-3.1,2.6-7.7C143.4,151.5,142,140.4,143.6,133.3"/>
<path class="st2" d="M152.3,144.4c-2.8-5.1-6-8.7-8.7-11.1c-1.6,7.1-0.2,18.2,10.6,34.5C155.8,161.5,156.8,152.4,152.3,144.4"/>
<path class="st3" d="M73.7,156.4l-10.2-23.7c0,0-9.3,3.3-15.8,17.6c-6.5,14.3,3.3,30.8,3.3,30.8s2.1,3.2,2.5-2.2
	C53.9,173.5,62,154.7,73.7,156.4"/>
<path class="st4" d="M47.8,150.3c-0.1,0.3-0.3,0.6-0.4,1c2.5,1.4,5,3.4,6.8,5.5c2.4,2.8,3.7,6.2,4.3,9.7c3.6-5.8,8.9-10.9,15.3-10
	l-10.2-23.7C63.6,132.7,54.3,136,47.8,150.3"/>
<path class="st5" d="M52.3,150.1c0,0-3.8,10-0.9,25.8c0,0-8.7-13.6-1.3-27.4L52.3,150.1z"/>
<path class="st6" d="M103.7,1.6c0,0-3.9-3.7-7.9,0.4c-6.1,6.4-39.9,50.7-39.9,93.2c0,37.6,11.9,72.3,31.9,95.7l23.1,0.7
	c0,0,32.5-44.8,30-92.5c-2.5-47.7-13.3-62.6-22.7-78.3C108.8,4.9,103.7,1.6,103.7,1.6"/>
<path class="st7" d="M76.1,174.3c3.5,6.3,7.7,11.8,11.6,16.4l23.1,0.7c0,0,4.4-6.1,9.9-16.2C111.9,177.3,91,180.1,76.1,174.3"/>
<path class="st8" d="M103.7,1.6c0,0-3.9-3.7-7.9,0.4c-2.1,2.1-9.5,10.7-15.9,22c8-4.9,33.6-3.5,40.2-0.1c-0.6-1.1-1.3-2.1-1.9-3.2
	C108.8,4.9,103.7,1.6,103.7,1.6"/>
<path class="st9" d="M100.7,1.6c0,0-9.4,12.8-12.9,19.4l-5.8,1L96.2,2.6C96.2,2.6,99-0.7,100.7,1.6"/>
<g class="st10">
	<g>
		<defs>
			
				<rect id="SVGID_1_" x="31.1" y="28.1" transform="matrix(-0.7538 0.6571 -0.6571 -0.7538 238.536 111.9831)" width="134.3" height="145.1"/>
		</defs>
		<clipPath id="SVGID_2_">
			<use xlink:href="#SVGID_1_"  style="overflow:visible;"/>
		</clipPath>
		<path class="st11" d="M100.7,2.4c0,0,14.2,29.8,16,43c0.6,4.6,2.7,11,4.5,18.7c-6.2-7-16.5-9.8-16.5-9.8l-15,37.9
			c0,0,23.3,14.7,33.8-7.6c0.3-0.5,0.5-1.1,0.7-1.6c0.6,10.6-0.9,22.3-7.3,33.8c-15.8,28.7-37.9,9.1-37.9,9.1l-22.6-17.1
			c0,12,6.1,39.1,15,56.9c0,0,25.3-2.7,29.5,7.7c4.2,10.4-18.7,10.4-18.7,10.4l5.5,7.1l17,0.5c0,0,29.7-42,29.9-77.3
			c0.2-35.3-3.5-69.7-18-91.5S100.7,2.4,100.7,2.4"/>
	</g>
</g>
<path class="st12" d="M115.1,58.9c7.6,8.7,6.6,22.1-2.4,29.9c-8.9,7.8-22.3,7-29.9-1.7c-7.6-8.7-6.6-22.1,2.4-29.9
	C94.1,49.4,107.5,50.2,115.1,58.9"/>
<path class="st13" d="M113.8,60.1c7,8,6,20.3-2.2,27.4c-8.2,7.1-20.5,6.4-27.4-1.6c-7-8-6-20.3,2.2-27.4
	C94.5,51.4,106.8,52.1,113.8,60.1"/>
<path class="st12" d="M110.5,63c5.4,6.2,4.7,15.8-1.7,21.3c-6.4,5.5-15.9,5-21.3-1.2c-5.4-6.2-4.7-15.8,1.7-21.3
	S105.1,56.7,110.5,63"/>
<path class="st9" d="M87.6,59.9c7.9-6.9,19.7-6.4,26.8,0.9c-0.2-0.3-0.4-0.5-0.6-0.8c-7-8-19.3-8.7-27.4-1.6
	c-8.2,7.1-9.1,19.4-2.2,27.4c0.2,0.2,0.4,0.5,0.7,0.7C78.6,78.6,79.7,66.8,87.6,59.9"/>
<path class="st14" d="M108.9,64.4c4.7,5.4,4,13.6-1.4,18.3c-5.5,4.8-13.7,4.3-18.4-1.1c-4.7-5.4-4-13.6,1.4-18.3
	C96,58.5,104.2,59,108.9,64.4"/>
<path class="st15" d="M90.5,63.3c-1.9,1.6-3.2,3.7-3.9,5.9c3.3-2.2,7.3-5.6,8.6-4.5c0.7,0.6,0,1.8,0.9,2.7c1.5,1.4,5.6,0.5,6.2-1.3
	c0.6-1.8-2.7-3.8-2.2-4.6c0.6-1,6.1,2.2,8.2,2.3C103.6,59,95.8,58.7,90.5,63.3"/>
</svg>
