<?xml version="1.0" encoding="utf-8"?>
<!-- Generator: Adobe Illustrator 19.0.0, SVG Export Plug-In . SVG Version: 6.00 Build 0)  -->
<svg version="1.1" id="Layer_1" xmlns="http://www.w3.org/2000/svg" xmlns:xlink="http://www.w3.org/1999/xlink" x="0px" y="0px"
	 viewBox="0 0 33.6 34.3" style="enable-background:new 0 0 33.6 34.3;" xml:space="preserve">
<style type="text/css">
	.st0{fill:#535B65;}
	.st1{fill:#FBB03B;}
	.st2{fill:#FFFFFF;}
	.st3{fill:#E58126;}
</style>
<polyline class="st0" points="0,26.5 16.8,34.3 33.6,26.5 "/>
<line class="st0" x1="33.6" y1="25.2" x2="0" y2="25.2"/>
<polyline class="st1" points="0,25.2 16.8,33 33.6,25.2 "/>
<polyline class="st1" points="33.6,25.2 16.8,17.8 0,25.2 "/>
<path class="st2" d="M19.7,0.9c-1,0.1-1.9,0.2-2.9,0.2c-1,0-1.9-0.1-2.9-0.2c-3.1,8.4-6,16.2-8.8,23.4c3.6,2.2,7.6,3.3,11.6,3.3
	c4,0,8.1-1.1,11.6-3.3C25.7,17.1,22.7,9.3,19.7,0.9"/>
<path class="st3" d="M5.1,24.3c3.6,2.2,7.6,3.3,11.6,3.3c4,0,8.1-1.1,11.6-3.3c-0.5-1.4-1.1-2.9-1.7-4.4c-6.3,3.1-13.7,3.1-19.9,0
	C6.3,21.4,5.7,22.8,5.1,24.3"/>
<path class="st3" d="M8.5,15.4c5.3,2.1,11.2,2.1,16.5,0c-0.6-1.5-1.2-3.1-1.8-4.7c-4.2,1.3-8.7,1.3-13,0C9.7,12.3,9.1,13.9,8.5,15.4
	"/>
<path class="st3" d="M19.7,0.9c-1,0.1-1.9,0.2-2.9,0.2c-1,0-1.9-0.1-2.9-0.2c-0.6,1.7-1.2,3.4-1.8,5c3.1,0.7,6.3,0.7,9.4,0
	C20.9,4.3,20.3,2.6,19.7,0.9"/>
<path class="st0" d="M19.7,0.7c0,0.4-1.3,0.7-2.9,0.7c-1.6,0-2.9-0.3-2.9-0.7c0-0.4,1.3-0.7,2.9-0.7C18.4,0,19.7,0.3,19.7,0.7"/>
</svg>
