<?xml version="1.0" encoding="utf-8"?>
<!-- Generator: Adobe Illustrator 26.0.0, SVG Export Plug-In . SVG Version: 6.00 Build 0)  -->
<svg version="1.1" id="Capa_1" xmlns="http://www.w3.org/2000/svg" xmlns:xlink="http://www.w3.org/1999/xlink" x="0px" y="0px"
	 viewBox="0 0 71.4 60.8" style="enable-background:new 0 0 71.4 60.8;" xml:space="preserve">
<style type="text/css">
	.st0{fill:#E9F0FF;}
	.st1{fill:#9FC5F4;}
	.st2{fill:#B6B6B6;}
	.st3{fill:#2F48A6;}
	.st4{fill:#1B3792;}
	.st5{fill:#FEBE9C;}
	.st6{fill:#19274B;}
	.st7{fill:#E7AA8B;}
	.st8{fill:#515151;}
	.st9{fill:#1B3793;}
	.st10{fill:#1C3793;}
	.st11{fill:#E6AB8D;}
	.st12{fill:#E6AB8E;}
	.st13{fill:#112E8E;}
	.st14{fill:#F3F5F9;}
	.st15{fill:#0C2A8B;}
	.st16{fill:#F9FCFD;}
	.st17{fill:#FCFEFE;}
	.st18{fill:#A6B3D6;}
	.st19{fill:#E8E8E8;}
	.st20{fill:#E5E5E5;}
	.st21{fill:#FDFDFE;}
	.st22{fill:#E99B8F;}
	.st23{fill:#3D5A5C;}
	.st24{fill:#244C52;}
	.st25{fill:#393D57;}
	.st26{fill:#102047;}
	.st27{fill:#4C4A5E;}
	.st28{fill:#262F4F;}
	.st29{fill:#0C298B;}
	.st30{fill:#FFFFFF;}
</style>
<circle class="st0" cx="35.8" cy="33.7" r="27.1"/>
<circle class="st1" cx="1.6" cy="35.4" r="1.6"/>
<circle class="st1" cx="70.7" cy="44.8" r="0.7"/>
<circle class="st1" cx="39.7" cy="4.9" r="0.7"/>
<circle class="st1" cx="6.1" cy="26.1" r="0.7"/>
<circle class="st1" cx="61.1" cy="52.7" r="0.7"/>
<circle class="st1" cx="53.9" cy="1" r="1"/>
<path class="st2" d="M49.5,52.6c-0.7,1.1-0.4,2.2-0.4,3.4c-0.3,0.3-0.8,0.3-1.2,0.3c-8.6,0-17.2,0-25.8,0c-0.4,0-0.9,0.1-1.3-0.4
	c-0.1-1.3-0.1-2.7-0.2-4.1c0-0.3-0.2-0.5-0.4-0.7c-0.2-2.7-0.3-5.4-0.5-8.1c-0.1-1.4-0.3-2.7-0.2-4.1c0-0.7,0.2-1.3,1-1.6
	c1.9-0.1,3.7-0.3,5.6,0c0.5,0.2,0.6,0.6,0.7,1.1c0.6,3.1,2.3,5.4,5.1,6.8c0.2,0.1,0.3,0.2,0.4,0.4c0.1,0.3,0,0.5-0.1,0.7
	c-0.3,1.6,0.1,2.5,1.3,2.9c1.1,0.4,2-0.1,2.7-1.5c0.2-0.7,0.5-1.2,1.4-1.1c3.5,0.4,7,1.1,10.4,2.3c0.5,0.1,0.9,0.3,1.3,0.6
	C49.9,50.6,49.6,51.6,49.5,52.6z"/>
<path class="st3" d="M26.4,37.7c-2,0-3.9,0-5.9,0c0.1-0.5,0.6-0.5,0.9-0.5c0.8,0,1-0.4,0.9-1.1C22.1,34.4,22,32.7,22,31
	c0-1.6,0.3-3.1,1.6-4.3c0.6-0.5,1.3-0.9,2.2-1c0.9-0.1,1.6,0.2,2,1.1c0.3,0.6,0.9,1.1,1.5,1.5c1.5,0.8,3.1,1.5,4.8,1.9
	c0.6,0.1,1.1,0,1.7-0.2c1.5-0.3,2.8-0.9,4.2-1.7c1-0.6,1.3-1.6,2-2.4c1.5-0.1,3,0,4.2,1.1c1.2,1.3,1.4,2.9,1.3,4.5
	c0,0.4,0.1,0.8,0.2,1.2c-0.1,0.2-0.3,0.4-0.1,0.7c0,0.9,0,1.8,0,2.7c0,0.7,0.3,1.1,1,1.1c0.3,0,0.7,0,1,0.2c0.2,0.1,0.3,0.3,0,0.5
	c-0.5,0.3-1,0.2-1.6,0.2c-6.6,0-13.2,0-19.8,0C27.5,38,26.9,38.1,26.4,37.7z"/>
<path class="st4" d="M23.6,26.7c0.2,0.1,0.1,0.3,0,0.4c-0.9,0.9-1.1,2.1-1.2,3.3c-0.1,2.1,0,4.2,0.3,6.3c0.1,0.6-0.1,0.7-0.6,0.7
	s-1.1-0.2-1.6,0.2c-0.7,0.4-0.7,0.9-0.7,1.6c0.3,3.7,0.5,7.4,0.7,11.1c0,0.3,0.3,0.7-0.2,0.9c-2.3-0.9-4.6-1.7-6.8-2.6
	c-1.5-0.6-2.6-1.5-2.8-3.2c0.1-0.4,0.1-0.8,0-1.2C10.9,43,11.4,42,12,41c2.1-3.1,4.4-6.1,6.8-9.1c1.2-1.5,2.4-2.9,3.6-4.3
	C22.7,27.3,23.1,26.9,23.6,26.7z"/>
<path class="st4" d="M49.5,37.7c-0.5-0.5-1.2-0.1-1.8-0.2c-0.3,0-0.7,0-0.7-0.4c0.1-1.3-0.3-2.7,0.2-3.9c0-0.1,0.1-0.2,0.2-0.2
	c-0.3-0.4-0.4-0.8-0.4-1.2c0.1-1.6,0-3.2-1.1-4.5c0,0,0.1-0.2,0.1-0.3c1.9,1.8,3.4,3.8,5.1,5.8c0.1,0.1,0.3,0.2,0.4,0.4
	c1.7,2.1,3.3,4.2,5,6.3c0.2,0.1,0.3,0.2,0.3,0.4c0.6,1,1.3,1.9,1.7,3c0.6,2.1,0.3,3.5-1.4,4.8c-1.5,1.2-3.2,2.2-4.8,3.2
	c-0.9,0.6-1.7,1.2-2.6,1.7c-0.6-0.2-0.2-0.7-0.2-1c0-0.7,0-1.3,0-2c-0.4-1.1-0.1-2.3-0.1-3.4c0.2-2.4,0.3-4.8,0.4-7.2
	C49.8,38.6,49.4,38.2,49.5,37.7z"/>
<path class="st5" d="M40.7,19.8c-0.8,0.1-1.2,0.7-1.6,1.4c-0.3,0.7-0.8,1.1-1.4,1.5c-1.2,1.7-3.4,2.1-5.5,0.8
	c-0.3,0.3,0.1,1-0.6,1.1c0.1-1.2,0-2.2-1.1-3.1C30,21,29.9,20,29.6,19.2c-0.8-1-0.6-2.1-0.6-3.2c0.3-1.4,0.9-2.7,0.9-4.2
	c0-0.5,0.4-0.6,0.8-0.6c1.3,0.1,2.6-0.3,3.9-0.8c0.5-0.2,1-0.4,1.5,0.2c0.4,0.5,1.2,0.1,1.7,0.4c0.2,0.4,0.5,0.4,0.9,0.2
	c1.6-0.2,1.7-0.1,1.9,1.3c0.1,1,0.4,1.9,0.5,2.8c0.1,0.5,0,1-0.2,1.5c-0.3,0.9-0.3,1.9-0.9,2.7C40.3,19.6,40.5,19.6,40.7,19.8z"/>
<path class="st6" d="M38,11.4c-0.4-0.4-0.8,0-1.2-0.1s-1,0.3-1-0.6c0-0.4-0.4-0.1-0.6,0c-1.5,0.5-3,1.1-4.7,0.9
	c-0.2,0-0.4,0-0.3,0.3c0.2,1.5-0.5,2.8-0.9,4.2c-0.2,0.2,0.1,0.8-0.4,0.7c-0.4,0-0.2-0.4-0.3-0.6c-0.5-1.8-1.2-3.5-0.2-5.4
	c1.5-2.8,3.9-3.7,6.8-4c2.1-0.2,4,0.7,5.7,1.7C41.3,8.8,41.8,9,42.4,9c-0.4,0.5-0.2,0.8,0,1.2c0.7,1.6,0.7,3.2-0.1,4.8
	c-0.3,0.7-0.6,1.5-0.9,2.2c-0.3,0.5-0.6,0.6-0.8-0.1c0.4-0.9,0.3-1.7,0-2.6c-0.2-0.6-0.4-1.3-0.4-2c0-0.9-0.5-0.9-1.1-1
	c-0.2,0-0.4,0.1-0.6,0.1C38.4,11.5,38.1,11.6,38,11.4z"/>
<path class="st7" d="M31.7,24.6c0.4-0.4,0-1,0.4-1.6c2,1.7,3.9,1.2,5.7-0.3c0,0.9-0.1,1.8,0.5,2.6c0.4,0.3,0.4,0.6,0.2,0.9
	c-1,0.7-2.2,0.9-3.3,1c-1.6,0.1-3.1-0.2-4.5-1c-0.2-0.3-0.1-0.6,0.2-0.8C31.2,25.3,31.5,25,31.7,24.6z"/>
<path class="st8" d="M20.9,56c8.9,0,17.8,0,26.7,0c0.5,0,1,0,1.5,0c0.1,0.1,0.2,0.3,0.3,0.4c-0.2,0.4-0.6,0.2-0.9,0.2
	c-9,0-18,0-27,0c-0.3,0-0.9,0.3-0.9-0.4C20.6,56.1,20.8,56.1,20.9,56z"/>
<path class="st9" d="M30.8,25.5c-0.1,0.2-0.2,0.4-0.3,0.6c0.7,1.4,1.7,2.6,3,3.5c0.3,0.2,0.5,0.3,0.5,0.7c-2.4-0.5-4.8-1.1-6.4-3.2
	c-0.5-0.7-1-1.2-1.9-1.3c0,0,0.1-0.1,0.1,0c0.4-0.2,0.8,0,1.1-0.2c0.2-0.2,0.4-0.4,0.7-0.4c0.7-0.1,1.4,0,2.1,0
	C30.1,25.1,30.5,25.3,30.8,25.5z"/>
<path class="st10" d="M38.4,26.1c0.1-0.3-0.1-0.6-0.2-0.8c0.3-0.1,0.5-0.2,0.8-0.3h0.1c0.3,0,0.5,0,0.8,0H40
	c0.5,0.2,1.1,0.3,1.6,0.5c0.1,0,0.2,0.1,0.1,0.2c0,0.1,0,0.1,0,0.2c-0.1,1.5-1.2,2.3-2.4,3c-1,0.5-2.2,0.9-3.2,1.3
	c-0.2,0.1-0.4,0.1-0.5-0.1s0-0.4,0.2-0.5C37.1,28.7,37.8,27.4,38.4,26.1z"/>
<path class="st11" d="M28.6,16.1c0.2,0.1,0.1,0.5,0.4,0.5c0.4,0,0.1-0.5,0.4-0.6c-0.1,1.1,0,2.1,0.2,3.2c-0.8,0.1-1.2-0.3-1.5-1
	C27.6,17.3,28,16.7,28.6,16.1z"/>
<path class="st12" d="M40.7,17.1c0.2,0.4,0.5,0.3,0.8,0.1c0.5,1.1,0.2,2-0.8,2.7c-0.5,0-0.8,0-0.6-0.7
	C40.3,18.5,40.5,17.7,40.7,17.1z"/>
<path class="st13" d="M29.7,25.1c-0.7,0.3-1.4,0.3-2.1,0C28.4,24.8,29.1,24.8,29.7,25.1z"/>
<path class="st14" d="M41.8,25.7c0-0.1-0.1-0.1-0.1-0.2c0.6,0,1.2,0,1.7,0c0,0.1,0,0.1,0,0.2C42.9,25.7,42.3,25.7,41.8,25.7z"/>
<path class="st15" d="M10.6,44.2c0.3,0.4,0.3,0.8,0,1.2C10.5,45.1,10.5,44.6,10.6,44.2z"/>
<path class="st16" d="M39,24.9c0.3-0.3,0.7-0.3,1,0C39.7,25.1,39.4,25.1,39,24.9z"/>
<path class="st17" d="M47.1,5.5c-0.2,0.3-0.5,0.2-0.8,0.1C46.5,5.5,46.8,5.5,47.1,5.5C47,5.5,47.1,5.5,47.1,5.5z"/>
<path class="st3" d="M27,25.5c-0.3,0.3-0.7,0.2-1.1,0.2C26.3,25.4,26.6,25.5,27,25.5z"/>
<path class="st18" d="M39,24.9c0.3,0,0.7,0,1,0V25v0.1c-0.4,0.1-0.7,0.1-1.1,0V25C39,25,39,24.9,39,24.9z"/>
<path class="st19" d="M20.8,56.9c9.4,0,18.8,0,28.3,0V57C39.7,57,30.2,57,20.8,56.9C20.8,56.9,20.8,56.9,20.8,56.9z"/>
<path class="st20" d="M49.5,37.7c0.4,0.3,0.6,0.7,0.6,1.2c-0.3,3.6-0.5,7.2-0.8,10.8c-1.8-0.5-3.5-1.1-5.3-1.6
	c-2.2-0.5-4.4-0.7-6.6-1.2c-1-0.2-0.6,0.8-0.9,1.1c-0.3-0.2-0.3-0.5-0.3-0.9c-0.1-1.7-1.5-2.5-3-1.8c-0.3,0.1-0.5,0.5-0.9,0.3
	c-3.6-1.5-5.3-4.3-5.9-8c4.4,0,8.8,0,13.1,0C42.9,37.6,46.2,37.7,49.5,37.7z"/>
<path class="st21" d="M32.3,45.7c1.4-1.1,2.5-1.2,3.6-0.3c0.9,0.7,0.6,1.7,0.7,2.7c-0.7,1.5-1.9,2-3.2,1.5
	C31.8,48.8,31.5,47.4,32.3,45.7z"/>
<path class="st21" d="M38.4,26.1c-0.1,1.3-0.9,2.2-1.8,3c-0.3,0.3-0.7,0.6-1,0.9c-0.5,0.4-1.1,0.5-1.7,0.2c-1.3-1.1-2.8-2-3.5-3.7
	c-0.1-0.2-0.1-0.3,0-0.5C33.1,27.1,35.8,27.2,38.4,26.1z"/>
<path class="st22" d="M36,21.5c-1.1-1.3-2.1-1.3-2.8,0C34.4,20.9,35.3,21.2,36,21.5z"/>
<path class="st22" d="M35.1,19.1c0.6-0.7-0.6-1.3,0-2.2C35.1,17.8,36.2,18.4,35.1,19.1z"/>
<path class="st23" d="M37.4,16.8c0,0.3-0.1,0.7-0.4,0.8c-0.4,0.1-0.4-0.3-0.4-0.6c0-0.3,0.1-0.7,0.4-0.8
	C37.3,16.2,37.3,16.5,37.4,16.8z"/>
<path class="st24" d="M32.7,15.7c0.3,0.1,0.3,0.4,0.3,0.7S32.9,17,32.6,17c-0.4,0-0.3-0.4-0.3-0.7C32.3,16,32.3,15.8,32.7,15.7z"/>
<path class="st25" d="M32.1,14.3c0.6-0.4,0.9-0.5,1.5-0.2C33.1,14.4,32.7,14.3,32.1,14.3z"/>
<path class="st26" d="M38,11.4c0.2,0,0.5,0,0.6,0.2c-0.2,0.1-0.4,0.5-0.7,0.3C37.7,11.8,37.8,11.5,38,11.4z"/>
<path class="st27" d="M37.3,14.6c0.3,0.1,0.5,0.2,0.7,0.6c-0.4,0.1-0.7-0.2-0.9-0.4C37.1,14.7,37.2,14.6,37.3,14.6z"/>
<path class="st28" d="M37.3,14.6c-0.1,0.1-0.2,0.1-0.3,0.2c-0.2-0.1-0.6,0-0.5-0.3C36.7,14.1,37.1,14.5,37.3,14.6z"/>
<path class="st29" d="M39,25.1c0.4,0,0.7,0,1.1,0C39.7,25.3,39.4,25.3,39,25.1z"/>
<path class="st20" d="M61.1,56.4H4.9c-0.8,0-1.4,0.6-1.4,1.4l0,0c0,0.8,0.6,1.4,1.4,1.4h56.3c0.8,0,1.4-0.6,1.4-1.4l0,0
	C62.5,57,61.9,56.4,61.1,56.4z"/>
<g>
	<path class="st1" d="M20.4,19.9h-12c-0.8,0-1.3-0.9-0.9-1.6l6-10.4c0.4-0.7,1.4-0.7,1.8,0l6,10.4C21.7,19,21.2,19.9,20.4,19.9z"/>
	<g>
		<path class="st30" d="M15.5,12c0,0.7-0.1,1.3-0.2,1.8c-0.1,0.6-0.3,1.2-0.4,1.7c0,0.1-0.2,0.2-0.4,0.2c-0.3,0-0.5-0.1-0.5-0.2
			c-0.3-1.1-0.5-1.8-0.5-1.9s0-0.4,0-0.7s0-0.5,0-0.7s0-0.4,0-0.7s0-0.6,0-0.7c0-0.1,0-0.2,0.1-0.2s0.3,0,0.5,0s0.3,0,0.5,0
			c0.1,0,0.3,0,0.5,0s0.3,0,0.5,0C15.5,10.7,15.5,11.1,15.5,12z M15.5,17.3c0,0.3-0.1,0.5-0.3,0.7s-0.4,0.3-0.7,0.3S14,18.2,13.8,18
			c-0.2-0.2-0.3-0.4-0.3-0.7c0-0.3,0.1-0.5,0.3-0.7s0.4-0.3,0.7-0.3s0.5,0.1,0.7,0.3C15.4,16.7,15.5,17,15.5,17.3z"/>
	</g>
</g>
<g>
	<circle class="st1" cx="60.4" cy="31.9" r="5.1"/>
	<g>
		<path class="st30" d="M61.7,30.8l-1.3,4.4l-1.7-0.5l1.3-4.4C60,30.3,61.7,30.8,61.7,30.8z M61.4,28.5c0.2,0.1,0.4,0.2,0.5,0.4
			c0.1,0.2,0.1,0.5,0.1,0.6c-0.1,0.2-0.2,0.4-0.4,0.5c-0.2,0.1-0.5,0.1-0.7,0c-0.2-0.1-0.4-0.2-0.5-0.4c-0.1-0.2-0.1-0.4-0.1-0.6
			s0.2-0.4,0.4-0.5C60.9,28.6,61.2,28.5,61.4,28.5z"/>
	</g>
</g>
<g>
	<path class="st1" d="M64.1,17c0,0.1-0.1,0.1-0.2,0.2c-0.2,0.1-0.5,0.1-0.7,0.1c-0.3,0-0.5,0.1-0.7,0c0,0-0.1-0.1-0.3-0.1
		c-0.2-0.3-0.5-0.7-1-1.2c-0.1,0.1-0.4,0.5-0.9,1.3c-0.1,0.1-0.1,0.1-0.2,0.2c-0.1,0-0.4,0.1-0.6,0.1c-0.6,0.1-0.9,0.1-1-0.1
		c0-0.1,0-0.3-0.1-0.5s0-0.4-0.1-0.5c0-0.1,0.1-0.1,0-0.2c0.3-0.4,0.7-0.8,1.2-1.5c-0.3-0.2-0.6-0.5-0.8-0.7
		c-0.4-0.4-0.7-0.6-0.7-0.7l-0.1-1c0-0.1,0.1-0.1,0.2-0.2c0.2-0.1,0.4,0,0.7,0c0.3,0,0.5-0.1,0.7,0c0.1,0,0.1,0.1,0.3,0.1
		c0.3,0.2,0.6,0.6,1,0.9c0.3-0.4,0.6-0.9,0.7-1.2c0.1-0.1,0.2-0.2,0.2-0.2c0.2-0.1,0.4,0,0.7-0.1c0.3-0.1,0.6-0.1,0.7-0.1
		c0.1,0,0.2,0,0.3,0.1l0.1,1c0,0.1-0.1,0.1,0,0.2c-0.2,0.3-0.7,0.8-1.2,1.5c0.3,0.3,0.8,0.7,1.4,1.2c0.1,0.1,0.2,0.2,0.2,0.2
		L64.1,17z"/>
</g>
</svg>
