<?xml version="1.0" encoding="utf-8"?>
<!-- Generator: Adobe Illustrator 26.0.0, SVG Export Plug-In . SVG Version: 6.00 Build 0)  -->
<svg version="1.1" id="Capa_1" xmlns="http://www.w3.org/2000/svg" xmlns:xlink="http://www.w3.org/1999/xlink" x="0px" y="0px"
	 viewBox="0 0 97.2 88.3" style="enable-background:new 0 0 97.2 88.3;" xml:space="preserve">
<style type="text/css">
	.st0{fill:#E9F0FF;}
	.st1{fill:#9FC5F4;}
	.st2{fill:#FFFFFF;}
	.st3{opacity:0.11;fill:#3C3C3B;}
	.st4{fill:#3C82F5;}
	.st5{fill:#E5ECF9;}
	.st6{fill:#FFFFFF;stroke:#3C82F5;stroke-width:2.3913;stroke-miterlimit:10;}
</style>
<circle class="st0" cx="46.9" cy="45.8" r="42.4"/>
<g>
	<g>
		<path class="st1" d="M20.8,9.2c3.4,1.3,5.9,4.7,6,8.3c0,0.4,0,0.9-0.5,0.9c-0.5,0-0.5-0.5-0.5-0.9c-0.1-3.4-2.2-6.3-5.4-7.4
			c-3.2-1.2-6.6-0.2-9,2.4c-0.3,0.3-0.6,0.9-1.1,0.5c-0.5-0.4,0-0.8,0.3-1.1C13.1,9,17.3,7.9,20.8,9.2z"/>
		<path class="st1" d="M22.2,22.2c-0.4,1.2-1,2.4-1.7,3.5c-0.2,0.3-0.4,0.9-0.9,0.6c-0.6-0.3-0.1-0.8,0.1-1.2c1.1-1.9,2-4,2.5-6.2
			c0.7-3.2-1.7-5.9-5-5.7c-0.4,0-1.1,0.4-1.1-0.4c0-0.6,0.7-0.5,1.1-0.6c3.8-0.3,6.9,3.2,6,7C22.9,20.1,22.6,21.1,22.2,22.2z"/>
		<path class="st1" d="M20.2,10.9c0.6,0.2,1.2,0.6,1.7,1c0.3,0.2,0.4,0.4,0.2,0.8c-0.2,0.3-0.5,0.2-0.8,0.1c-1-0.7-2-1.1-3.2-1.2
			c-2.9-0.3-5.6,1.4-6.6,4.1c-0.5,1.3-0.7,2.7-1.5,3.9C10,19.7,9.9,19.9,9.8,20c-0.2,0.2-0.4,0.3-0.6,0.2c-0.2-0.1-0.3-0.4-0.2-0.6
			c0.2-0.4,0.4-0.8,0.6-1.1c0.7-1.2,0.8-2.5,1.4-3.7C12.5,11.2,16.6,9.5,20.2,10.9z"/>
		<path class="st1" d="M19.1,20.8c-0.8,1.8-1.7,3.5-2.9,5.1c-0.2,0.3-0.5,0.8-0.9,0.4c-0.4-0.3-0.1-0.7,0.1-1c1.4-2,2.7-4.2,3.2-6.6
			c0-0.2,0.1-0.3,0.1-0.5c0.1-0.8-0.2-1.4-0.9-1.5c-0.7-0.2-1.2,0.2-1.5,1c-0.1,0.5,0,1.3-0.8,1.1c-0.7-0.2-0.2-0.9-0.1-1.4
			c0.2-1.2,1.4-1.9,2.5-1.7c1.2,0.2,2,1.2,1.8,2.5C19.7,19.1,19.4,19.9,19.1,20.8z"/>
		<path class="st1" d="M19,14.1c1.5,0.6,2.5,2,2.5,3.6c0,0.4,0,0.8-0.5,0.8c-0.5,0-0.5-0.4-0.5-0.8c-0.1-1.7-1.2-2.9-2.8-2.9
			c-1.5-0.1-2.7,0.9-3.1,2.5c-0.2,0.7-0.5,1.4-0.7,2.1c-0.1,0.3-0.3,0.4-0.6,0.3c-0.3-0.1-0.4-0.4-0.3-0.7c0.5-1.1,0.6-2.4,1.2-3.5
			C15.3,14.1,17.3,13.5,19,14.1z"/>
		<path class="st1" d="M11.6,17.9c0.4-0.9,0.5-2,1.1-3c0.4-0.7,1-1.3,1.6-1.7c0.3-0.2,0.6-0.3,0.8,0.1c0.2,0.3,0,0.6-0.2,0.7
			c-1.1,0.8-1.6,1.8-1.9,3.1c-0.4,1.7-1.2,3.2-2.2,4.6c-0.2,0.3-0.5,0.7-0.9,0.4c-0.5-0.3-0.2-0.7,0.1-1
			C10.7,20.1,11.2,19.1,11.6,17.9z"/>
		<path class="st1" d="M24.4,21.2c-0.1,0.2-0.1,0.4-0.2,0.5c-0.1,0.3-0.3,0.5-0.6,0.4c-0.4-0.1-0.4-0.4-0.3-0.7
			c0.1-0.6,0.3-1.2,0.5-1.8c0.5-1.9,0.3-3.7-0.8-5.4c0-0.1-0.1-0.1-0.1-0.2c-0.2-0.3-0.3-0.6,0.1-0.8c0.4-0.2,0.6,0,0.8,0.3
			c0.6,0.8,1,1.7,1.2,2.7C25.3,18,24.9,19.6,24.4,21.2z"/>
		<path class="st1" d="M20.8,21.2c-0.8,1.8-1.5,3.4-2.6,4.9c-0.2,0.3-0.5,0.8-0.9,0.4c-0.5-0.3-0.1-0.7,0.1-1c1.1-1.7,2-3.4,2.6-5.3
			c0.1-0.4,0.3-0.8,0.8-0.6c0.5,0.1,0.3,0.5,0.2,0.9C20.9,20.7,20.9,21,20.8,21.2z"/>
		<path class="st1" d="M15.4,20.5c-0.7,1.5-1.5,2.8-2.5,4c-0.2,0.3-0.5,0.5-0.8,0.2c-0.4-0.3-0.2-0.6,0-0.9c0.9-1.1,1.7-2.4,2.3-3.7
			c0.2-0.3,0.3-0.7,0.7-0.5C15.7,19.9,15.5,20.3,15.4,20.5z"/>
		<path class="st1" d="M17.5,20.2c-0.3,0.9-0.7,1.6-1.1,2.4c-0.2,0.3-0.4,0.6-0.8,0.4c-0.4-0.2-0.2-0.6-0.1-0.9
			c0.7-1.3,1.3-2.6,1.6-4c0.1-0.3,0.2-0.7,0.6-0.6c0.5,0.1,0.4,0.5,0.3,0.8C17.9,19,17.7,19.6,17.5,20.2z"/>
		<path class="st1" d="M25.9,22.2c-0.1,0.3-0.2,0.6-0.3,0.9c-0.1,0.3-0.3,0.4-0.6,0.3c-0.3-0.1-0.4-0.3-0.3-0.6c0.3-1,0.6-2,0.9-3
			c0.1-0.3,0.3-0.4,0.6-0.3c0.3,0.1,0.3,0.4,0.3,0.7C26.3,20.8,26.2,21.5,25.9,22.2C26,22.2,26,22.2,25.9,22.2z"/>
		<path class="st1" d="M13,21.4c-0.4,0.7-0.9,1.4-1.5,2.1c-0.2,0.2-0.4,0.3-0.6,0.1c-0.3-0.2-0.3-0.5-0.1-0.7c0.5-0.7,0.9-1.4,1.4-2
			c0.2-0.2,0.4-0.3,0.7-0.1C13.1,20.9,13.1,21.1,13,21.4z"/>
		<path class="st1" d="M9.9,15.5c-0.1,0.1-0.1,0.3-0.2,0.4c-0.1,0.3-0.2,0.7-0.7,0.6c-0.4-0.1-0.4-0.5-0.3-0.8
			c0.1-0.5,0.3-1,0.5-1.4c0.1-0.3,0.3-0.5,0.6-0.4c0.4,0.1,0.4,0.4,0.3,0.7C10,14.9,9.9,15.2,9.9,15.5C9.8,15.5,9.9,15.5,9.9,15.5z"
			/>
	</g>
</g>
<g>
	<path class="st1" d="M94.6,17.9L35.3,34.4c-1.4,0.4-2.9-0.4-3.3-1.9l-3.4-12.2c-0.4-1.4,0.4-2.9,1.9-3.3L89.7,0.6
		C91.2,0.2,92.6,1,93,2.4l3.4,12.2C96.8,16.1,96,17.5,94.6,17.9z"/>
	<circle class="st2" cx="44.2" cy="22.3" r="3.2"/>
	<circle class="st2" cx="53.7" cy="19.7" r="3.2"/>
	<circle class="st2" cx="63.1" cy="17.1" r="3.2"/>
	<circle class="st2" cx="72.6" cy="14.4" r="3.2"/>
	<circle class="st2" cx="82" cy="11.8" r="3.2"/>
</g>
<circle class="st1" cx="31.3" cy="3.4" r="1.6"/>
<circle class="st1" cx="23.8" cy="1.1" r="1.1"/>
<circle class="st1" cx="75.9" cy="82.7" r="1.1"/>
<circle class="st1" cx="96" cy="26.6" r="1.1"/>
<circle class="st1" cx="11.9" cy="81.5" r="0.8"/>
<circle class="st1" cx="72.6" cy="85.1" r="0.8"/>
<g>
	<path class="st3" d="M87.3,79.4H4.7c-2.6,0-4.7-2.1-4.7-4.7l0-44.9c0-2.6,2.1-4.7,4.7-4.7h82.6c2.6,0,4.7,2.1,4.7,4.7v44.9
		C91.9,77.3,89.8,79.4,87.3,79.4z"/>
	<path class="st2" d="M86.1,77.6H5.8c-2.5,0-4.5-2-4.5-4.5V29.7c0-2.5,2-4.5,4.5-4.5h80.4c2.5,0,4.5,2,4.5,4.5V73
		C90.7,75.5,88.6,77.6,86.1,77.6z"/>
	<path class="st4" d="M31.3,61.5h31.2c1.4,0,2.5,1.1,2.5,2.5v6.5c0,1.4-1.1,2.5-2.5,2.5H31.3c-1.4,0-2.5-1.1-2.5-2.5v-6.5
		C28.8,62.7,29.9,61.5,31.3,61.5z"/>
	<path class="st5" d="M8.3,39.6h9.1c1,0,1.8,0.8,1.8,1.8v13.1c0,1-0.8,1.8-1.8,1.8H8.3c-1,0-1.8-0.8-1.8-1.8V41.4
		C6.5,40.4,7.3,39.6,8.3,39.6z"/>
	<path class="st5" d="M25.1,39.6h9.1c1,0,1.8,0.8,1.8,1.8v13.1c0,1-0.8,1.8-1.8,1.8h-9.1c-1,0-1.8-0.8-1.8-1.8V41.4
		C23.3,40.4,24.1,39.6,25.1,39.6z"/>
	<path class="st5" d="M41.9,39.6H51c1,0,1.8,0.8,1.8,1.8v13.1c0,1-0.8,1.8-1.8,1.8h-9.1c-1,0-1.8-0.8-1.8-1.8V41.4
		C40.1,40.4,40.9,39.6,41.9,39.6z"/>
	<path class="st5" d="M75.5,39.6h9.1c1,0,1.8,0.8,1.8,1.8v13.1c0,1-0.8,1.8-1.8,1.8h-9.1c-1,0-1.8-0.8-1.8-1.8V41.4
		C73.7,40.4,74.5,39.6,75.5,39.6z"/>
	<path class="st5" d="M58.7,39.6h9.1c1,0,1.8,0.8,1.8,1.8v13.1c0,1-0.8,1.8-1.8,1.8h-9.1c-1,0-1.8-0.8-1.8-1.8V41.4
		C56.9,40.4,57.7,39.6,58.7,39.6z"/>
	<g>
		<path class="st4" d="M7,34.9v-4.2h0.6l1.3,2.1c0.3,0.5,0.6,0.9,0.7,1.4l0,0c0-0.6-0.1-1.1-0.1-1.7v-1.7h0.5v4.2H9.5l-1.3-2.1
			c-0.3-0.5-0.6-0.9-0.8-1.4l0,0c0,0.5,0,1,0,1.7v1.8H7z"/>
		<path class="st4" d="M13.5,34.1c0,0.3,0,0.6,0,0.8h-0.5l0-0.5h0c-0.1,0.2-0.5,0.6-1,0.6c-0.5,0-1-0.3-1-1.3V32h0.5v1.7
			c0,0.6,0.2,1,0.7,1c0.4,0,0.6-0.3,0.7-0.5c0-0.1,0-0.2,0-0.3V32h0.5V34.1z"/>
		<path class="st4" d="M14.7,33.5c0,0.7,0.5,1,1,1c0.4,0,0.6-0.1,0.8-0.2l0.1,0.4c-0.2,0.1-0.5,0.2-1,0.2c-0.9,0-1.5-0.6-1.5-1.5
			s0.5-1.6,1.4-1.6c1,0,1.2,0.9,1.2,1.4c0,0.1,0,0.2,0,0.3H14.7z M16.3,33.2c0-0.3-0.1-0.9-0.8-0.9c-0.6,0-0.8,0.5-0.8,0.9H16.3z"/>
		<path class="st4" d="M17.7,32l0.6,1.7c0.1,0.3,0.2,0.5,0.2,0.8h0c0.1-0.2,0.2-0.5,0.3-0.8l0.6-1.7H20l-1.2,3h-0.5l-1.1-3H17.7z"/>
		<path class="st4" d="M22.1,34.9l0-0.4h0c-0.2,0.2-0.5,0.4-0.9,0.4c-0.6,0-0.9-0.4-0.9-0.9c0-0.7,0.6-1.1,1.8-1.1V33
			c0-0.2-0.1-0.7-0.7-0.7c-0.3,0-0.6,0.1-0.8,0.2l-0.1-0.4c0.2-0.2,0.6-0.3,1-0.3c0.9,0,1.1,0.6,1.1,1.2v1.1c0,0.3,0,0.5,0,0.7H22.1
			z M22,33.4c-0.6,0-1.3,0.1-1.3,0.7c0,0.4,0.2,0.5,0.5,0.5c0.4,0,0.6-0.2,0.7-0.5c0-0.1,0-0.1,0-0.2V33.4z"/>
		<path class="st4" d="M26.9,34.8C26.8,34.9,26.4,35,26,35c-0.9,0-1.5-0.6-1.5-1.5c0-0.9,0.6-1.6,1.6-1.6c0.3,0,0.6,0.1,0.8,0.2
			l-0.1,0.4c-0.1-0.1-0.3-0.1-0.6-0.1c-0.7,0-1.1,0.5-1.1,1.1c0,0.7,0.4,1.1,1,1.1c0.3,0,0.5-0.1,0.7-0.1L26.9,34.8z"/>
		<path class="st4" d="M30.2,33.4c0,1.1-0.8,1.6-1.5,1.6c-0.8,0-1.4-0.6-1.4-1.5c0-1,0.7-1.6,1.5-1.6C29.6,31.9,30.2,32.5,30.2,33.4
			z M27.8,33.5c0,0.7,0.4,1.2,0.9,1.2c0.5,0,0.9-0.5,0.9-1.2c0-0.5-0.3-1.2-0.9-1.2C28.1,32.3,27.8,32.9,27.8,33.5z"/>
		<path class="st4" d="M30.9,32.8c0-0.3,0-0.6,0-0.8h0.5l0,0.5h0c0.1-0.3,0.5-0.6,1-0.6c0.4,0,1.1,0.2,1.1,1.3v1.8h-0.5v-1.7
			c0-0.5-0.2-0.9-0.7-0.9c-0.4,0-0.6,0.3-0.7,0.6c0,0.1,0,0.2,0,0.3v1.8h-0.5V32.8z"/>
		<path class="st4" d="M35,31.1V32h0.8v0.4H35V34c0,0.4,0.1,0.6,0.4,0.6c0.1,0,0.2,0,0.3,0l0,0.4c-0.1,0-0.3,0.1-0.5,0.1
			c-0.3,0-0.5-0.1-0.6-0.2c-0.2-0.2-0.2-0.4-0.2-0.8v-1.6H34V32h0.5v-0.7L35,31.1z"/>
		<path class="st4" d="M36.4,32.9c0-0.4,0-0.7,0-0.9h0.5l0,0.6h0c0.1-0.4,0.5-0.7,0.8-0.7c0.1,0,0.1,0,0.2,0v0.5c-0.1,0-0.1,0-0.2,0
			c-0.4,0-0.7,0.3-0.7,0.7c0,0.1,0,0.2,0,0.3v1.6h-0.5V32.9z"/>
		<path class="st4" d="M40,34.9l0-0.4h0C39.8,34.8,39.5,35,39,35c-0.6,0-0.9-0.4-0.9-0.9c0-0.7,0.6-1.1,1.8-1.1V33
			c0-0.2-0.1-0.7-0.7-0.7c-0.3,0-0.6,0.1-0.8,0.2l-0.1-0.4c0.2-0.2,0.6-0.3,1-0.3c0.9,0,1.1,0.6,1.1,1.2v1.1c0,0.3,0,0.5,0,0.7H40z
			 M39.9,33.4c-0.6,0-1.3,0.1-1.3,0.7c0,0.4,0.2,0.5,0.5,0.5c0.4,0,0.6-0.2,0.7-0.5c0-0.1,0-0.1,0-0.2V33.4z"/>
		<path class="st4" d="M41.3,34.4c0.2,0.1,0.4,0.2,0.7,0.2c0.4,0,0.6-0.2,0.6-0.4c0-0.3-0.2-0.4-0.6-0.6c-0.5-0.2-0.8-0.5-0.8-0.8
			c0-0.5,0.4-0.9,1-0.9c0.3,0,0.6,0.1,0.7,0.2l-0.1,0.4c-0.1-0.1-0.3-0.2-0.6-0.2c-0.3,0-0.5,0.2-0.5,0.4c0,0.2,0.2,0.4,0.6,0.5
			c0.5,0.2,0.8,0.5,0.8,0.9c0,0.5-0.4,0.9-1.1,0.9c-0.3,0-0.6-0.1-0.8-0.2L41.3,34.4z"/>
		<path class="st4" d="M44.1,33.5c0,0.7,0.5,1,1,1c0.4,0,0.6-0.1,0.8-0.2l0.1,0.4c-0.2,0.1-0.5,0.2-1,0.2c-0.9,0-1.5-0.6-1.5-1.5
			s0.5-1.6,1.4-1.6c1,0,1.2,0.9,1.2,1.4c0,0.1,0,0.2,0,0.3H44.1z M45.7,33.2c0-0.3-0.1-0.9-0.8-0.9c-0.6,0-0.8,0.5-0.8,0.9H45.7z"/>
		<path class="st4" d="M46.9,32.8c0-0.3,0-0.6,0-0.8h0.5l0,0.5h0c0.1-0.3,0.5-0.6,1-0.6c0.4,0,1.1,0.2,1.1,1.3v1.8h-0.5v-1.7
			c0-0.5-0.2-0.9-0.7-0.9c-0.4,0-0.6,0.3-0.7,0.6c0,0.1,0,0.2,0,0.3v1.8h-0.5V32.8z M47.4,31.4c0-0.4,0.2-0.6,0.4-0.6
			c0.1,0,0.2,0.1,0.4,0.1c0.1,0.1,0.2,0.1,0.3,0.1c0.1,0,0.2-0.1,0.2-0.3h0.3c0,0.4-0.1,0.6-0.4,0.6c-0.1,0-0.2-0.1-0.4-0.1
			c-0.1-0.1-0.2-0.1-0.3-0.1c-0.1,0-0.1,0.1-0.2,0.3H47.4z"/>
		<path class="st4" d="M52,34.9l0-0.4h0C51.7,34.8,51.4,35,51,35c-0.6,0-0.9-0.4-0.9-0.9c0-0.7,0.6-1.1,1.8-1.1V33
			c0-0.2-0.1-0.7-0.7-0.7c-0.3,0-0.6,0.1-0.8,0.2l-0.1-0.4c0.2-0.2,0.6-0.3,1-0.3c0.9,0,1.1,0.6,1.1,1.2v1.1c0,0.3,0,0.5,0,0.7H52z
			 M51.9,33.4c-0.6,0-1.3,0.1-1.3,0.7c0,0.4,0.2,0.5,0.5,0.5c0.4,0,0.6-0.2,0.7-0.5c0-0.1,0-0.1,0-0.2V33.4z"/>
	</g>
</g>
<g>
	<path class="st4" d="M13.6,45.1L13.6,45.1l-1.8,0.9l-0.3-1l2.2-1.2h1.1v10h-1.3V45.1z"/>
	<path class="st4" d="M30,45.1L30,45.1l-1.8,0.9L28,45l2.2-1.2h1.1v10H30V45.1z"/>
	<path class="st4" d="M46.5,45.1L46.5,45.1l-1.8,0.9l-0.3-1l2.2-1.2h1.1v10h-1.3V45.1z"/>
	<path class="st4" d="M62.9,45.1L62.9,45.1l-1.8,0.9l-0.3-1l2.2-1.2h1.1v10h-1.3V45.1z"/>
	<path class="st4" d="M79.4,45.1L79.4,45.1l-1.8,0.9l-0.3-1l2.2-1.2h1.1v10h-1.3V45.1z"/>
</g>
<g>
	<path class="st2" d="M38.5,65.2v4.2h-0.5v-4.2H38.5z"/>
	<path class="st2" d="M39.4,67.2c0-0.3,0-0.6,0-0.8h0.5l0,0.5h0c0.1-0.3,0.5-0.6,1-0.6c0.4,0,1.1,0.2,1.1,1.3v1.8h-0.5v-1.7
		c0-0.5-0.2-0.9-0.7-0.9c-0.4,0-0.6,0.3-0.7,0.6c0,0.1,0,0.2,0,0.3v1.8h-0.5V67.2z"/>
	<path class="st2" d="M45.5,66.4c0,0.2,0,0.5,0,0.8V69c0,0.7-0.1,1.1-0.4,1.4c-0.3,0.3-0.7,0.4-1.1,0.4c-0.4,0-0.8-0.1-1-0.2L43,70
		c0.2,0.1,0.5,0.2,0.9,0.2c0.6,0,1-0.3,1-1v-0.3h0c-0.2,0.3-0.5,0.5-1,0.5c-0.7,0-1.3-0.6-1.3-1.5c0-1,0.7-1.6,1.4-1.6
		c0.5,0,0.8,0.3,0.9,0.5h0l0-0.5H45.5z M44.9,67.6c0-0.1,0-0.2,0-0.2c-0.1-0.3-0.4-0.6-0.8-0.6c-0.5,0-0.9,0.4-0.9,1.1
		c0,0.6,0.3,1.1,0.9,1.1c0.3,0,0.6-0.2,0.8-0.6c0-0.1,0-0.2,0-0.3V67.6z"/>
	<path class="st2" d="M46.3,67.4c0-0.4,0-0.7,0-0.9h0.5l0,0.6h0c0.1-0.4,0.5-0.7,0.8-0.7c0.1,0,0.1,0,0.2,0v0.5c-0.1,0-0.1,0-0.2,0
		c-0.4,0-0.7,0.3-0.7,0.7c0,0.1,0,0.2,0,0.3v1.6h-0.5V67.4z"/>
	<path class="st2" d="M48.6,68c0,0.7,0.5,1,1,1c0.4,0,0.6-0.1,0.8-0.2l0.1,0.4c-0.2,0.1-0.5,0.2-1,0.2c-0.9,0-1.5-0.6-1.5-1.5
		s0.5-1.6,1.4-1.6c1,0,1.2,0.9,1.2,1.4c0,0.1,0,0.2,0,0.3H48.6z M50.2,67.6c0-0.3-0.1-0.9-0.8-0.9c-0.6,0-0.8,0.5-0.8,0.9H50.2z"/>
	<path class="st2" d="M51.3,68.9c0.2,0.1,0.4,0.2,0.7,0.2c0.4,0,0.6-0.2,0.6-0.4c0-0.3-0.2-0.4-0.6-0.6c-0.5-0.2-0.8-0.5-0.8-0.8
		c0-0.5,0.4-0.9,1-0.9c0.3,0,0.6,0.1,0.7,0.2l-0.1,0.4c-0.1-0.1-0.3-0.2-0.6-0.2c-0.3,0-0.5,0.2-0.5,0.4c0,0.2,0.2,0.4,0.6,0.5
		c0.5,0.2,0.8,0.5,0.8,0.9c0,0.5-0.4,0.9-1.1,0.9c-0.3,0-0.6-0.1-0.8-0.2L51.3,68.9z"/>
	<path class="st2" d="M55.5,69.4l0-0.4h0c-0.2,0.2-0.5,0.4-0.9,0.4c-0.6,0-0.9-0.4-0.9-0.9c0-0.7,0.6-1.1,1.8-1.1v-0.1
		c0-0.2-0.1-0.7-0.7-0.7c-0.3,0-0.6,0.1-0.8,0.2l-0.1-0.4c0.2-0.2,0.6-0.3,1-0.3c0.9,0,1.1,0.6,1.1,1.2v1.1c0,0.3,0,0.5,0,0.7H55.5z
		 M55.4,67.9c-0.6,0-1.3,0.1-1.3,0.7c0,0.4,0.2,0.5,0.5,0.5c0.4,0,0.6-0.2,0.7-0.5c0-0.1,0-0.1,0-0.2V67.9z"/>
	<path class="st2" d="M56.8,67.4c0-0.4,0-0.7,0-0.9h0.5l0,0.6h0c0.1-0.4,0.5-0.7,0.8-0.7c0.1,0,0.1,0,0.2,0v0.5c-0.1,0-0.1,0-0.2,0
		c-0.4,0-0.7,0.3-0.7,0.7c0,0.1,0,0.2,0,0.3v1.6h-0.5V67.4z"/>
</g>
<g>
	<circle class="st6" cx="80.1" cy="19.4" r="9.9"/>
</g>
<path class="st4" d="M80.5,22.2c-1.8,0-3.3-1.5-3.3-3.3v-2.3c0-1.8,1.5-3.3,3.3-3.3c1.8,0,3.3,1.5,3.3,3.3V19
	C83.8,20.8,82.3,22.2,80.5,22.2z M80.5,14.4c-1.3,0-2.3,1-2.3,2.3V19c0,1.3,1,2.3,2.3,2.3s2.3-1,2.3-2.3v-2.3
	C82.8,15.4,81.8,14.4,80.5,14.4z"/>
<path class="st4" d="M76.4,18.3c-0.3,0.6-0.5,1.3-0.5,2c0,2.5,2.1,4.6,4.6,4.6c2.5,0,4.6-2.1,4.6-4.6c0-0.7-0.2-1.4-0.5-2H76.4z"/>
<path class="st2" d="M81.6,20.7c0-0.6-0.5-1-1-1c-0.6,0-1,0.5-1,1c0,0.4,0.3,0.8,0.6,0.9c0,0,0,0,0,0c0,0.4,0.2,0.8,0.4,0.8
	c0.2,0,0.4-0.4,0.4-0.8c0,0,0,0,0,0C81.3,21.5,81.6,21.1,81.6,20.7z"/>
</svg>
