<?xml version="1.0" encoding="utf-8"?>
<!-- Generator: Adobe Illustrator 26.0.0, SVG Export Plug-In . SVG Version: 6.00 Build 0)  -->
<svg version="1.1" id="Capa_1" xmlns="http://www.w3.org/2000/svg" xmlns:xlink="http://www.w3.org/1999/xlink" x="0px" y="0px"
	 viewBox="0 0 93.9 87" style="enable-background:new 0 0 93.9 87;" xml:space="preserve">
<style type="text/css">
	.st0{fill:#E9F0FF;}
	.st1{fill:#9FC5F4;}
	.st2{fill:#FFFFFF;}
	.st3{fill:#E3ECFB;}
	.st4{opacity:0.33;fill:#FFFFFF;}
	.st5{fill:#E9E8EB;}
	.st6{fill:#88B5E2;}
	.st7{fill:#6899C1;}
	.st8{opacity:0.11;fill:#3C3C3B;}
	.st9{fill:#3C82F5;}
	.st10{fill:#E5ECF9;}
	.st11{fill:#FFC29E;}
	.st12{fill:#4F2636;}
	.st13{fill:#524D99;}
	.st14{fill:#FFA880;}
	.st15{fill:#E8A88A;}
	.st16{fill:#FAB540;}
	.st17{fill:#0D3845;}
	.st18{fill:#1C474F;}
	.st19{fill:#FCFFFF;}
	.st20{fill:#E3918C;}
	.st21{fill:none;stroke:#9FC5F4;stroke-width:0.5;stroke-linecap:round;stroke-miterlimit:10;}
	.st22{fill:none;stroke:#9FC5F4;stroke-width:0.5;stroke-linecap:round;stroke-miterlimit:10;stroke-dasharray:1.9919,1.9919;}
	.st23{fill:#FFFFFF;stroke:#3C82F5;stroke-width:2.3913;stroke-miterlimit:10;}
</style>
<circle class="st0" cx="47.2" cy="42.4" r="42.4"/>
<g>
	<path class="st1" d="M77.5,9.9L93.4,22c0.8,0.6,0.3,1.8-0.6,1.8l-31.6,0c-1,0-1.4-1.2-0.6-1.8L76.3,9.9C76.7,9.6,77.2,9.6,77.5,9.9
		z"/>
	<g>
		<path class="st2" d="M89.6,31.1H63.9c-0.9,0-1.7-0.7-1.7-1.7V13.7c0-0.9,0.7-1.7,1.7-1.7h25.7c0.9,0,1.7,0.7,1.7,1.7v15.8
			C91.3,30.3,90.5,31.1,89.6,31.1z"/>
		<g>
			<path class="st1" d="M75.1,15.4h-8.9c-0.3,0-0.6-0.3-0.6-0.6v0c0-0.3,0.3-0.6,0.6-0.6h8.9c0.3,0,0.6,0.3,0.6,0.6v0
				C75.7,15.2,75.4,15.4,75.1,15.4z"/>
			<path class="st3" d="M87.2,18.5H66.3c-0.4,0-0.7-0.3-0.7-0.7v0c0-0.4,0.3-0.7,0.7-0.7h20.8c0.4,0,0.7,0.3,0.7,0.7v0
				C87.9,18.2,87.6,18.5,87.2,18.5z"/>
			<path class="st3" d="M87.2,21.2H66.3c-0.4,0-0.7-0.3-0.7-0.7l0,0c0-0.4,0.3-0.7,0.7-0.7h20.8c0.4,0,0.7,0.3,0.7,0.7l0,0
				C87.9,20.9,87.6,21.2,87.2,21.2z"/>
			<path class="st3" d="M87.2,24.2H66.3c-0.4,0-0.7-0.3-0.7-0.7v0c0-0.4,0.3-0.7,0.7-0.7h20.8c0.4,0,0.7,0.3,0.7,0.7v0
				C87.9,23.8,87.6,24.2,87.2,24.2z"/>
			<path class="st3" d="M87.2,27.2H66.3c-0.4,0-0.7-0.3-0.7-0.7v0c0-0.4,0.3-0.7,0.7-0.7h20.8c0.4,0,0.7,0.3,0.7,0.7v0
				C87.9,26.8,87.6,27.2,87.2,27.2z"/>
			<path class="st3" d="M87.2,30.2H66.3c-0.4,0-0.7-0.3-0.7-0.7v0c0-0.4,0.3-0.7,0.7-0.7h20.8c0.4,0,0.7,0.3,0.7,0.7v0
				C87.9,29.8,87.6,30.2,87.2,30.2z"/>
		</g>
	</g>
	<g>
		<path class="st1" d="M76.4,32.4l-14.7,8.8c-0.7,0.4-1.5-0.1-1.5-0.9V22.8c0-0.8,0.8-1.3,1.5-0.9l14.7,8.8C77,31.1,77,32,76.4,32.4
			z"/>
		<path class="st1" d="M77.6,32.4l14.7,8.8c0.7,0.4,1.5-0.1,1.5-0.9V22.8c0-0.8-0.8-1.3-1.5-0.9l-14.7,8.8
			C76.9,31.1,76.9,32,77.6,32.4z"/>
		<path class="st4" d="M77.6,28.9l15.9,10.8c0.8,0.6,0.4,1.8-0.6,1.8l-31.7,0c-1,0-1.4-1.3-0.6-1.8l15.9-10.8
			C76.8,28.7,77.2,28.7,77.6,28.9z"/>
		<path class="st1" d="M77.5,29.4l15.7,10.4c0.8,0.5,0.4,1.8-0.5,1.8l-31.5,0c-1,0-1.4-1.3-0.5-1.8l15.7-10.4
			C76.8,29.2,77.2,29.2,77.5,29.4z"/>
	</g>
</g>
<circle class="st1" cx="1.6" cy="44.6" r="1.6"/>
<circle class="st1" cx="38.1" cy="18.6" r="1.1"/>
<circle class="st1" cx="89.7" cy="47.9" r="1.6"/>
<polygon class="st1" points="55.4,5.8 56,7.1 57.3,7.3 56.3,8.2 56.6,9.6 55.4,8.9 54.1,9.6 54.4,8.2 53.4,7.3 54.7,7.1 "/>
<g>
	<polygon class="st5" points="0.5,4.7 7.2,4.2 19,14.6 17,16.9 13.6,14.5 7.8,19.4 8,9.8 	"/>
	<polygon class="st6" points="8.3,9.3 8.4,18.7 29.7,0.4 	"/>
	<polygon class="st1" points="10.6,11.1 17.7,16.3 29.7,0.4 	"/>
	<polygon class="st1" points="8.3,9.3 29.7,0.4 1.6,4 	"/>
	<polygon class="st7" points="8.4,18.7 10.6,11.1 14.4,13.8 	"/>
</g>
<g>
	<path class="st8" d="M83.7,74.4H14.5c-2,0-3.7-1.6-3.7-3.7V37.6c0-2,1.6-3.7,3.7-3.7h69.2c2,0,3.7,1.6,3.7,3.7v33.1
		C87.4,72.7,85.8,74.4,83.7,74.4z"/>
	<path class="st2" d="M82.8,72.9H15.9c-2,0-3.6-1.6-3.6-3.6V37.5c0-2,1.6-3.6,3.6-3.6h66.9c2,0,3.6,1.6,3.6,3.6v31.9
		C86.4,71.3,84.8,72.9,82.8,72.9z"/>
	<path class="st9" d="M50.8,43.6h27.7c0.6,0,1.1,0.5,1.1,1.1v0.6c0,0.6-0.5,1.1-1.1,1.1H50.8c-0.6,0-1.1-0.5-1.1-1.1v-0.6
		C49.6,44.1,50.2,43.6,50.8,43.6z"/>
	<path class="st10" d="M50.9,50.3h27.7c0.6,0,1.1,0.5,1.1,1.1v0.6c0,0.6-0.5,1.1-1.1,1.1H50.9c-0.6,0-1.1-0.5-1.1-1.1v-0.6
		C49.7,50.9,50.2,50.3,50.9,50.3z"/>
	<path class="st10" d="M50.9,56.8h27.7c0.6,0,1.1,0.5,1.1,1.1v0.6c0,0.6-0.5,1.1-1.1,1.1H50.9c-0.6,0-1.1-0.5-1.1-1.1V58
		C49.7,57.4,50.2,56.8,50.9,56.8z"/>
	<path class="st10" d="M50.9,63.3h27.7c0.6,0,1.1,0.5,1.1,1.1v0.6c0,0.6-0.5,1.1-1.1,1.1H50.9c-0.6,0-1.1-0.5-1.1-1.1v-0.6
		C49.7,63.8,50.2,63.3,50.9,63.3z"/>
	<circle class="st9" cx="30.7" cy="55.4" r="12.4"/>
	<path class="st2" d="M36.1,58.4c-0.4-0.2-0.9-0.4-1.4-0.6c-1.1-0.5-2.2-0.9-2.2-0.9l-1.7-0.2l-1.9,0.2c0,0-1.2,0.5-2.3,1
		c-0.3,0.1-0.7,0.3-1,0.4c0.3,0.9,0.4,2.8,0.3,4.3c0,0.3-0.1,1.9-0.3,4c1.5,0.7,3.2,1.1,5,1.1c1.9,0,3.7-0.5,5.4-1.2
		c-0.1-2-0.3-3.6-0.3-3.9C35.7,61.2,35.8,59.4,36.1,58.4z"/>
	<path class="st11" d="M25.5,58.4c-0.1,0.1-0.3,0.1-0.4,0.2c-0.4,0.2-0.7,0.3-0.9,0.4c-0.1,0-0.2,0.1-0.3,0.2
		c-0.8,0.4-1.4,1.1-1.7,2.6C22.1,62.1,22,63,22,64.3c1,1,2.2,1.8,3.6,2.4c0.1-2.1,0.3-3.8,0.3-4C25.9,61.2,25.8,59.3,25.5,58.4z"/>
	<path class="st11" d="M37.4,58.9c-0.3-0.1-0.7-0.3-1.3-0.5c-0.3,1-0.4,2.8-0.3,4.3c0,0.3,0.1,1.9,0.3,3.9c1.4-0.7,2.6-1.6,3.6-2.7
		c-0.1-1.1-0.2-1.9-0.2-2.2C39,60,38.3,59.3,37.4,58.9z"/>
	<path class="st12" d="M25.2,55.2c0.1,0,0.2,0,0.2,0l9.8,0.5c0,0,0.1,0,0.1,0c0.3-1.3,0.5-2.6,0.5-3.8c0-6.6-2.8-6.4-2.8-6.4
		s-1.8-1.4-4.6-0.5c-2.8,0.8-3.6,4.5-3,7.5C25.6,53,25.5,54.1,25.2,55.2"/>
	<path class="st11" d="M33.8,57.5c-0.2,1-0.9,2.7-3,2.8c-2.3,0.1-3-2-3.2-2.8c0.9-0.5,1.5-0.7,1.5-0.7l1.7-0.1l0,0l0,0l1.3,0.1
		C32.1,56.8,32.6,56.8,33.8,57.5"/>
	<polygon class="st13" points="30.8,56.7 30.8,56.7 30.8,56.7 	"/>
	<path class="st13" d="M30.8,56.7L30.8,56.7L30.8,56.7z"/>
	<path class="st11" d="M32.5,56.9c0,0-0.5,0.9-1.7,0.9c-1.2,0-1.8-0.9-1.8-0.9l0.1-0.6l0-0.1l0.1-1l3.1,0.1l0,0.4l0,0.1L32.5,56.9z"
		/>
	<path class="st14" d="M32.3,55.3c-0.5,0.4-1.2,0.5-1.6,0.5c0,0-0.1,0-0.1,0c-0.5,0-1-0.1-1.4-0.4l-0.1,0.7l0,0.1
		c0.3,0,0.7,0.1,0.9,0.1c1,0,1.8-0.2,2.3-0.7L32.3,55.3z"/>
	<path class="st15" d="M28.2,52.5c-0.7,1-2.2,0.3-2.1-1c0.1-1.2,1.4-1,1.4-1L28.2,52.5z"/>
	<path class="st16" d="M27.8,52.6c0.5,0.2,0.8,0.7,0.8,1.3c0,0.8-0.6,1.4-1.4,1.4c-0.7,0-1.4-0.6-1.4-1.4c0-0.7,0.4-1.2,1-1.4
		c0.1,0,0.2,0,0.3,0c0,0,0,0.1,0,0.1c-0.1,0-0.1,0-0.2,0c-0.6,0.1-1,0.6-1,1.2c0,0.7,0.5,1.3,1.2,1.3c0.7,0,1.2-0.6,1.2-1.3
		c0-0.5-0.3-0.9-0.7-1.1L27.8,52.6z"/>
	<path class="st15" d="M33,52.5c0.7,1,2.2,0.3,2.1-1c-0.1-1.2-1.4-1-1.4-1L33,52.5z"/>
	<path class="st16" d="M33.6,52.6c-0.5,0.2-0.8,0.7-0.8,1.3c0,0.8,0.6,1.4,1.4,1.4s1.4-0.6,1.4-1.4c0-0.7-0.4-1.2-1-1.4
		c-0.1,0-0.2,0-0.3,0c0,0,0,0.1,0,0.1c0,0,0.1,0,0.2,0c0.6,0.1,1,0.6,1,1.2c0,0.7-0.5,1.3-1.2,1.3c-0.7,0-1.2-0.6-1.2-1.3
		c0-0.5,0.3-0.9,0.7-1.1L33.6,52.6z"/>
	<path class="st11" d="M27.2,49.4c0,0-0.6,2,0.3,4c0.8,1.8,1.9,2.4,3,2.4c1.3,0,3.7-0.7,3.2-6.5C33.4,45.3,27.5,45.4,27.2,49.4"/>
	<path class="st12" d="M32.5,47.3c0,0,0,0.7-1,2.4c0,0-0.4-0.6-1.1-0.2s-1.8,0-2.3,0.2c-0.5,0.2-0.6,0.8-0.6,0.8s-0.2-0.9,0.4-1.7
		c0,0-1,0.8-1.1,2.1c0,0-1-0.4-0.6-2.1s3.4-4,6.1-3.3c2.7,0.7,2.5,5.2,2.5,5.2s-0.2-0.2-0.6-0.2c0,0,0.1-0.9-0.2-2.2
		c0,0,0.1,0.9-0.4,1.7c0,0-0.7-0.6-1.3-0.6C32.2,49.4,32.8,48.7,32.5,47.3"/>
	<path class="st17" d="M32.4,50.1C32.4,50.1,32.4,50.1,32.4,50.1c-0.3-0.3-0.8-0.3-0.8-0.3c0,0-0.1,0-0.1-0.1c0,0,0-0.1,0.1-0.1
		c0,0,0.6,0,0.9,0.4C32.6,50,32.6,50,32.4,50.1C32.5,50.1,32.5,50.1,32.4,50.1"/>
	<path class="st17" d="M28.7,50C28.6,50,28.6,50,28.7,50c-0.1-0.1-0.1-0.1,0-0.2c0.3-0.3,0.9-0.3,0.9-0.3c0,0,0.1,0,0.1,0.1
		c0,0,0,0.1-0.1,0.1C29.5,49.7,29,49.7,28.7,50C28.7,50,28.7,50,28.7,50"/>
	<path class="st18" d="M32.3,51.1c0,0.2-0.1,0.5-0.2,0.5c-0.1,0-0.2-0.2-0.2-0.5c0-0.2,0.1-0.5,0.2-0.5
		C32.2,50.7,32.3,50.9,32.3,51.1"/>
	<path class="st18" d="M29.5,51.1c0,0.2-0.1,0.5-0.2,0.5S29,51.3,29,51.1c0-0.2,0.1-0.5,0.2-0.5S29.5,50.8,29.5,51.1"/>
	<path class="st19" d="M29.8,53.5c0,0,1.2,0.2,1.9-0.1c0,0-0.4,0.9-1.1,0.8C30,54.1,29.8,53.5,29.8,53.5"/>
	<path class="st20" d="M30.8,51.3C30.8,51.3,30.7,51.4,30.8,51.3c-0.1,0.2-0.1,0.4,0,0.5c0,0.1,0.1,0.1,0.2,0.2c0,0,0.1,0,0.1,0.1
		c0,0.1,0,0.1,0.1,0.2c-0.1,0-0.1,0.1-0.2,0.2c-0.1,0-0.1,0.2,0,0.2c0,0,0,0,0,0c0.2,0,0.4-0.2,0.4-0.4c0-0.1-0.1-0.2-0.1-0.3
		C31,51.8,30.9,51.7,30.8,51.3C30.9,51.4,30.9,51.3,30.8,51.3"/>
</g>
<g>
	<g>
		<path class="st21" d="M7.8,19.4c0,0-0.3,0.2-0.7,0.7"/>
		<path class="st22" d="M5.7,21.5c-2.4,2.9-5.4,8.1-0.9,12.8c6.5,6.9,9.6-0.3,8.6-2.4c-1-2.1-2.7-2-5,0c-2.6,3.3-2.1,11.3,0,15.8
			c0.9,1.9,1.8,3.2,2.5,4"/>
		<path class="st21" d="M11.5,52.5c0.5,0.5,0.8,0.6,0.8,0.6"/>
	</g>
</g>
<g>
	<circle class="st23" cx="49.6" cy="76.5" r="9.9"/>
	<polygon class="st9" points="44.1,78.9 45.9,76.5 47.8,78.7 53.4,71.1 56.3,73.4 47.2,81.9 	"/>
</g>
</svg>
