<?xml version="1.0" encoding="utf-8"?>
<!-- Generator: Adobe Illustrator 26.0.0, SVG Export Plug-In . SVG Version: 6.00 Build 0)  -->
<svg version="1.1" id="Capa_1" xmlns="http://www.w3.org/2000/svg" xmlns:xlink="http://www.w3.org/1999/xlink" x="0px" y="0px"
	 viewBox="0 0 656.6 748.4" style="enable-background:new 0 0 656.6 748.4;" xml:space="preserve">
<style type="text/css">
	.st0{fill:#6B4022;}
	.st1{fill:#ECF6FD;}
	.st2{fill:#E4A180;}
	.st3{fill:#FEBE9C;}
	.st4{fill:#CED7DB;}
	.st5{fill:#ACBDC2;}
	.st6{fill:#ABBCC2;}
	.st7{fill:#162F7F;}
	.st8{fill:#CED1D2;}
	.st9{fill:#D0E5EC;}
	.st10{fill:#93999A;}
	.st11{fill:#93999B;}
	.st12{fill:#AEB1B2;}
	.st13{fill:#293F9D;}
	.st14{fill:#B4BCBE;}
	.st15{fill:#EFE8E4;}
	.st16{fill:#FEBB2F;}
	.st17{fill:#FDBE9C;}
	.st18{fill:#2A409F;}
	.st19{fill:#2A409E;}
	.st20{fill:#2A40A0;}
	.st21{fill:#2B42A4;}
	.st22{fill:#414C93;}
	.st23{fill:#EBF6FC;}
	.st24{fill:#714A2F;}
	.st25{fill:#8BBAD7;}
	.st26{fill:#AEB2B2;}
	.st27{fill:#B3B7B8;}
	.st28{fill:#CBCECF;}
	.st29{fill:#E4A17F;}
	.st30{fill:#949A9A;}
	.st31{fill:#17307F;}
	.st32{fill:#172F7F;}
	.st33{fill:#A2BBC4;}
	.st34{fill:#273981;}
	.st35{fill:#EBF5FC;}
	.st36{fill:#FCD991;}
	.st37{fill:#A2BDE0;}
	.st38{fill:#F3E5C1;}
	.st39{fill:#8EAED9;}
	.st40{fill:#DDDACC;}
	.st41{fill:#CFD3D2;}
	.st42{fill:#D4D2C6;}
	.st43{fill:#CBCCC6;}
	.st44{fill:#D4D4CA;}
	.st45{fill:#D0CDBE;}
	.st46{fill:#9CB8DE;}
	.st47{fill:#E0D7BD;}
	.st48{fill:#E8E7DA;}
	.st49{fill:#DAD8CB;}
	.st50{fill:#CFCFC7;}
	.st51{fill:#DCDBCF;}
	.st52{fill:#D1D5D2;}
	.st53{fill:#DEDDD0;}
	.st54{fill:#EEE9D5;}
	.st55{fill:#F6BB48;}
	.st56{fill:#DDA943;}
	.st57{fill:#FDFEFE;}
	.st58{fill:#2D6DC8;}
	.st59{fill:#B8CFEC;}
	.st60{fill:#FEFEFD;}
	.st61{fill:#DDAA44;}
	.st62{fill:#8A9FC2;}
	.st63{fill:#E4E5EA;}
	.st64{fill:#BDC3D2;}
	.st65{fill:#2B3B6C;}
	.st66{fill:#B5CBE8;}
	.st67{fill:#8FAED9;}
	.st68{fill:#6F95CE;}
	.st69{fill:#F6C664;}
	.st70{fill:#9FBBDF;}
	.st71{fill:#81A3D4;}
	.st72{fill:#2D6CC8;}
	.st73{fill:#26376A;}
	.st74{fill:#2E6DC7;}
	.st75{fill:#F2BF6C;}
	.st76{fill:#FAC66D;}
	.st77{fill:#DFC389;}
	.st78{fill:#D2C39B;}
	.st79{fill:#F1C070;}
	.st80{fill:#B9CFEC;}
	.st81{fill:#F7C766;}
	.st82{fill:#F7C560;}
	.st83{fill:#F8C767;}
	.st84{fill:#F7C664;}
	.st85{fill:#F7C35E;}
	.st86{fill:#F2C261;}
	.st87{fill:#F7C561;}
	.st88{fill:#F7C663;}
	.st89{fill:#F7C460;}
	.st90{fill:#8D9FBC;}
	.st91{fill:#B7BDCD;}
	.st92{fill:#243059;}
	.st93{fill:#8598B9;}
	.st94{fill:#F7C25B;}
	.st95{fill:#F7C45F;}
	.st96{fill:#BCC1D1;}
	.st97{fill:#ADC4E3;}
	.st98{fill:#283869;}
	.st99{fill:#34619E;}
	.st100{fill:#FCFCFC;}
	.st101{fill:#F0F3F7;}
	.st102{fill:#A6BEDF;}
	.st103{fill:#E6B85C;}
	.st104{fill:#879DC3;}
	.st105{fill:#2252A3;}
	.st106{fill:#204D9B;}
	.st107{fill:#EFD297;}
	.st108{fill:#2655A5;}
	.st109{fill:#FCFDFD;}
	.st110{fill:#8AA0C4;}
	.st111{fill:#26386B;}
	.st112{fill:#F5F6F8;}
	.st113{fill:#B2C8E1;}
	.st114{fill:#2253A5;}
	.st115{fill:#FDFDFD;}
	.st116{clip-path:url(#SVGID_00000168809712956716086350000004856344142247962006_);fill:#94999C;}
	.st117{clip-path:url(#SVGID_00000168809712956716086350000004856344142247962006_);fill:#CFD1D4;}
	.st118{clip-path:url(#SVGID_00000168809712956716086350000004856344142247962006_);fill:#6B4021;}
	.st119{clip-path:url(#SVGID_00000168809712956716086350000004856344142247962006_);fill:#8ABDD9;}
	.st120{clip-path:url(#SVGID_00000168809712956716086350000004856344142247962006_);fill:#FFFFFF;}
	.st121{clip-path:url(#SVGID_00000168809712956716086350000004856344142247962006_);fill:#D1E5ED;}
	.st122{clip-path:url(#SVGID_00000168809712956716086350000004856344142247962006_);fill:#ADB0B2;}
	.st123{clip-path:url(#SVGID_00000168809712956716086350000004856344142247962006_);fill:#FFC29E;}
	.st124{clip-path:url(#SVGID_00000168809712956716086350000004856344142247962006_);fill:#E5A380;}
	.st125{clip-path:url(#SVGID_00000168809712956716086350000004856344142247962006_);fill:#784A29;}
	.st126{clip-path:url(#SVGID_00000168809712956716086350000004856344142247962006_);fill:#1C474F;}
	.st127{clip-path:url(#SVGID_00000168809712956716086350000004856344142247962006_);fill:#E3918C;}
	
		.st128{clip-path:url(#SVGID_00000168809712956716086350000004856344142247962006_);fill:none;stroke:#E3918C;stroke-width:1.7448;stroke-linecap:round;stroke-miterlimit:10;}
	.st129{fill-rule:evenodd;clip-rule:evenodd;fill:#96C042;}
	.st130{fill-rule:evenodd;clip-rule:evenodd;fill:#BDD95B;}
	.st131{fill:#FFFFFF;}
	.st132{fill:#2F45AA;}
	.st133{fill:#E3EDF4;}
	.st134{fill:#38C8E1;}
	.st135{fill:#30C3DE;}
	.st136{fill:#7FD7E9;}
	.st137{fill:#CDD4DA;}
	.st138{fill:#D4EBF9;}
	.st139{fill:#FFBC30;}
	.st140{fill:#1E294A;}
	.st141{fill:#202A4A;}
	.st142{fill:#222B4B;}
	.st143{fill:#6D5961;}
	.st144{fill:#3A3952;}
	.st145{fill:#9A756F;}
	.st146{fill:#D1D6D9;}
	.st147{fill:#4D5E7F;}
	.st148{fill:#1E315B;}
	.st149{fill:#794928;}
	.st150{fill:#764726;}
	.st151{fill:#E3A17F;}
	.st152{fill:#774727;}
	.st153{fill:#885635;}
	.st154{fill:#CE9472;}
	.st155{fill:#966241;}
	.st156{fill:#EBAD8B;}
	.st157{fill:#CE9473;}
	.st158{fill:#B27B5A;}
	.st159{fill:#FCFAF8;}
	.st160{fill:#365558;}
	.st161{fill:#375659;}
	.st162{fill:#E8988D;}
	.st163{fill:#8D5D3E;}
</style>
<path class="st0" d="M409.3,217.1c-4.1-6.7-15.1,7.8-22.9,7.8c-6.6,0.1-19.5-8.8-21-2.4c-0.5,2.1-32.6-3.5-4.7-23.5
	c-1.8,2.2,0-3.8-2.8-4.9c-2.3-1.9,13.6-6.7,12.5-9.5c1.8-5.7,6.3-9.7,9.3-14.6c4.6-0.9,9.1-1.9,10.9-7.2c0.8-2.2,0.8-3.9-1.8-4.6
	c-4.6-1.6-5.8-5-5.5-9.5c0.3-4.3,1.2-8.6,0.9-12.9c-0.6-7.8-1.9-15.2-10-19.3c-8.7-4.4-17.1-3.7-25.2,1.3c-8,5-11.8,12.8-14.3,21.5
	c-0.7,2.4-1.3,4.8-2.5,7c-2.4,4.4-6.5,6.1-11,7.1c-3.3,0.8-2.6-2.1-3-3.9c0.5-7.9,0.2-15.9,2.7-23.7c7.8-24.1,39.3-34.9,58-19.6
	c4.2,3.4,8.4,7,12.6,10.5c5.8,4.8,9.1,11.3,11,18.6C407,151.8,406.4,200.4,409.3,217.1z"/>
<path class="st0" d="M319,154.8c0.7,0.1,1.3,0.2,2,0.4c1.4,0.1,9.5,1.9,9.8,3.3c18.1,0.9,2.3,59.2-6.8,33.5c-1.8,2-5-5.9-4.9-32.7
	C319.1,157.7,319.1,156.2,319,154.8z"/>
<path class="st1" d="M213.8,687.6c-4.9-0.5-9.7-1-14.5-1.5c-7.2-0.8-14.4-1.7-21.2-3.3c-6.2-1.5-12.1-3.6-17.3-6.9
	c-8.2-5.2-14.2-13-17.8-23.4c-6.4-18.2-7.7-39.5-4.2-63.6c3.4-23.5,11.4-47.3,23.3-71.2c6.8-13.7,14.6-26.8,23.4-39.5
	c13.2-19,27.9-36.1,43.8-51.5c9.1-8.8,18.4-16.9,27.7-25.3c19.7-17.9,39.5-35.6,59.6-52.4c20.3-17,40.9-33.1,61.9-47.3
	c18-12.2,36.1-22.9,54.3-31.3c20.3-9.4,40.2-15.7,59.3-17.8c16.2-1.8,31.1-0.3,44.8,4.1c9.6,3.2,18.5,7.6,26.5,13.5
	c12.1,8.9,22.4,20,30.2,34c4.4,7.9,7.3,17.2,9.6,26.9c4.2,17.5,6.3,36.5,6.6,56.6c0.5,34.6-3.6,70.9-12.7,109
	c-7,29.4-17.9,58.8-32.3,88.1c-8.6,17.4-18.2,34.4-29.2,50.7c-16.6,24.8-34.9,47.3-55.9,66.5c-17.8,16.3-36.1,29-55,37
	c-2.9,1.2-5.9,2.4-8.8,3.3c-16.2,5-32.2,8.6-47.5,9.7c-11.6,0.8-22.4-0.4-32.2-3.9c-6.9-2.4-13.1-5.9-19.1-9.9
	c-2.7-1.8-5.5-3.6-8.3-5.5L213.8,687.6z"/>
<path class="st2" d="M318,450.2c7.1,21.4-9,34.9-15.7,58.9c-0.1,3.6-3.7,10.2-2,13.5c6.3,12.8,6.3,21.9,8.7,35.8
	c3.7,21.4,1.1,37.7,0.6,59.3c-0.5,20.2-3.1,40.3-6.3,60.3c-0.6,3.9-1,4.8-1.7,12.1c-0.6,2-2.2,3.1-3.7,2c-4.9-3.5-10.9-3.6-16.2-6
	c0.4-2.9-0.7-6-1-8.5c-2.2-18.5-4-37-6.3-55.4c-2.5-19.6-5.3-39.1-8.6-58.6c-2.5-14.3-4.5-21.8-12.7-33.9c-7.3-10.7-1-19.1-0.1-29.7
	c0.3-3.2,6.5-63.5,5-69.3c-0.4-1.3,9.6-1.6,7.8-1.7c-3-10.6-2-11.8,9.3-12.6c18.7,0.2,14.1,34.1,32.6,32.1
	C309.7,448.4,316.5,448.5,318,450.2z"/>
<path class="st3" d="M385.9,449.9c1,19.1,1.6,38.2,1.2,57.3c-0.1,3.6,0.7,6.7,2.4,9.9c6.3,12.8,9.2,26.6,11.6,40.5
	c3.7,21.4,3.5,43,2.9,64.6c-0.5,20.2-3.1,40.3-6.3,60.3c-0.6,3.9-1,4.8-1.7,12.1c-0.6,2-2.2,3.1-3.7,2c-4.9-3.5-10.9-3.6-16.2-6
	c0.4-2.9-0.7-6-1-8.5c-2.2-18.5-4-37-6.3-55.4c-2.5-19.6-5.3-39.1-8.6-58.6c-2.5-14.3-6.8-27.7-15-39.8c-9.4-14-17.9-28.5-23.1-44.6
	c-1.8-5.7-3.4-11.5-5-17.2c-0.4-1.3-2.7-15.2-4.5-15.3c5.7-0.3,0.5,0.6,11.8-0.1c18.7,0.2,37.3-0.7,55.8-2.7
	C382.3,448.3,384.4,448.1,385.9,449.9z"/>
<path class="st4" d="M376.2,690.7c5.5-0.1,10.9,0.6,15.2,4.3c1.9,1.6,3.2,0.8,4.7-0.3c2.3,0.3,3.5,1.2,3.3,3.9
	c-0.6,7.7,0.6,15,3.7,22.3c2.8,6.6,1.4,13.7,0.3,20.7c-0.3,2.1-1.5,2.2-3.1,2.2c-15,0-29.9-0.1-44.9,0c-2.3,0-3.1-0.7-3.5-3
	c-1.2-7.4-0.3-13.9,6.4-18.5c2-1.4,3.9-3,5.9-4.5c3.5-2.4,7-0.6,10.4,0.3c2.8,0.8,5.3,2.5,9.1,2.7c-2.5-4.1-6-4.9-9.6-5.5
	c-2-0.3-4.3,0.3-6-1.5c0.7-1,1.4-2,2-3c2.1-3,5.2-2.3,8.2-2c3.2,0.3,5.9,2.1,9.1,2.4c-2.2-3.1-5.2-4.6-9-4.9
	c-2.1-0.2-4.4,0.3-6.1-1.5c-0.1-2.6,0.5-5.5-0.5-7.7C369.6,691.9,371.8,690.7,376.2,690.7z"/>
<path class="st5" d="M368,713.7c5.3-0.2,10.6,0,15.1,3.5c1.5,1.1,3.4,2.1,2.4,4.2c-1,2.1-3,1.4-4.8,0.7c-5.3-2.3-10.6-4.7-16.6-4.3
	C365.5,716.4,366.7,715.1,368,713.7z"/>
<path class="st6" d="M372.2,704.7c5.5-0.2,10.9-0.2,15.5,3.7c1.5,1.3,3.2,2.5,1.9,4.4c-1.2,1.8-3.1,0.7-4.5-0.1
	c-4.8-2.9-9.8-4-15.2-2C370.8,708.7,371.5,706.7,372.2,704.7z"/>
<path class="st4" d="M282.2,686.1c5.5-0.1,10.9,0.6,15.2,4.3c1.9,1.6,3.2,0.8,4.7-0.3c2.3,0.3,3.5,1.2,3.3,3.9
	c-0.6,7.7,0.6,15,3.7,22.3c2.8,6.6,1.4,13.7,0.3,20.7c-0.3,2.1-1.5,2.2-3.1,2.2c-15,0-29.9-0.1-44.9,0c-2.3,0-3.1-0.7-3.5-3
	c-1.2-7.4-0.3-13.9,6.4-18.5c2-1.4,3.9-3,5.9-4.5c3.5-2.4,7-0.6,10.4,0.3c2.8,0.8,5.3,2.5,9.1,2.7c-2.5-4.1-6-4.9-9.6-5.5
	c-2-0.3-4.3,0.3-6-1.5c0.7-1,1.4-2,2-3c2.1-3,5.2-2.3,8.2-2c3.2,0.3,5.9,2.1,9.1,2.4c-2.2-3.1-5.2-4.6-9-4.9
	c-2.1-0.2-4.4,0.3-6.1-1.5c-0.1-2.6,0.5-5.5-0.5-7.7C275.6,687.3,277.8,686.1,282.2,686.1z"/>
<path class="st5" d="M274,709.1c5.3-0.2,10.6,0,15.1,3.5c1.5,1.1,3.4,2.1,2.4,4.2c-1,2.1-3,1.4-4.8,0.7c-5.3-2.3-10.6-4.7-16.6-4.3
	C271.5,711.8,272.7,710.5,274,709.1z"/>
<path class="st6" d="M278.2,700.1c5.5-0.2,10.9-0.2,15.5,3.7c1.5,1.3,3.2,2.5,1.9,4.4c-1.2,1.8-3.1,0.7-4.5-0.1
	c-4.8-2.9-9.8-4-15.2-2C276.8,704.1,277.5,702.1,278.2,700.1z"/>
<path class="st7" d="M385.9,449.9c-20.5,2.1-41,3-61.5,2.8c-0.6-0.3-1.3-0.4-1.9-0.3c-12.1,1.7-23.2-2.8-34.3-6.3
	c-8.4-2.6-16.6-5.9-24.6-9.5c-2.4-1.1-5-2-6.4-4.5c-1.6-1.2-1.1-2.6-0.4-4c7.3-14.2,8.8-30.1,12.5-45.3c-0.5-9.2,3.5-17.3,6.4-25.7
	c2.2-6.6,4.8-13.1,7.9-19.3c1-2.1,2-4.2,4.6-4.9c3.5,0.6,7.4,0.5,9.3,4.5c-4.6,16.7-4.1,33.8-3.7,50.8c-0.3-15.7-0.7-31.4,2.8-46.9
	c0.4-1.6,0.6-3.3,2.2-4.3c5.2-1.3,10.1,0.7,15.1,1.3c7.1,0.8,14.1,0.6,21.2,0.4c1.9,0.5,2.8,2.1,3.8,3.6c4,5.9,9.3,10.2,16.1,12.5
	c1.8,0.6,4.6,0.5,4.5,3.6c-0.5,2.6,1.4,0.8,2,0.9c1.9,0.4,4.6-0.4,5.3,1.6c0.7,2.3-2.2,2.8-3.7,3.8c-0.9,0.6-1.9,1.1-3,1.6
	c1,0.3,2,0,3,0.2c1.5,0.3,2.8,0.9,3.3,2.5c-0.5,1.9-1.2,3.8,1.4,4.9c4.2,6.1,5,13.3,6.4,20.2c2.7,12.6,2.6,25.6,3.3,38.4
	c0,2.2,0,4.3,0.1,6.5c0.4,5.2-0.7,6.4-6.1,6.7c-2.8,0.2-5.6-0.2-8.4,0.5c-15.8-0.2-31.5,0.5-43.6-0.3c12.5,0.6,28.7,0.4,44.9,0.1
	c6.6-0.1,13.1-1.2,19.6-2.5c1.3-0.3,2.6-0.4,3.9,0.3C388,446.1,389.8,449,385.9,449.9z"/>
<path class="st8" d="M404.2,203c0,2.2,0.6,3.8,2.6,5.4c25.4,19.6,44.6,44.7,61.4,71.8c5.2,8.3,5.9,16.4,0.7,25.6
	c-8.5,15.2-18.8,28.9-29.6,42.3c-2.2,2.7-4.9,4.8-8.2,6.3c-2.7,1.2-5.4,2.7-7,5.4c-1.4,3.6-4,4.3-7.5,3.3c-3.8-1.1-7.4-2.4-11.2-3.4
	c-4.8-2.9-10.2-5-14.6-8.6c-1.3-2.5-0.6-4.7,1.5-6.1c5.4-3.6,8.8-8.9,12.6-13.8c7.6-11.2,14.9-22.7,20.8-35c1.4-2.9,1-4.9-0.8-7.2
	c-4-5.3-8.6-10.1-12.5-15.4c-1.9-2.6-3.7-0.6-5.5-0.7c-1.7-1.8-0.4-5.3-3.5-6.4c-1.7-1.4-3.6-2.4-5.6-3.3
	c-11.6-5.4-16.9-15.1-18-27.3c-0.3-3-0.1-6-0.1-9c0.1-13,5-19.3,17.6-22.2c0-0.2-0.2-0.3-0.6-0.4c-13.5-5.3-13.4-5.3-22.5,5.9
	c-1.8,2.2-3.3,4.6-5,6.9c-1,1.4-1.9,3.2-4.2,3.1c-1.3-1.6-0.5-3.2,0.3-4.6c2.1-4.1,3.7-8.5,5.7-12.6c1.1-2,2.1-4,3.1-6
	c1.1-1.9,2.2-3.7,3.3-5.6c3.7-5.8,7.1-6.8,13.6-4.3c3.1,1.2,6,2.9,8.6,5C403.4,194.9,403.9,198.8,404.2,203z"/>
<path class="st8" d="M281.3,241c-1.7,7.3-2.9,14.6-2.7,22.1c0.3,11.5-3.8,21.9-9.7,31.4c-4.7,7.7-12.4,8.3-19.8,2.9
	c-10.7-7.8-18-18-20.3-31.3c-1.2-6.9-2.2-13.8-3.2-20.6c0.1-0.2,0.3-0.4,0.4-0.6c5.3-2.9,11.1-4.9,16-8.6c3-2.3,4.7-6,8.5-7.3
	c0.5,0.1,1.1,0.3,1.3,0.7c8.7,15,22.5,27.8,19.7,44.6c-0.8-5.7-0.6-14.4-4.7-22.3c-1.2-2.4-2.8-4.5-4.3-6.7c-3-4.2-5.8-8.5-7-13.7
	c-1.4-6.3-5.4-11.6-12.5-13c-2.1-2.2,18.7,29.8,19.5,26.7c-0.6,3.5,6.3,2.3,17.2-30.5c0.8-1.8,4.9-11.3,11.9-19.5
	c7-8.2,18.3-6,19.1-4.5c6.6,13.2-24.9,21.1-15.5,32.4C297.5,226.1,283.1,236.6,281.3,241z"/>
<path class="st9" d="M283.2,229.8c3.3-1.2,4.6-3.9,6-6.8c5.9-12.7,12.5-24.9,21-36c1.6-2.1,3.4-4.1,5.1-6.1c4.1,1.5,2.1-3.9,4.6-4.2
	c1.9,3.1,4.2,5.9,6.9,8.3c0.8,2.3-0.3,4.2-1,6.2c-2.1,5.6-4.7,11-6.2,16.8c-11.3,23.2-22.6,46.4-37,68c-4.1,6.9-8.6,13.5-13,20.2
	c-2.9,4.4-5.2,9-5.4,14.3c-0.3,10.1-2.2,20.1-0.8,30.4c1.1,8.4,0,17,1.2,25.4c0.2,1.6,0,3.4-1.5,4.6c-2.3-9.6-4.6-19.2-6.9-28.9
	c-1.1-4.8-1.6-9.9-3.5-14.5c-4.5-10.9-1.9-21.2,1.4-31.6c2.3-7.4,5.2-14.7,8.8-21.7c1.8-3.5,3.9-5.3,8-5.5c4.6-0.2,7.9-3.7,7.1-7.9
	c-1.7-8.8,2-16.2,4.7-24c0.6-1.7,1.4-3.4,2-5.1C285.2,230.3,284.2,230,283.2,229.8z"/>
<path class="st9" d="M405,358.7c3.7-0.1,7,1.6,10.3,2.7c3.3,1.1,6.3,1.2,8.7-1.6c1.8,7.3,5.8,13.7,8.4,20.6
	c1.9,4.9,4.3,9.7,6.5,14.5c-5.3,9.5-12.8,16.4-23.5,19.3c-1.3,0.4-2.5,0.9-3.7,1.4c-0.2,0.1-0.5,0.1-0.7,0.2
	c-0.3-0.4-0.7-0.7-0.9-1.1c-3-6.5-6.6-12.2-15-11.9c2.2-2,4.4-1.4,6.2-0.8c-5.2-8.1-10-17.3-15.1-26.3c-0.7-1.2-1.1-2.4-0.9-3.8
	c0.1-0.5,0.2-1.1,0.6-1.3c6.3-2.6,11-7.4,16.2-11.5C403,358.5,404,358.4,405,358.7z"/>
<path class="st10" d="M263.1,370.8c-0.6-11.1-1.2-22.1-1.6-33.2c-0.4-10.9,0.3-21.9,2-32.7c0.7-4.6,4-8.3,6.6-12.2
	c4.1-6,8-12.1,12-18.2c4,3.8,3.7,9.2,4.3,13.9c1.7,13.2,1.5,26.5,2.4,39.7c0.1,1.8,0.3,3.7-0.8,5.3c-3.9,4.5-5.5,10.1-7.7,15.4
	c-4.5,11-8,22.3-10.9,33.8C267.3,378.8,265.2,374.8,263.1,370.8z"/>
<path class="st7" d="M388,405.8c0.4,7.7,0.8,15.4,0,23c-0.7,3.6-0.5,7.3-0.3,10.9c0.3,5.2-3.9,4.2-6.5,4.8c-3.1,0.8-3.7-1.4-3.9-4.2
	c-0.2-3.1,0.2-6.3-0.5-9.4c-0.6-16.2-0.9-32.5-5.9-48.1c-0.5-1.5-0.5-3,0.7-4.2c2.6-2,4.7-4.6,8.2-5.2c3.9,2.2,4.3,6.4,5.4,10.1
	C387.4,390.8,388.7,398.2,388,405.8z"/>
<path class="st11" d="M388,405.8c-1.1-7-1.8-14.1-3.9-20.9c-1.2-3.9-1.7-8-4.9-11.1c1.3-3.6,3.8-3.5,6.7-2.1
	c5.5,10.2,11,20.3,16.9,31.1c-2.9,0-5.3,0-7.7,0c-0.8-0.2-1.6-0.3-2.3-0.6C389.4,400.9,387.5,401.7,388,405.8z"/>
<path class="st9" d="M439.1,396.8c2.8,2.6,2.2,5.2,0.4,8c-5.4,8.4-13.4,13.3-22.5,16.4c-4,1.4-4.1-3.3-5.9-5.3c0,0,0.1-0.1,0.1-0.1
	c2.5-1.8,5.6-2,8.3-3.1c7.1-3,12.5-8.1,17.2-14C437.3,397.9,437.5,396.3,439.1,396.8z"/>
<path class="st8" d="M229.8,236.5c6.3-2.7,12.5-5.4,17-10.9c2.1-1.4,2.7,0,3.1,1.7c-3.5,7.9-10.7,11.7-17.8,15.5
	c-2,1.1-4.4,1.5-6.3,2.8c0,0-0.2,0.1-0.2,0.1c-1-1.1-1.8-2.4-2.9-3.4c-4.7-4.6-4.7-9.3,0-14.5c0.3,0.4,0.4,0.9,0.4,1.4
	C222.8,236.7,222.8,236.7,229.8,236.5z"/>
<path class="st12" d="M229.8,236.5c-1.2,0.6-2.3,1.1-3.5,1.7c-3.8,1.7-5.2-0.3-5.2-3.7c0-2.3,0.4-4.5,1.4-6.6c1-2.4,4.3-4.7,6.4-6.1
	C229.8,226.4,229,231.7,229.8,236.5z"/>
<path class="st13" d="M377.2,430.8c1.9,2.7,0.6,5.8,1,8.7c0.2,2.1-0.4,4.9,3,4.2c2.5-0.5,6.3,0.2,6.1-4.6c-0.2-3.4-1-6.9,0.8-10.2
	c0,5,0,10,0,15c-7.4,2.5-15.1,2.9-22.9,2.9c-0.3-0.4-1-0.4-1-1c2.3-1.9,5.1-0.9,7.6-0.9c3.8,0,5.3-1.5,4.8-5.2
	c-0.3-2.3-0.3-4.6-0.4-6.8C376.9,432.3,376.4,431.2,377.2,430.8z"/>
<path class="st14" d="M439.1,396.8c-6.9,9.9-15.6,17.1-27.9,19c0-2.4,2.2-2.3,3.6-2.6c9.6-2.2,16.2-8.5,21.7-16.1
	c0.7-0.9,1-2.1,2.5-2.1C439.1,395.6,439.1,396.2,439.1,396.8z"/>
<path class="st15" d="M314.1,131.8c0,1.3,0,2.5,0,4.6c-1.4-2.2-2-3.8-1.9-5.6C312.9,131.2,313.5,131.5,314.1,131.8z"/>
<path class="st16" d="M288,333.6c-1.2-8.3-1.6-16.7-1.8-25.1c-0.3-11.4-1.2-22.7-4.1-33.8c5.9-10,11.7-20.1,17.7-30.1
	c7-11.7,11.1-24.9,18.5-36.4c4.2-7.5,10.2-12.5,18.9-13.9c1.5,0.4,2.8,1.2,3.6,2.6c0.1,0.3,0.3,0.6,0.3,0.9c-0.2,4.1,0,8,4.7,9.8
	c4.8,1.8,9,0.1,13.1-2.3c1.5-0.9,2.4-2.7,4.2-3.4c3.1-0.5,6.3-1.4,9,1.2c-1.4,6-5.2,10.9-6.9,16.8c0.8,2.1-0.4,3.9-1.2,5.6
	c-6.8,14.8-11.4,30.1-11.7,46.5c-0.3,11.6,2.6,22.7,5.9,33.7c1.3,4.3,3.3,8.3,3.7,12.9c-1.8,6.1-2.1,12.7-5.1,18.5
	c-1.5,1.2-3.3,1.6-5.1,2c-1,0.1-2,0.5-3,0.8c-3.4,0.3-6.8,1-10.2,1c-0.8-0.2-1.5-0.6-2.3-0.8c-12.5,1.3-24.7-0.2-37-2.3
	c-0.6-0.5-1.5-0.1-2.1-0.7C294.1,335.9,291,334.7,288,333.6z"/>
<path class="st17" d="M385.9,371.7c-2.4,0.1-4.8,0.4-6.7,2.1c-2,1.7-4.1,3.5-6.1,5.2c-0.7,0.3-1.3,0.3-2,0c-0.9-2.3,1.6-3.6,1.6-5.7
	c-1.2-0.3-2.2,0.4-3.3,0.5c-1.1,0.4-2.2-0.6-3.4-0.1c-5-1.4-0.1-2.7,0-4.1c0.4-0.9,1.2-1.4,2-2.3c-1.7,1.3-3.4-0.8-4.9,0.4
	c-1.6,0-3.3,0-5.3,0c1.9-3.9,6.1-3.9,8.8-6.7c-3.7,0-7,0-10.6,0c0.8-1.9,2.3-1.8,3.3-2.4c0.9-0.9,1.9-1.7,3.1-2
	c2.9-0.8,5.8-1.6,8.7-2.1c2-0.3,3.9-0.9,6-1.1c4.8-0.6,9.4-1.7,14.2-2.6c4.9,2.1,9.8,4.3,13.8,7.9c-3.3,1.9-6.3,4.1-8.5,7.2
	C393.9,369.7,389.1,369.1,385.9,371.7z"/>
<path class="st18" d="M371.4,378.8c0.5,0.1,1.1,0.2,1.6,0.3c-1.1,1-2.1,1.8-1.5,3.7c5.1,15.6,6.1,31.7,5.6,48c0,0.8-0.2,1.6-1,2
	c-0.8-16.9-1.1-33.9-6.1-50.3c-0.9-3.1-1.6-6.4-4.1-8.8c0.9-0.8,2-0.8,3.2-0.7C371.3,374.3,370.6,376.8,371.4,378.8z"/>
<path class="st19" d="M362.2,357.8c-0.9,0.6-1.8,1-3,0.8c-0.2-1.8-1.7-1.6-3-2c-9-2.7-15.8-8-20-16.6c0.7,0,1.3-0.1,2-0.1
	c3.5,2.8,5.6,7.1,9.6,9.4c2.4,1.4,4.7,3,8.1,3.8c-1.2-4.1-3.6-6.7-5.1-9.7c-0.8-1.5-2.6-2.8-1.6-4.9c0.7-0.2,1.4-0.4,2.1-0.5
	C356.5,343.7,361,349.8,362.2,357.8z"/>
<path class="st20" d="M297.1,337c0.8-0.1,1.6,0.1,2.1,0.7c-3.4,5.6-3.1,12-3.9,18.1c-1.6,11.7-1.8,23.4-0.2,35.2
	c0,0.2-0.3,0.5-1,0.7C293.2,373.4,291.4,355,297.1,337z"/>
<path class="st21" d="M364.1,445.8c0.3,0.3,0.7,0.7,1,1c-18,0-36,0-54,0c0-0.7,0-1.4,0-2.1C328.8,446.3,346.5,445.7,364.1,445.8z"/>
<path class="st22" d="M363.1,367.7c2-1.1,4.1-1.3,6.6-0.7c-1,1.6-2.2,2.2-3.7,2.6C365.5,368.3,364.3,368,363.1,367.7z"/>
<path class="st9" d="M391.2,350.8c-4,3.9-9.4,2.8-14.2,3.9c-1.4-0.7-2.3-1.8-3-3.2c-4.5-9.1-8.5-18.4-12.3-27.8
	c-0.6-1.6-0.7-3.2-0.7-4.9c-3.2-9.6-6.5-19.2-8.6-29.2c-3.9-19.3-0.7-37.7,6.4-55.7c1.9-4.8,4.2-9.4,6.4-14.1
	c5.2-5.8,8.9-12.7,14.5-18.2c2.6-2.5,5-3.4,8.4-2c4.4,1.8,9.2,2.6,13.5,5.9c-8.9,0.7-17,2.9-19.1,12c-3.3,14.3-3.1,28.5,8.6,39.9
	c2.5,2.4,5.5,3.8,8.5,5c1.9,0.8,3.6,1.6,4.5,3.6c1.8,2.1,1.1,4.4,0.7,6.6c-1.5,7.8-3.3,15.6-5.7,23.1c-0.3,2.4-1.4,4.4-2.3,6.5
	c-1.2,3-2.2,6,0.3,8.8c0.4,0.5,0.9,1.2,0.7,1.8c-1.8,6.9,3.2,11,6.4,15.8c0.7,1,1.1,2.1,1.7,3c-4.1,5-7.2,11-13.3,14.2
	C390.8,347.1,391.2,349,391.2,350.8z"/>
<path class="st23" d="M406.1,331.8c-4.8-3.2-7-8.6-10.2-13.1c-0.7-1,0.5-2.1,0.8-3.2c0.2-0.8,0.6-2,0.2-2.4
	c-6.2-6.2-0.2-11.5,1.2-17.2c2.7-5.8,5.1-11.7,6.5-18c0.4-1.9,0.7-3.9,2.5-5.1c1.2-4.1,3-4.1,5.5-0.9c4.4,5.6,9,11,13.5,16.5
	c2.2,2.7,2.7,4.6,0.8,8.5C420.8,309.1,413.6,320.5,406.1,331.8z"/>
<path class="st24" d="M407.2,272.9c-2,8.1-3.1,16.6-9.1,23.2c1.8-8,3.7-16.1,5.4-24.1c0.4-1.9,0.5-3.9,0.7-5.9
	C409.7,266.4,406.1,270.6,407.2,272.9z"/>
<path class="st25" d="M372,203.1c-3.3-0.1-6.6-0.2-9.9-0.2c-2.1-2.8-2.1-5.6,0.2-8.3c2.8-1.4,4.4,0.6,6.1,2.2c2,1.6,4.3,1.3,6.6,1.2
	C374.2,199.7,373.6,201.7,372,203.1z"/>
<path class="st26" d="M249.4,226.7c-0.6-0.9-1.4-1.4-2.6-1.2c-0.7-2.5-3.6-4.6-4.3-7.1c7.8,0,12.4,5.9,13.8,12
	c1.5,6.8,5.1,12.4,9,17.6c7.4,10.1,5.8,18,4.6,20.9c-1.4-7-0.3-2.3-2.1-9.2c-1.4-5.5-3-10.6-7.8-14.6c-4.8-3.9-6.8-9.1-9.7-14.5
	C248.3,230.3,250,227.5,249.4,226.7z"/>
<path class="st27" d="M249.4,226.7c0.3,0.9,0.7,1.8,1,2.7c-6.5,8.1-14.5,13.8-24.7,16.1c3.7-3.6,9-4.3,13.1-7.5
	C243,234.8,247.1,231.6,249.4,226.7z"/>
<path class="st8" d="M326.2,184.9c2-3.4,5.1-5.3,8.9-6.1c3.6,1.6,6.2,4.1,8.2,7.5c0.5,2.8,0,5.3-1.6,7.7c-1.3,1.3-3,0.8-4.6,1.1
	c-8.1,1.7-13.3,7.6-18.7,13.1c1.1-6.7,4.5-12.7,6.8-19C325.6,187.7,326.3,186.4,326.2,184.9z"/>
<path class="st28" d="M363.2,189.9c1-0.3,2-0.7,3-1c0,0,1.5,5.2,2.3,7.8c-1.8-0.6-3.6-1.3-5.5-1.9
	C361.6,193.1,361.9,191.5,363.2,189.9z"/>
<path class="st29" d="M363.2,189.9c-0.1,1.6-0.1,3.3-0.2,4.9c-1.5,2.5-0.8,5.3-0.9,8.1c-1.9,6-7.5,6-12.1,6.8
	c-3.9,0.7-7.1-1.4-9.7-4.7c-2.2-2.9,0.4-5.4-0.2-8.1c-0.2-1.2,0-2.2,0.9-3c0.4-2.6,0.8-5.2,1.2-7.9
	C348.9,189.1,355.7,191.4,363.2,189.9z"/>
<path class="st30" d="M360.9,318.8c5.2,12.1,10.2,24.2,16.1,35.9c-2,0.3-4,0.7-5.9,1c-5.1-6.3-10.4-12.4-14.8-19.1
	C357.9,330.7,358.2,324.4,360.9,318.8z"/>
<path class="st31" d="M356.3,336.6c6.3,5.3,11.2,11.7,14.8,19.1c-3,0.7-6,1.4-8.9,2.1c-3-7-7.5-13.1-11-19.8
	C352.8,337.6,354.6,337.1,356.3,336.6z"/>
<path class="st32" d="M349.1,338.6c2.6,4.2,5.3,8.5,7.8,12.7c0.5,0.9,1.7,2,0.4,3.1c-0.8,0.7-1.9,0.4-2.8,0
	c-6.9-3.2-13.3-6.8-16.3-14.4C341.8,339.5,345.4,339,349.1,338.6z"/>
<path class="st33" d="M341.1,193.8c0.1,1.1,0.1,2.2-0.9,3c-1.1-0.6-2.1-1.2-3.2-1.8C338.1,193.5,339.7,193.9,341.1,193.8z"/>
<path class="st34" d="M371.4,378.8c-1.9-1.5-2.1-3.7-2.3-5.9c1.7-0.5,3.4-1.1,5.5-1.8C374.5,374.4,372.4,376.4,371.4,378.8z"/>
<g>
	<path class="st35" d="M1.8,118.9C-8.3,66.8,24.9,15.8,77.2,2.9c59.2-14.6,118.3,27.8,123.7,88.6c0.6,7.2,0.6,14.3-0.4,21.4
		c0.4,6-4.3,4-7.4,4.6c-0.6,0.2,0,1.2-0.1,0.6c0-0.2,0-0.3,0.2-0.3c2.2-0.7,4.4-0.6,6.6,0.1c-1.4,10.7-5,20.7-10.2,30.1
		c-0.5,0.3-1.1,0.3-1.7,0.1c-6-0.3-12-0.1-18-0.2c-1.9,0-3.9,0-5.8,0c6.7,0,13.5-0.1,20.2,0.1c1.6,0,3.8-0.9,4.3,1.8
		c-2,4.1-4.5,7.8-7.3,11.3c-1.2,0.2-2.3-0.3-3.5-0.1c-11.7,2.4-21.8-1.8-31.7-7.3c-1.3-1.1-1.1-2.5-0.8-3.9c1-1.8,1.9-3.6,2.2-5.7
		c0.6-1.9,1.2-3.8,3.3-4.7c5.1,0.3,10.2,1.5,15.2,2.4c4.8,0.8,9.3,0.2,13.8-0.8c6.5-1.5,10.7-5.3,10.9-10.2
		c0.2-5.7-3.8-8.5-8.3-10.7c-3.6-1.6-7.1-3.5-10.6-5.2c-1.6-0.8-3.3-1.7-3.7-3.7c-0.1-1.6,1.1-2.7,1.6-4c6.4-11.1,6-17.6-1.8-25.5
		c-9.1-8.3-19.3-8.3-28.6,0.1c-2.3,0.6-3.4,3.1-5.8,3.4c-4.8-2.8-9.5-5.5-14.3-8.4c-1.1-0.8-2.3-1.4-3.6-2.1c-2-1.1-3.7-2.6-6.1-3.7
		c0.9,3.1,1.7,6,2,8.9c0.3,2.3,0.6,4.7-2.1,5.9c-6.8,1.1-13.6,0.5-20.4,0.4c-1.5,0-3-0.5-4.1-1.5c-1.6-0.5-1.2-5.5-4.6-2.1
		c-1.1,4-3.9,5.3-7.7,5.7c-6.2,0.6-12.5,1.2-18.6,2.9c-6,1.7-7.1,3.4-6.4,9.6c0.3,2.7,1.4,5.2,0.7,8c-1,2.4-3.5,2.1-5.3,3.1
		c-8.8,4.2-13.6,14.7-11.6,25c0.9,4.7,3.5,8.9,3.9,13.7c-0.7,2.5-3.1,2.7-5,3.5c-3.9,1.7-8.1,2.6-11.7,4.9
		c-7.4-9.4-12-20.3-15.3-31.7c-0.5-1.9-1.1-3.8-1.6-5.6c0.5-1.2,1.4-1.8,2.7-1.9c5.2-0.1,10.3,0,15.4-0.1
		C13.9,119.2,7.8,120.9,1.8,118.9z"/>
	<path class="st36" d="M18.8,159c0.4-1.4-0.2-3.1,2.5-3.4c4.8-0.6,9.1-2.9,13.5-4.8c0.4-0.4,0.8-0.4,1.2-0.2c1.4,1.3,2,3.2,2.8,4.9
		c0.5,1.3,0.9,2.7,0.9,4.1c-1.4,3.9,1.1,11.7,4.6,14.1c0.8,0.6,1.6,0.1,2.3-0.3c2.3-1.4,4.6-3.1,7.5-3.1c1.8,0,3.7-0.1,5.5,0.3
		c4.3,1.2,8.5,0.8,12.6-0.8c5.5-2.2,11.1-4.5,16.4-7.2c7.1-3.7,14.1-4.3,21.5-1c2.3,1.2,4.3,3.1,7.2,2.4c5.2,1,10.3,1.5,15.7,0.5
		c4.9-0.9,8.3-3,9.8-7.8c0.4-1.1,0.9-2.1,1.6-3c0.3-0.4,0.8-0.7,1.2-0.8c3.1-0.4,5.3,1.7,7.8,2.9c7.6,3.8,15.5,5.6,23.9,3.5
		c2-0.5,3.2-0.1,3.9,1.7c-1.4,3.3-4.7,5-6.8,7.7c-2.5,2.1-4.8,4.4-7,6.9c-0.7,0.7-1.5,1.4-2.2,2.1c-2.4,0.8-3.8,3-5.9,4.1
		c-0.7,0.6-1.4,1.3-2.1,1.9c-1.9,1.1-4.1,1.7-5.6,3.4c-2.1,1.2-4.8,1.6-6.3,3.9c-1.6,1.4-3.6,1.9-5.7,1.9c-1.3,0.7-2.5,1.5-4.1,1.5
		c-4.5,2-9.3,3.3-14.1,4.3c-0.6,0-1.2,0.1-1.8,0.1c-9,2-18.2,2.4-27.4,1.8c-1.4-0.5-2.8-0.2-4.3-0.3c-3.1-1-6.3-1-9.4-2
		c-4.2-0.2-7.9-2.3-12-3.1c-2-1.2-4.3-1.4-6.4-2.3c-2.8,0.2-4.2-2.6-6.6-3.2c-1.1-1.5-2.9-1.9-4.4-2.8c-2.6-2-5.4-3.5-8.2-5
		c-2.8-1.7-5.5-3.5-7.4-6.3c-2.6-2.7-4.9-5.8-8.2-7.7c-1.1-0.5-1.4-1.6-1.8-2.5c-0.3-1.8-1.7-2.6-2.9-3.6
		C19.6,161.1,19,160.2,18.8,159z"/>
	<path class="st37" d="M188.6,147.8c0.3,0,0.7,0,1,0.1c0.1,0.9-0.3,1.4-1,1.8c-2.9-1.9-6.1-0.8-9.1-0.9c-7-0.2-14-0.1-20.9-0.1
		c0-0.6,0-1.2,0-1.8c3.7,0,7.5,0,11.2,0C176,148.1,182.4,146.4,188.6,147.8z"/>
	<path class="st38" d="M91.6,199.7c9.4,0.1,18.8,0.1,28.2-1c-2.9,2.2-6.2,2.1-9.6,2c-6.2,0.7-12.4,0.6-18.7,0l0,0
		c-0.3-0.3-0.4-0.5-0.3-0.8C91.4,199.9,91.5,199.7,91.6,199.7z"/>
	<path class="st39" d="M1.8,118.9c7.7,0.3,15.5-0.9,23.5,1.1c-1.4,1.2-2.6,0.8-3.7,0.7c-5.9-0.6-11.8-0.6-17.8,0
		c-0.6,0.4-1.3,0.7-1.9,1.1C1.9,120.7,1.8,119.8,1.8,118.9z"/>
	<path class="st40" d="M121.6,198.7c4.4-2.5,9.5-2.7,14-4.8c0.6,0.4,0.6,0.8,0.1,1.2C131.2,196.8,126.8,199.2,121.6,198.7z"/>
	<path class="st41" d="M91.5,200.9c6.2,0,12.4,0,18.7,0C104,202.2,97.8,202.2,91.5,200.9z"/>
	<path class="st42" d="M66.7,194.7c4,1,8,2.1,12,3.1c0.6,0.3,0.6,0.7,0,1.1c-4.7-0.4-9.1-2-13.4-3.9
		C65.7,194.4,66.1,194.3,66.7,194.7z"/>
	<path class="st43" d="M25.5,167.8c4.1,1.2,6.4,4.1,8.2,7.7C30.3,173.7,28.1,170.6,25.5,167.8z"/>
	<path class="st44" d="M167.6,175.6c1.4-3.3,3.7-5.6,7-6.9C172.9,171.7,170.6,174,167.6,175.6z"/>
	<path class="st45" d="M41.1,181.8c3.4,0.6,6.1,2.6,8.6,4.8c0.3,0.2,0.5,0.4,0.3,0.7c-0.1,0.2-0.3,0.3-0.4,0.3
		C46.6,186,43.6,184.3,41.1,181.8z"/>
	<path class="st46" d="M199.8,117.7c-2.3,0-4.5,0-6.8,0c2.9-1.2,7-0.2,7.5-4.9C200.8,114.6,200.8,116.2,199.8,117.7z"/>
	<path class="st47" d="M78.7,198.9c0-0.4,0-0.7,0-1.1c3.1,0.6,6.2,0.5,9.1,1.8c-1.2,1-2.4,0.6-3.6,0.2
		C82.3,199.9,80.4,199.9,78.7,198.9z"/>
	<path class="st48" d="M145.5,190.9c0.8-3.3,3.8-3.2,6.2-4.1c0.3,0.2,0.4,0.4,0.3,0.6c-0.1,0.2-0.2,0.3-0.3,0.3
		C149.6,188.7,147.5,189.8,145.5,190.9z"/>
	<path class="st49" d="M151.6,187.6c0-0.3,0-0.6,0-0.8c1.3-2.1,3.4-2.9,5.7-3.1C155.9,185.7,153.7,186.5,151.6,187.6z"/>
	<path class="st50" d="M159.5,181.8c1.6-2,3-4.1,5.9-4.1C163.7,179.4,162.4,181.7,159.5,181.8z"/>
	<path class="st51" d="M66.7,194.7c-0.5,0.1-0.9,0.2-1.4,0.3c-1.9-0.2-3.5-0.8-4.9-2.1C62.7,192.6,64.8,193.3,66.7,194.7z"/>
	<path class="st52" d="M84.1,199.8c1.2-0.1,2.4-0.1,3.6-0.2c1.3,0,2.6,0.1,3.8,0.1c0,0.4,0,0.8,0,1.2C89,201,86.5,201.2,84.1,199.8z
		"/>
	<path class="st48" d="M49.7,187.6c0-0.3,0.1-0.6,0.1-0.9c1.7,0.5,3.5,0.9,4,3C52.4,188.9,51.1,188.3,49.7,187.6z"/>
	<path class="st53" d="M135.8,195.1c0-0.4-0.1-0.8-0.1-1.2c1.4-0.3,2.8-0.7,4.1-1C139.1,194.7,137.4,194.9,135.8,195.1z"/>
	<path class="st54" d="M20.8,161.7c2.1,0.3,3,1.6,2.9,3.6C22.7,164.1,21.7,162.9,20.8,161.7z"/>
	<path class="st55" d="M168.6,110.9c4,3.9,9.4,5.2,14.1,7.9c0.9,0.8,1.5,1.8,1.8,2.9c1.4,2.3-2.4,4.5-0.2,6.8
		c-1.3,5.1-5.2,7.6-9.9,8.7c-10.9,2.5-21.1-0.3-30.7-5.3c-14.2-7.3-24.9-18-31.8-32.5c-0.7-1.1-1.2-2.4-1.4-3.7
		c-0.1-1.9-0.3-3.7-0.9-5.5c-0.4-2-0.4-3.9,0.9-5.6c0.4-5.6-0.7-10.8-3.8-16.4c4.3,1.2,7.2,3.4,10,5.8c0.2,2.4,0.7,4.7,0.5,7.3
		c0,0.6,1-0.5,0.4-0.2c-0.2,0.1-0.4-0.1-0.3-0.4c0.9-1.6-2.7-5.5,2.5-5c4.7,3,10.2,4.7,14,9c2,10,8.7,16.4,16.5,22.1
		c1.1,0.7,2.3,1.4,3.4,2C158.3,111.6,163,114.3,168.6,110.9z"/>
	<path class="st56" d="M183.7,121.8c-1.1-0.7-1-1.9-1-3c6.6,2.8,10.1,7,9.8,11.7c-0.4,5.4-4.3,9.4-11,11.4
		c-10.5,3.1-20.7,0.6-30.9-1.9c-5.1,0.7-9.2-2.2-13.5-4.2c-3.5-1.6-6.5-4-9.6-6.3c-4.6-3.6-7.6-8.6-10.6-13.5c-1-1.9-1.6-4-2.5-5.9
		c-0.7-1.6-1.2-3.2-1.9-4.8c-0.4-2.2-2-4.5,0.1-6.6c3.3,5.1,5.9,10.7,10.1,15.3c12.5,13.4,27,23,46.2,22.7
		c6.4-0.1,12.1-2.1,14.6-8.9C182.2,125.8,185.5,123.8,183.7,121.8z"/>
	<path class="st55" d="M138.4,81.7c3.9-7,15.5-9.8,24.1-5.8c2.4,1.1,4.7,2.3,6.3,4.7c3.1,7.6-2.1,12.8-5.6,18.4
		c-0.9,1.5-2.4,2.7-3.9,3.8c-1,0.6-2,0.3-2.9-0.1c-6.2-3.8-11.5-8.6-15.6-14.7C139.4,86.1,137.8,84.3,138.4,81.7z"/>
	<path class="st57" d="M145.7,152.8c-0.1,0.3-0.1,0.7-0.2,1c-1.4,0.9-3,1.4-4.7,1.2c-14.1-1.3-28.3-0.3-42.4-0.6
		c-2.6-0.1-5.4,0.3-7.7-1.5c-1.3-4.6,0.6-8.3,3.3-11.7c2.3-1.3,4.9-1.3,7.3-1c8.1,1.1,16.2,0.9,24.3,0.9c2.7,0,5.2,1.1,7.8,1.2
		c0.6,0,1.1,0.1,1.6,0.3c3.6,2.4,7.8,3.9,10.6,7.3C146.4,150.9,146.1,151.9,145.7,152.8z"/>
	<path class="st58" d="M35.7,151.3c-0.3-0.2-0.6-0.3-0.9-0.5c-1.5-4.5-3.3-9-4.5-13.6c-2.8-10.3,3-22.6,12.4-26.6
		c9.3-1.1,11.9,0.3,15,8.2c0.2,4.6,1.3,9.2-0.4,13.7c-1.2,0.9-2.2,0.2-3.1-0.5c-1.1-1-2-2.2-3-3.3c-7-7.6-7.2-7.6-12.8,1.4
		c-3.1,5.1-2.5,10.5-2,16C36.6,148,37.3,149.8,35.7,151.3z"/>
	<path class="st59" d="M46.7,100.8c-1.9-5.6-0.6-8.5,4.6-10.3c6.4-2.2,13.2-3.1,19.8-3.4c4.8-0.3,7.6-1.6,8.7-6.2
		c1.6,1.5,1.3,3.5,1.2,5.3c-1,3.1,0.1,6,0.5,9c-0.1,0.8-0.3,1.6-1.1,2c-10,1.2-20,1.7-29.8,4.1C49.2,101.6,47.8,101.7,46.7,100.8z"
		/>
	<path class="st57" d="M46.7,100.8c9.8-3.1,20-3.5,30.1-4.9c1.4-0.2,2.6,0.2,3.7,0.9c2.2,1.7,2.5,4,2.2,6.5c-1,3-3.7,3.4-6,3.5
		c-8.3,0.6-16.6,1.4-24.7,3c-1.5,0.3-3,0.1-4.3-0.9C47.7,106.1,46.2,103.6,46.7,100.8z"/>
	<path class="st59" d="M110.4,84.6c0.1,2,0.2,3.9,0.3,5.9c0.7,1.6,0.4,3.4,0.3,5.1c-0.3,0.5-0.7,0.9-1.3,1.2
		c-7.6,1.3-15.3,0.4-23,0.6c-2.1-0.6-2.3-2.4-2.6-4.2c0-2.5,0-5-0.5-7.5c0-1.2,0-2.3,1.2-3c1,1.4,2.2,2.2,4.1,2.1
		C96.2,84.7,103.3,84.7,110.4,84.6z"/>
	<path class="st60" d="M138.4,81.7c4.4,8.3,10.9,14.6,18.3,20.1c0.5,5.3-3.5,5.3-7,5.9c-7.6-4.4-12.7-10.9-16.4-18.6
		c-0.7-1.5-1.3-3.1,0.5-4.4C135.4,83.9,135.3,80.4,138.4,81.7z"/>
	<path class="st59" d="M47.7,108.9c10.1-2.2,20.3-2.9,30.5-3.9c1.7-0.2,3.4-0.2,3.7-2.4c3.1,1.5,3,4.6,3.6,7.4
		c-0.1,1.1-0.5,2-1.7,2.4c-2,0.3-3.5-0.9-5.2-1.5c-6.8-2.6-12.8,1.2-13.6,8.5c-0.3,2.4,0.4,5-1,7.3c-1.2,0.9-2,0.1-2.2-0.9
		c-0.5-2.4-2.6-2.8-4.3-3.6c-0.8-0.9,0.1-2.4-1-3.3c-2.6-6.2-7.2-9-13.9-8.1C43.9,108.9,46.4,110.5,47.7,108.9z"/>
	<path class="st61" d="M158.6,102.6c0.7-3.5,4.2-4.8,5.8-7.7c2.5-4.6,4.6-9,4.3-14.3c8.3,7.7,9,16.5,2,27.3
		C166.9,110.1,161.7,107.8,158.6,102.6z"/>
	<path class="st62" d="M135.6,143.9c-0.3,0-0.6-0.1-0.9-0.2c-6.1-2-9.5-6.8-12.9-11.7c-0.7-1-0.9-2.2-0.1-3.3c2.1-1.8,4.2-0.9,6.3,0
		c7,4.9,14.4,8.9,22.7,11.5c-0.7,1.5-1.3,3-2,4.6C144.1,146.8,139.8,145.2,135.6,143.9z"/>
	<path class="st63" d="M158.6,102.6c3.9,2.1,6.8,6.3,12.1,5.3c0,1.5-1.6,1.9-2.2,3c-4,5.5-8.4,3-12.7,0.7c-2.1-1.1-4.1-2.6-6.2-3.9
		c2-2.3,6.3-2,7-5.9C157.3,102.1,158,102.4,158.6,102.6z"/>
	<path class="st64" d="M135.6,143.9c4.4-0.4,8.7,0,13,0.8c-0.4,2.1-0.3,4.4-2.9,5.3C141.9,148.5,138.4,146.8,135.6,143.9z"/>
	<path class="st65" d="M84.9,82.7c0,1,0,2,0,3c-1.1,3.2-2.9,3.4-5.2,1.1c0-2,0.1-4,0.1-6C82.8,77.7,83.9,80,84.9,82.7z"/>
	<path class="st66" d="M11.8,129.7c-1.5-0.1-3.2,0.7-4.9-1.1c4-1.4,7.8-0.8,11.6-0.5c1.1,0.1,1,1,0.1,1.7
		C16.3,129,14.1,129,11.8,129.7z"/>
	<path class="st67" d="M188.6,147.8c-6.3-0.5-12.7,1-18.9-0.9C176,147.2,182.4,145.6,188.6,147.8z"/>
	<path class="st68" d="M3.8,120.6c5.9-1.4,11.8-1.3,17.8,0C15.6,120.6,9.7,120.6,3.8,120.6z"/>
	<path class="st69" d="M119.7,75.7c-4,1.2-0.9,4.9-3,7.6c0.6-3.5-2-6.3-0.2-9.3C117.9,74.1,118.9,74.7,119.7,75.7z"/>
	<path class="st70" d="M11.8,129.7c2.3-1.4,4.5-1.4,6.8,0C16.3,129.7,14.1,129.7,11.8,129.7z"/>
	<path class="st71" d="M19.3,144.5c-2.3,0.3-3.7,0.7-5-0.3C15.8,143.6,17.3,143.4,19.3,144.5z"/>
	<path class="st59" d="M90.5,151.8c1.5,1.5,3.5,0.9,5.2,0.9c10.3,0.1,20.6,0.2,30.9,0c6.3-0.1,12.6,0.5,18.8,1.1
		c-5.4,12.6-13.7,15.8-28.8,11c-2.6,0.2-4.2-2.2-6.6-2.6c-6.4-3.3-12.9-3.4-19.3,0.1c-0.9,0.5-2.1,1.1-3.3,0.5
		c-1.9-3.6,0-6.7,1.2-9.9C89.1,152.2,89.6,151.7,90.5,151.8z"/>
	<path class="st72" d="M38.8,159.5c-0.4-1.3-0.8-2.5-1.1-3.8c0.5-1.5-0.3-3-0.4-4.5c0.4-6.6,1.8-13,5.3-18.8c1.7-2.9,4-4.4,7.4-2.4
		c5.4,5.3,7.2,11.9,7,19.3c-0.2,2.7-1.8,4.5-4.1,5.7c-4.1,2.3-7.8,5.4-12.7,6.1C39.3,161,39.1,160.2,38.8,159.5z"/>
	<path class="st73" d="M38.7,151.8c-0.2,1.3,0.7,2.9-0.9,3.9c-0.7-1.5-1.3-2.9-2-4.4c-0.2-1.6-0.3-3.3-0.6-4.9
		c-2.3-10.3,1.5-18.4,8.8-25.3c1.5-1.4,1.9-1.2,3.1,0.5c2.9,3.9,6.5,7.4,9.8,11c4.2,2.4,3.3,6.5,3.3,10.2c0,1.8-0.2,3.7-0.9,5.4
		c-0.2,1.1-0.6,2.1-1.7,2.7c-1,0.3-1.3-0.5-1.7-1.2c0.2-7-1.9-13.3-6.2-18.9c-0.8-1-1.8-2-2.6-3c-1.2-1.5-2.3-1.1-3,0.5
		C41,135.8,37.6,143.3,38.7,151.8z"/>
	<path class="st74" d="M53.5,171.6c-2.9,0-4.7,2.2-6.9,3.4c-0.2-0.1-0.4-0.2-0.7-0.3c-3.7-5-3.5-8,1.1-12.5c2.7-2.7,6.1-4.6,8.2-7.9
		c0.6-0.5,1.2-0.9,2.1-0.8c3.6,3.3,3.3,8.2,4.9,12.3c0.6,5.2,0.5,5.4-4.4,5.4C56.4,171.3,54.9,171,53.5,171.6z"/>
	<path class="st75" d="M87.7,162.6c2.5-1,4.9-1.9,7.4-2.9c5.6-2.3,10.6-0.3,15.6,2.1c0.2,0.2,0.3,0.5,0.2,0.7
		c-0.1,0.2-0.2,0.4-0.3,0.4c-10.9-5-20.1,0.3-29.5,4.7c-5.8,2.7-11.5,6-18.3,5.2c-1.2-0.1-2.3,0-3.3-0.9c0.7-0.9,1.9-0.5,2.8-1.1
		c7.1-0.7,13.4-3.6,19.7-6.8C83.9,163.4,85.5,161.9,87.7,162.6z"/>
	<path class="st76" d="M85.7,179.8c9.3-7.3,18.3-6.1,27.1,1C103.9,176.4,95,173.2,85.7,179.8z"/>
	<path class="st77" d="M38.8,159.5c0.3,0.4,0.7,0.8,1,1.3c1.1,0.7,1.6,1.8,2,2.9c0.9,2.1,1.2,4.5,1.7,6.7c0.4,1.8,1,3.5,3.1,4.1
		c0,0.2,0,0.4-0.1,0.5c-0.6,0.7-1.4,0.9-2.2,0.7c-0.8-0.2-8.1-11.3-8-12.2C36.5,161.8,39,161.5,38.8,159.5z"/>
	<path class="st78" d="M62.9,171.5c-1.1,0.1-2.2,0.2-3.4,0.4c-2-0.1-4-0.2-6-0.3c1.1-0.9,2.4-0.9,3.7-0.7c4.7,0.8,5.2-1.5,3.8-5.1
		c0.8-0.6,1.6-0.5,2.2,0.2C64.2,167.9,64.3,169.7,62.9,171.5z"/>
	<path class="st79" d="M110.6,162.9c0-0.4,0-0.7,0-1.1c2.4,0.2,4.2,1.7,6,3.1C113.8,166.7,112.3,164.6,110.6,162.9z"/>
	<path class="st80" d="M112.7,98.8c-0.5,2.4,1,4.5,1,6.9c-0.7,2.2,0.7,4.4-0.1,6.6c-0.2,0.5-0.4,0.9-0.7,1.3
		c-8.1,6.6-19,4.4-23.6-4.8c-0.7-1.4-1.8-2.9-0.3-4.6c2.8-1.5,5.8-1,8.7-0.6c2.1,0.2,4.3,0.6,6.4,0.7c3.3,0.2,5.6-0.6,5.2-4.6
		c-0.1-1.3,0.1-2.6,1.1-3.7l0.3-0.3c0.4-0.5,0.7-0.4,0.9,0.1C112,96.9,112.3,97.8,112.7,98.8z"/>
	<path class="st81" d="M145.7,113.8c5.4,2,10.5,4.7,16.3,5.6c4.3,0.6,8.5,1,13.3-2.1C170,123.3,152.9,120.7,145.7,113.8L145.7,113.8
		z"/>
	<path class="st82" d="M153.7,130.8c7.6,0.9,15.1,3.5,22.7,0.3c-8,4.1-15.9,2.9-23.8-0.3C153,130.4,153.3,130.4,153.7,130.8z"/>
	<path class="st82" d="M128.4,94.8c-3.1-3.7-4.9-8-5.1-12.9C125,86.2,126.7,90.5,128.4,94.8z"/>
	<path class="st83" d="M153.7,130.8c-0.4,0-0.7,0-1.1,0c-4.5-1.5-8.7-3.5-12-7c0.3-0.5,0.7-0.4,1,0
		C145.7,126.1,149.7,128.4,153.7,130.8z"/>
	<path class="st84" d="M141.7,123.8c-0.3,0-0.7,0-1,0c-3.8-1.7-6.5-4.5-8.2-8.5C135.5,118.1,138.6,121,141.7,123.8z"/>
	<path class="st85" d="M121.7,97.8c-2.2-2.6-3-5.6-2.9-10C120.7,91.6,121.2,94.7,121.7,97.8L121.7,97.8z"/>
	<path class="st86" d="M183.7,121.8c2.2,2,0,4,0,5.9c-0.6-0.3-2.4,2.1-1.8-0.4C182.2,125.5,183.8,123.9,183.7,121.8z"/>
	<path class="st87" d="M127.6,108.6c-2-0.7-2.7-2-2.7-5C126.1,106,126.8,107.3,127.6,108.6z"/>
	<path class="st88" d="M135,103.6c-2.4-1.2-3.6-2.2-4.1-4.4C132.8,100,133.7,101.2,135,103.6z"/>
	<path class="st89" d="M121.7,97.8c1.1,1.1,2.1,2.3,1.6,4.2C121.7,100.9,121.7,99.3,121.7,97.8C121.7,97.8,121.7,97.8,121.7,97.8z"
		/>
	<path class="st83" d="M145.7,113.8c-1.6-0.1-2.7-0.9-3.6-2.7C144.1,111.2,144.9,112.5,145.7,113.8
		C145.7,113.8,145.7,113.8,145.7,113.8z"/>
	<path class="st90" d="M111.6,95.9c-0.3,0-0.6-0.1-0.9-0.1c0-1.8,0-3.5,0-5.3C111.9,92.1,111.7,94,111.6,95.9z"/>
	<path class="st91" d="M127.9,128.6c-2.1,0.5-4.4-0.7-6.3,1.1c-1.9,0.3-2-1.5-2.8-2.5c-1.5-2.8-3.2-5.5-4.5-8.4
		c-0.1-1,0.3-1.9,0.9-2.6c0.8-0.7,1.6-1.2,2.6-0.8C120.7,120.2,123.9,124.7,127.9,128.6z"/>
	<path class="st92" d="M117.8,115.5c-0.7,0.5-1.3,0.9-2,1.4c-3.1,0.1-3.6-1.7-3.3-4.3c0-0.3,0-0.5,0.1-0.8c0.7-1,1-2.5,2.7-2.4
		C116.2,111.5,117,113.5,117.8,115.5z"/>
	<path class="st93" d="M115.4,109.5c-0.9,0.8-1.8,1.6-2.7,2.4c1.1-1.9-2.8-4.6,0.9-6.2C114.9,106.6,114.8,108.2,115.4,109.5z"/>
	<path class="st94" d="M149.1,86.7c1.7,2,3.5,4,4.9,5.6C152.1,91.3,150.5,89.1,149.1,86.7z"/>
	<path class="st95" d="M157.3,94.2c1.6-0.2,2.2,0.7,2.7,2.1C158.4,96.5,157.8,95.6,157.3,94.2z"/>
	<path class="st80" d="M119.8,126.8c0.6,1,1.2,2,1.8,3c3.4,5.5,8.1,9.9,13.1,13.9c-13.6-0.6-27.2-1.2-40.8-1.8
		c-0.2-0.2-0.4-0.3-0.7-0.5c-2-4.1-0.1-8.8-2.2-12.9c0-0.9,0.2-1.8,1.2-2.2C101.3,126.2,110.6,125.6,119.8,126.8z"/>
	<path class="st96" d="M90.5,151.8c-0.3,0.3-0.6,0.7-0.9,1c-2.6,1.4-3.6,0.1-4-2.3c0-0.6,0-1.1,0.1-1.6c1.1-2.7,1.3-5.9,4-7.7
		c1.4-0.5,2.7-0.5,3.8,0.5c0,0,0.4,0.2,0.4,0.2C93.1,145.3,92.1,148.6,90.5,151.8z"/>
	<path class="st97" d="M57.9,148.6c1.1-5.4,1.7-10.8-1.2-16c0-4.6-0.1-9.3-0.1-13.9c1.2,0.7,1.1,2,1.2,3.1c2.3,2.2,1.7,6.8,6,7.3
		c0.6,0.4,1.1,0.9,1.4,1.6c0.2,4.1-1.6,8.1-0.9,12.2c-2.3,1.7-3.6,4.1-4.4,6.7C58.7,150.3,58.2,149.7,57.9,148.6z"/>
	<path class="st98" d="M112.6,112.6c0.9,1.6,1.3,3.5,3.3,4.3c-0.5,0.6-1,1.1-1.4,1.7c-3.8,5.7-9.5,5.6-15.3,4.8
		c-2.8-0.4-5.3-1.7-7.6-3.4c-3.1-2.9-6.3-5.6-6.9-10.2c-0.9-2.4-1.8-4.8-2.8-7.2c-0.5-1.9-0.9-3.8-1.4-5.8c0-0.6,0-1.2,0-1.9
		c-0.3-1.8-1.1-3.8,1.2-4.8c2.2-0.9,3.4,0.5,3.9,2.6c0.3,1.4,0.7,2.8,1,4.2c2.1,2.2,2.8,4.9,2.3,7.8
		C93.6,116.5,102.6,119.5,112.6,112.6z"/>
	<path class="st99" d="M85.5,92.7c-3.8-3.1-4.2-2.9-5,2.2c-0.8-2.7-2.4-5.2-0.8-8.1c2,0.7,3.7,0.4,5.2-1.1
		C86.4,87.9,85.7,90.3,85.5,92.7z"/>
	<path class="st100" d="M88.9,104.7c-1.3-2.5-2.2-5-2.3-7.8c2.6-2.2,5.7-1,8.6-1.1c5.1-0.1,10.2,0.1,15.4,0.2
		c0.7,10.6,0.6,10.9-9.8,9.5C96.7,105,92.8,105,88.9,104.7z"/>
	<path class="st58" d="M64.6,130.9c-0.3-0.4-0.7-0.8-1-1.2c-0.7-1-0.9-1.9-0.1-3c0-1.3,0.2-2.6,0.1-3.9c-0.5-5.5,0.8-10.3,5.8-13.2
		c5.2-3,9.8-1,14.1,2.2c3.2,1.2,4.2,4.3,6.1,6.8c1,2.6,3.3,4.9,2.1,8.1c0.1,0.6,0.1,1.3,0.2,1.9c1.2,4.7,1.1,9.1-2.1,13.1
		c-1.4,2.2-1.2,5.1-3.1,7.1c-1.9-2-1.3-4.3-0.9-6.6c1.5-9-2.7-15.6-9.1-21.3c-1.2-1-1.8-0.9-2.7,0.3c-1.6,2.3-3.3,4.5-5.1,6.7
		C67.8,129.4,67,131.3,64.6,130.9z"/>
	<path class="st101" d="M63.5,126.8c0,1,0.1,2,0.1,3c-7,1.2-4.8-4.6-5.8-7.8C63.5,119.1,62.3,124.4,63.5,126.8z"/>
	<path class="st102" d="M88.6,118.8c-1.7-2.3-3.4-4.6-5.1-6.9c0.9-0.4,1.1-1.3,1.2-2.2c2.1,3.2,4.4,6.2,7.1,8.9
		C90.8,119.7,89.7,119.6,88.6,118.8z"/>
	<path class="st103" d="M167.4,101.5c0.3-0.3,0.6-0.6,0.7-0.6c0.6,0.2,1.3,0.4,1.7,0.8c0.5,0.6-0.1,0.9-0.6,0.7
		C168.6,102.2,168,101.9,167.4,101.5z"/>
	<path class="st104" d="M86.6,149.7c-0.1,2.1,0.7,3.3,3,3.1c-0.5,3.3-2.1,6.4-2,9.8c-1.5,1-3.1,2.1-5,2.2c-2.5-3.5,0.1-6.8,0.5-10.2
		C84.1,152.8,83.8,150.1,86.6,149.7z"/>
	<path class="st105" d="M38.7,151.8c-2.5-4.2-0.1-8.4,0.5-12.4c0.5-4,2.3-7.9,3.6-11.7c0.5-1.3,0.9-3.2,2.5-3.4
		c1.8-0.2,2.1,1.8,2.9,2.9c0.8,1,1.4,2.2,1.3,3.6c-2.4-1-4-0.8-5.6,1.8C40.5,138.6,39.1,145,38.7,151.8z"/>
	<path class="st106" d="M40.8,163.8c-0.6-0.9-1.1-1.8-0.9-3c4.1-2.2,8.1-4.5,12.2-6.7c1.8-1,3.5-2,3.7-4.3c0.4,0.5,0.7,1,1.1,1.4
		c0.8,1-0.2,1.9-0.1,2.9c-0.3,0.3-0.6,0.5-1,0.8c-2.6,3.8-6.7,5.9-10.3,8.4C44.1,164.1,42.5,165.1,40.8,163.8z"/>
	<path class="st107" d="M56.7,154c-1.3-1,0.7-1.9,0.1-2.9c0.4-0.8,0.7-1.7,1.1-2.5c0.6,0.4,1.1,0.7,1.7,1.1c1.5,0.8,1.9,2.2,2.3,3.6
		c0.4,2.4,2,4.4,2.6,6.8c0.2,2.2,0,4.1-1.9,5.6c-0.6,0-1.1,0-1.7,0C59.4,161.9,59,157.6,56.7,154z"/>
	<path class="st108" d="M40.8,163.8c5.8-1.6,10.1-5.8,14.9-9c-0.7,3.2-3.5,4.5-5.8,6.5c-5.8,5-7.4,7.8-3.3,13.2
		c-2.5,1.3-3.2-0.4-3.7-2.2C42.2,169.4,41.5,166.6,40.8,163.8z"/>
	<path class="st58" d="M62.6,165.8c0.3-2,0.6-3.9,1-5.9c-0.6-2.4,0.6-4.7,0.7-7.1c0.1-1,0.2-1.9,0.5-2.9c0.4-1.2,0.7-2.4,1.1-3.5
		c1.8-5.8,4.4-11.3,7.4-16.6c1.3-2.3,2.9-4.8,6.1-2.2c5.9,8.2,6.8,17.3,5.1,26.9c-0.3,3.5-2.2,6.7-1.9,10.3
		c-6.2,3.3-12.2,7.5-19.8,6.7C62.8,169.6,62.7,167.7,62.6,165.8z"/>
	<path class="st109" d="M88.6,118.8c1.1-0.1,2.1-0.1,3.2-0.2c7.6,5.2,15.1,4.9,22.6-0.1c3,1.9,3.3,5.6,5.3,8.2
		c-1.8,1.8-4.1,1.1-6.1,1c-7.3-0.4-14.8,1.2-22-1C90.6,124.1,89.6,121.4,88.6,118.8z"/>
	<path class="st110" d="M89.7,141.8c0.7-4.4,1.4-8.7,2.1-13.1c3.2,4,1.6,8.6,1.7,13C92.3,141.7,91,141.8,89.7,141.8z"/>
	<path class="st111" d="M66.8,146.8c-0.1,1.1,0,2.3-1,3.1c-2.6-1.3-3.2-3.4-2.4-6.1c-1.1-4.4-0.3-8.7,1.2-12.9
		c3.5-4.3,7.3-8.4,9.9-13.6c8.3,7,15.2,14.7,12.2,27.1c-0.3,1.4-0.1,3-0.1,4.4c0,0.3,0,0.5,0,0.8c-0.7,1.6-1.4,3.2-2.1,4.8
		c-0.9-3.9,0.1-7.9-0.8-11.9c-1.1-5.2-2.8-10.1-5.2-14.8c-3.7-4.2-4.1-4.1-6.1,0.6C70,134.3,67.6,140.3,66.8,146.8z"/>
	<path class="st112" d="M63.4,143.8c0.8,2,1.6,4.1,2.4,6.1c-0.1,1-0.1,1.9-0.2,2.9c-1.2,2.2-2.9,2.5-4.9,1c-0.4-1.3-0.8-2.6-1.1-4
		C60.4,147.5,57.4,142.8,63.4,143.8z"/>
	<path class="st113" d="M60.8,153.7c1.7,0.2,3.4,0.1,4.9-1c-0.1,2.5-0.9,4.9-2,7.1C62.2,158.1,61.1,156,60.8,153.7z"/>
	<path class="st114" d="M66.8,146.8c-1-8.6,3.2-15.8,6.5-23.2c1.1-2.6,2.6-2.3,3.8,0c0.7,1.3,1.1,2.8,1.6,4.1
		c-2.8-1.4-3.4,1-4.2,2.6C71.8,135.9,69.3,141.3,66.8,146.8z"/>
</g>
<g>
	<circle class="st35" cx="101" cy="383.9" r="99.9"/>
	<path class="st115" d="M142.2,390.4c2.5-1.1,3.1,0.6,3.5,2.7c1.9,10.7,3.7,21.3,5.8,31.9c0.4,2.3-0.1,3.3-2.3,3.7
		c-1.9,0.3-3.8,0.6-5.7,1.1c-2.9,0.7-4.1-0.2-4.5-3.3c-1.3-8.8-3.1-17.5-4.7-26.3C132.8,391.2,132.8,391.2,142.2,390.4z"/>
	<g>
		<defs>
			<path id="SVGID_1_" d="M16.9,398.9c0,45.4,45.6,82.2,91,82.2c45.4,0,82.2-36.8,82.2-82.2c0-45.4-36.8-82.2-82.2-82.2
				C62.5,316.7,16.9,353.5,16.9,398.9"/>
		</defs>
		<clipPath id="SVGID_00000119111057761831789040000013643068170677336705_">
			<use xlink:href="#SVGID_1_"  style="overflow:visible;"/>
		</clipPath>
		<path style="clip-path:url(#SVGID_00000119111057761831789040000013643068170677336705_);fill:#94999C;" d="M54.8,530
			c3.5,9,17.9,24.5,17.9,24.5s35.2-21.1,51.5-12.2c16.2,8.9,29.2,14.3,39.7,10.4c10.5-3.9-34.6-86.1-34.6-86.1l-58.6-22.4
			c0,0-1.3,14.8-8,17.5c-6.7,2.6-13.8,27.1-13.4,31.7C49.8,498.1,54.8,530,54.8,530"/>
		<path style="clip-path:url(#SVGID_00000119111057761831789040000013643068170677336705_);fill:#CFD1D4;" d="M94.1,390.8
			c-8.2-4.5-67.3,18.7-67.3,18.7s-8.7,15.6-3.3,21.7c5.4,6.1,24.8,3.4,30.7,0c5.9-3.4,21.6-6,21.6-6L94.1,390.8z"/>
		<path style="clip-path:url(#SVGID_00000119111057761831789040000013643068170677336705_);fill:#6B4021;" d="M121.8,335.2
			c0,0,12.9-1.9,23.7,8.2c10.8,10-1.8,37.1,10.3,49.1c12.1,12,0.2,36.9-9.1,49.6c-9.3,12.8-40.8,17.1-55.1,4.7
			c-14.3-12.4-0.3-59.8-1-85.8C90,334.9,117.2,332.8,121.8,335.2"/>
		<path style="clip-path:url(#SVGID_00000119111057761831789040000013643068170677336705_);fill:#8ABDD9;" d="M132.3,402.3
			c3.2,3.5,11.5-2.7,11.5-2.7s-0.2,30.7-9.1,33c-8.9,2.4-31.6-24.2-30.7-31.4C104.9,394,125.2,394.6,132.3,402.3"/>
		<path style="clip-path:url(#SVGID_00000119111057761831789040000013643068170677336705_);fill:#FFFFFF;" d="M97.9,394.6
			c0,0,9,7.7,24.7,11.3c15.7,3.6,24.2-3.7,32.3,6.4c12.1,15.2-7.6,43.2-17.9,57.8c-3.8,5.4-12,20.4-13.6,34.9c0,0-27.3,7.9-50.8-2.4
			l-1.8-33.4C70.9,469.1,56.1,424.1,97.9,394.6"/>
		<path style="clip-path:url(#SVGID_00000119111057761831789040000013643068170677336705_);fill:#CFD1D4;" d="M126.1,427.2
			c0,0,12.5-29.7,16.1-31.6c3.6-1.9,12.8,2.7,14.6,6.7c1.8,4.1,0,12.9,0,12.9S147,404,126.1,427.2"/>
		<path style="clip-path:url(#SVGID_00000119111057761831789040000013643068170677336705_);fill:#D1E5ED;" d="M185.8,552.7
			c-5.7,11.6-19.6,14.9-19.6,14.9s-1.1-1.6-2.8-4.5c-0.2-0.3-0.4-0.6-0.6-0.9c-10.9-17.7-44.4-74.5-43.7-104
			c0.8-35.3,23.8-54.6,23.8-54.6c11.7,2.8,15.4,6,15.4,6s3.9,20.1,0.3,44.2c-3.6,24.1-10.2,30.5-6.9,32.3c3.3,1.8,0,5.4,0,5.4
			s19.4,27,23,35.4c2.3,5.5,6.3,14.8,8.8,20.6c0.2,0.4,0.3,0.8,0.5,1.2C185.1,551.1,185.8,552.7,185.8,552.7"/>
		<path style="clip-path:url(#SVGID_00000119111057761831789040000013643068170677336705_);fill:#D1E5ED;" d="M106.2,399.6
			c0,0-10.6,6.8-17.2,23.3c-6.7,16.5-27.7,47.5-32.6,55.5c-4.9,8-1.5,51.6-1.5,51.6s-6.2-26.4-8.9-36.7
			c-2.7-10.3,8.9-35.8,10.6-37.1c1.7-1.4,10.7,1.1,9-9.2c-1.7-10.3,22.2-54.9,28.6-56.1C94.1,390.8,104.3,392.8,106.2,399.6"/>
		<path style="clip-path:url(#SVGID_00000119111057761831789040000013643068170677336705_);fill:#ADB0B2;" d="M73.5,401.8
			c-0.2,0.4-0.4,0.7-0.6,1c-2.4,3.4-6.8,6.2-6.8,6.2s-8.1,11.3-8.1,12.6c-0.1,1.1-14,11.2-20.2,11h0c-0.8,0-1.5-0.2-2-0.7
			c-3.7-3.5,12.5-32.5,16-38.8c0.2-0.4,0.4-0.7,0.5-0.9c0.1-0.2,0.1-0.3,0.1-0.3s-2.8-10.6,9-8.6c9.9,1.6,11.8,9.5,12.9,14.7
			C74.5,399.3,74.2,400.6,73.5,401.8"/>
		<path style="clip-path:url(#SVGID_00000119111057761831789040000013643068170677336705_);fill:#FFC29E;" d="M34.8,408.1
			c8.2-10.7,36.8-31.5,51.9-37.6l3.8,7c0,0-29.2,25.7-36,36.6c-6.9,11-15.4,15.5-23.5,11.9S33.1,410.4,34.8,408.1"/>
		<path style="clip-path:url(#SVGID_00000119111057761831789040000013643068170677336705_);fill:#CFD1D4;" d="M70.7,399.6l-1.5,1.8
			l-0.8,0.9l-2.6,2.9c0,0-6.4,7.8-6.2,10.9c0.2,2.2-12.2,12.3-21.9,16.5c-3.9,1.7-7.4,2.5-9.5,1.3c-7-4-5.4-16.2-1.5-24.4
			c3.5-7.2,18.8-16.4,22.7-18.7c0.5-0.3,0.8-0.5,0.9-0.5l0,0l1.5-5.7c0,0,5.3-3.2,9.5-1.2c0,0-9.3,0.4-7.7,4
			C55.3,391,68.1,399.5,70.7,399.6"/>
		<path style="clip-path:url(#SVGID_00000119111057761831789040000013643068170677336705_);fill:#E5A380;" d="M97.2,369
			c-0.2,1-0.4,1.7-0.4,1.7s-3.4-0.3-5.9,3.4C91,374,91.7,369.1,97.2,369"/>
		<path style="clip-path:url(#SVGID_00000119111057761831789040000013643068170677336705_);fill:#CFD1D4;" d="M94.1,412.8
			c0,0,6.3-17.1,8.3-20.9c2-3.8,12.5-3.2,20.4-1.7c7.9,1.5,9.5,12.1,9.5,12.1S108.2,391,94.1,412.8"/>
		<path style="clip-path:url(#SVGID_00000119111057761831789040000013643068170677336705_);fill:#E5A380;" d="M134.7,379.2
			c0,0-7.6,14-7.4,29.4c0,0-12.3,8.3-16.7-2.1c0,0,4.7-13.7,2.4-32.2C111.5,362,134.7,379.2,134.7,379.2"/>
		<path style="clip-path:url(#SVGID_00000119111057761831789040000013643068170677336705_);fill:#E5A380;" d="M99.7,368.6
			c0,0-5.9-5.9-6.6,1c-0.8,7.9,6.4,11.1,7.8,8.6C102.3,375.6,99.7,368.6,99.7,368.6"/>
		<path style="clip-path:url(#SVGID_00000119111057761831789040000013643068170677336705_);fill:#E5A380;" d="M140.9,368.9
			c0,0,5.9-5.9,6.6,1c0.8,7.9-6.4,11.2-7.8,8.6C138.3,376,140.9,368.9,140.9,368.9"/>
		<path style="clip-path:url(#SVGID_00000119111057761831789040000013643068170677336705_);fill:#FFC29E;" d="M119.7,397.3
			c-10.2,0.4-20.4-8.5-20.4-34.1c0-13.2,6.7-21.3,21.3-21.3c14.6,0,20.8,8.1,20.8,21.2C141.4,390.7,131.8,396.9,119.7,397.3"/>
		<path style="clip-path:url(#SVGID_00000119111057761831789040000013643068170677336705_);fill:#CFD1D4;" d="M175.7,495.1
			c-5.6,8.3-43.4,23.9-47.5,22.8c-1.1-0.3-2.3-0.3-3.6-0.2c-0.5,0-1.1,0.1-1.6,0.2c-3,0.5-5.6,1.4-5.6,1.4c-6-4-18.7-22.3-12.1-20.8
			c0.4,0.1,0.9,0.1,1.5,0.1c0.3,0,0.7-0.1,1.1-0.1c9.9-1.7,35.9-16.7,37-18.3c1.2-1.8,3.6-0.9,3.6-0.9s-1.7-24.9-7.5-31.2
			c-5.8-6.3-4.4-16.9-4.4-16.9c10.2-33.5,27.8-17.1,27.8-17.1C174.1,431.6,181.4,486.8,175.7,495.1"/>
		<path style="clip-path:url(#SVGID_00000119111057761831789040000013643068170677336705_);fill:#ADB0B2;" d="M73.5,401.8
			c-0.2,0.4-0.4,0.7-0.6,1c-1.6-0.1-3.1-0.2-4.5-0.6c-7.3-1.5-12.9-5.6-16.6-9.1c-0.8-0.8-1.6-1.6-2.2-2.3c0.5-0.3,0.8-0.5,0.9-0.5
			c0.5,0.6,1.2,1.3,1.9,1.9c3.7,3.6,9.4,7.8,16.9,9.2C70.5,401.6,72,401.8,73.5,401.8"/>
		<path style="clip-path:url(#SVGID_00000119111057761831789040000013643068170677336705_);fill:#6B4021;" d="M131.5,342.5
			c-0.5,0.1-1,0.1-1.5,0.3c-4.9,1.6-6.9-0.2-12.3,1.5c-6.8,2.1-7.5,4.1-12.6,11c-4.1,5.5-2,13.6-6.5,18.7c-0.7,0.8-2.9,2-4,2.2
			c-0.5,0.1-0.9,0-1.3-0.2c-1.3-0.6-1.4-2.1-1-3.3c0.3-0.9,0.8-1.8,1-2.8c0.4-1.9-0.3-3.7-0.6-5.6c-1.5-7.2-0.6-15.4,3.7-21.3
			c5.9-8.2,12.5-10.5,19.7-11.9c2.7-0.5,6.7-0.1,9.4,0.7c7.1,2.2,8.3,4.7,9.3,5.6c0.9,0.8,6.5,2.4,8.3,4.3c2.2,2.2,4.1,5.1,4.6,8.2
			c0.5,3.1,0.5,6.6-0.5,9.6c-1.2,3.6-3.1,5-0.9,7.1c1.1,1,0.4,1.8-1.1,2.6c-1,0.5-2.2,0.4-3.1-0.1c-2-1.1-2.7-3.2-3.4-5.2
			c-1-3-2.1-6-3.1-9c-0.7-2.1-1.4-4.2-1.6-6.4c-0.1-1.1,0-2.2-0.2-3.3c-0.1-0.8-0.4-1.6-0.9-2.2C132.5,342.5,132,342.4,131.5,342.5"
			/>
		<path style="clip-path:url(#SVGID_00000119111057761831789040000013643068170677336705_);fill:#784A29;" d="M129,335.5
			c-2.3-0.3-4.6-0.3-6.9-0.1c-2.3,0.2-4.5,0.6-6.7,1.3c-2.2,0.7-4.2,1.7-6.1,2.9l-0.7,0.5c-0.2,0.2-0.5,0.3-0.7,0.5l-1.3,1.1
			c-0.9,0.7-1.7,1.5-2.5,2.4c-1.6,1.6-2.9,3.4-4,5.4c-0.5,1-1,2-1.3,3c-0.1,0.3-0.2,0.5-0.2,0.8l-0.1,0.4c0,0.1-0.1,0.3-0.1,0.4
			c-0.1,0.5-0.2,1.1-0.2,1.6c-0.1,1.1-0.2,2.3-0.4,3.5c-0.2,1.2-0.4,2.3-0.8,3.5c-0.7,2.3-1.8,4.4-3.1,6.3l-0.2-0.1
			c1-2.1,1.7-4.3,2.2-6.5c0.2-1.1,0.4-2.2,0.5-3.4c0.1-1.1,0.1-2.3,0.1-3.4c0-0.6,0.1-1.2,0.2-1.8c0-0.3,0.1-0.6,0.2-0.9
			c0.1-0.3,0.1-0.6,0.2-0.9l0.3-0.9c0.1-0.3,0.2-0.6,0.3-0.9l0.2-0.4l0.2-0.4c0.1-0.3,0.3-0.5,0.4-0.8c0.6-1.1,1.3-2.1,2-3
			c0.8-0.9,1.6-1.8,2.4-2.6c0.9-0.8,1.7-1.6,2.7-2.3l1.4-1.1c0.2-0.2,0.5-0.3,0.7-0.5l0.8-0.5c2-1.2,4.3-2.1,6.5-2.8
			c4.6-1.2,9.4-1.3,13.9-0.4L129,335.5z"/>
		<path style="clip-path:url(#SVGID_00000119111057761831789040000013643068170677336705_);fill:#784A29;" d="M134.6,339.8
			c2.5,0.8,4.8,2.4,6.4,4.6c0.8,1.1,1.5,2.3,1.9,3.6c0.2,0.6,0.4,1.3,0.5,2c0.1,0.7,0.2,1.4,0.2,2c0.1,1.3,0,2.6,0,3.9
			c0,1.2,0.1,2.5,0.2,3.7c0.3,2.5,0.9,4.9,1.8,7.3l-0.3,0.1c-1.4-2.2-2.4-4.6-3.1-7.2c-0.3-1.3-0.5-2.6-0.6-3.9
			c-0.1-1.3-0.1-2.6-0.2-3.8c0-0.6-0.1-1.2-0.2-1.8c-0.1-0.6-0.3-1.2-0.4-1.7c-0.2-0.6-0.4-1.1-0.6-1.7c-0.3-0.5-0.5-1.1-0.8-1.6
			c-0.6-1-1.4-2-2.2-2.9c-0.9-0.9-1.8-1.7-2.9-2.4L134.6,339.8z"/>
		<path style="clip-path:url(#SVGID_00000119111057761831789040000013643068170677336705_);fill:#784A29;" d="M133.1,343.3
			c-0.1,1.8-13-1.8-20.5,5.7c-4.9,4.9-7.6,14.5-8.3,16.9c-1.1,4-1.7,8-4.9,9.5c-2.2,1-5.1,0.7-5.2,0c-0.1-0.6,2.1-1.1,3.8-2.2
			c5.5-3.7,2.1-11.9,6.1-20.6c0.3-0.7,4.4-9.4,13.2-12C125.1,338.2,133.2,341.9,133.1,343.3"/>
		<path style="clip-path:url(#SVGID_00000119111057761831789040000013643068170677336705_);fill:#784A29;" d="M123.2,339.9
			c-1.9-0.1-3.9,0.1-5.9,0.7c-8.6,2.5-12.6,11-13.1,11.9c-1.7,3.9-2.1,7.6-2.3,10.9c-0.4,4.1-0.7,7.7-3.8,9.8
			c-0.7,0.5-1.6,0.9-2.2,1.2c-0.6,0.3-1.5,0.7-1.4,0.9c0,0,0.1,0.1,0.2,0.2c0.8,0.4,3.1,0.5,4.8-0.3c2.6-1.3,3.5-4.4,4.3-7.7
			c0.1-0.5,0.3-1.1,0.4-1.6c2.8-10,6.1-14.7,8.3-17c5.1-5,12.5-5.1,17-5.1c1.8,0,3.4,0,3.5-0.5c0-0.1,0-0.3-0.5-0.7
			C131.1,341.5,127.5,340.1,123.2,339.9 M96.2,376.2c-0.7,0-1.3-0.1-1.7-0.3c-0.2-0.1-0.4-0.3-0.4-0.4c-0.1-0.5,0.6-0.8,1.6-1.2
			c0.7-0.3,1.5-0.7,2.2-1.2c3-2,3.3-5.3,3.6-9.6c0.3-3.3,0.6-7.1,2.4-11c0.4-1,4.6-9.5,13.3-12.1c6.7-2,13.4,0.4,15.4,2
			c0.5,0.4,0.7,0.7,0.7,1c-0.1,0.7-1.4,0.8-3.8,0.8c-4.4,0-11.7,0.1-16.7,5c-2.2,2.2-5.5,6.9-8.2,16.8c-0.2,0.5-0.3,1.1-0.4,1.6
			c-0.9,3.4-1.7,6.6-4.5,7.9C98.5,376,97.2,376.2,96.2,376.2"/>
		<path style="clip-path:url(#SVGID_00000119111057761831789040000013643068170677336705_);fill:#784A29;" d="M132.9,343.2
			c-0.4,6.7,0.7,11.8,1.7,15.2c0.7,2.4,3.5,11.5,7.3,11.6c1.4,0,2.9-1.1,2.8-1.5c-0.1-0.4-1.7,0.4-2.9-0.1
			c-3.1-1.2-1.1-8.9-3.8-16.7C136.8,347.9,134.7,345.1,132.9,343.2"/>
		<path style="clip-path:url(#SVGID_00000119111057761831789040000013643068170677336705_);fill:#784A29;" d="M129.8,342.6
			c-1.8,0.5-3.5,0.9-5.2,1.5c-0.9,0.3-1.7,0.6-2.5,0.9c-0.8,0.4-1.6,0.7-2.4,1.1c-1.6,0.8-3,1.8-4.3,3.1c-1.3,1.2-2.3,2.6-3.2,4.2
			l-0.4,0.6l-0.3,0.6c-0.2,0.4-0.4,0.8-0.6,1.2l-0.3,0.6c-0.1,0.2-0.2,0.4-0.3,0.6c-0.2,0.4-0.3,0.8-0.5,1.2
			c-0.6,1.7-1.3,3.4-2.1,5.1c-1.6,3.3-3.7,6.4-6.3,8.9c2.2-2.9,4-6,5.4-9.4c0.3-0.8,0.7-1.7,1-2.5c0.3-0.8,0.6-1.7,0.9-2.6
			c0.1-0.4,0.3-0.9,0.5-1.3c0.1-0.2,0.2-0.5,0.3-0.7l0.3-0.6c0.2-0.4,0.4-0.8,0.6-1.2l0.3-0.6l0.4-0.6c1-1.6,2.1-3.1,3.5-4.4
			c1.4-1.3,3-2.3,4.7-3.1c0.8-0.4,1.7-0.7,2.6-1c0.9-0.3,1.8-0.5,2.7-0.7C126.2,343,128,342.7,129.8,342.6"/>
		<path style="clip-path:url(#SVGID_00000119111057761831789040000013643068170677336705_);fill:#6B4021;" d="M112.1,358.8
			c-0.1,0-0.2,0.1-0.3,0.2c-1.6,1.9-4.6,2-4.7,2.1c-0.4,0-0.6,0.3-0.6,0.6c0,0.3,0.3,0.6,0.6,0.6c0.1,0,3.6-0.2,5.6-2.5
			c0.2-0.3,0.2-0.7-0.1-0.9C112.5,358.7,112.3,358.7,112.1,358.8"/>
		<path style="clip-path:url(#SVGID_00000119111057761831789040000013643068170677336705_);fill:#6B4021;" d="M125.1,357.9
			c-0.1,0-0.2,0.1-0.3,0.2c-0.2,0.3-0.2,0.6,0,0.9c2.3,2.1,5.7,1.8,5.9,1.7c0.3,0,0.6-0.3,0.6-0.7c0-0.3-0.3-0.6-0.7-0.6
			c0,0-3.1,0.3-4.9-1.4C125.5,357.9,125.3,357.8,125.1,357.9"/>
		<path style="clip-path:url(#SVGID_00000119111057761831789040000013643068170677336705_);fill:#1C474F;" d="M108.7,368.8
			c0.1,1.5,0.9,2.8,1.7,2.7c0.9-0.1,1.5-1.4,1.4-2.9c-0.1-1.5-0.9-2.8-1.7-2.7C109.2,366,108.6,367.3,108.7,368.8"/>
		<path style="clip-path:url(#SVGID_00000119111057761831789040000013643068170677336705_);fill:#1C474F;" d="M126,367.5
			c0.1,1.5,0.9,2.8,1.7,2.7c0.9-0.1,1.5-1.4,1.4-2.9c-0.1-1.5-0.9-2.8-1.7-2.7C126.5,364.7,125.9,366,126,367.5"/>
		<path style="clip-path:url(#SVGID_00000119111057761831789040000013643068170677336705_);fill:#E3918C;" d="M117.8,369.2
			c-0.2,0.1-0.3,0.3-0.3,0.6c0.3,1.7-0.5,2.5-1.6,3.7c-0.5,0.5-0.8,1-0.8,1.7c-0.1,1.5,1,2.4,2.4,2.5c0.1,0,0.2,0,0.3-0.1
			c0.4-0.2,0.3-1-0.3-1.1c-0.4-0.3-0.9-0.6-1.3-0.9c0.1-0.4,0.3-0.9,0.4-1.3c0.2-0.2,0.5-0.4,0.7-0.6c0.4-0.4,0.7-0.8,0.9-1.2
			c0.5-0.9,0.5-1.9,0.3-2.9C118.5,369.1,118.1,369,117.8,369.2"/>
		<path style="clip-path:url(#SVGID_00000119111057761831789040000013643068170677336705_);fill:#FFC29E;" d="M107,369.7
			c-10,1.2-11,9.7-19.3,7.3c-5.1-1.4-4.1-7.5-4.1-7.5c3.7-4.3,7.6-12.4,9-16.4c1.5-3.9,2.4-2,2.4-2c0.1-0.4,0.2-0.7,0.3-1.1
			c0.6-2.7,0.7-4.9,2.2-3.2c1.7,1.9,0.2,9.8,0.2,9.8c4.8-10.8,2.8-13.1,4.5-11.6c2.3,2.1-0.5,12-0.6,12.3c4-5.9,4.5-9.8,5.5-7.9
			c1.1,1.9-4.6,13.3-6.7,17.4c-0.5,0.9-0.8,1.5-0.8,1.5C107.7,367,107,369.7,107,369.7"/>
		
			<ellipse style="clip-path:url(#SVGID_00000119111057761831789040000013643068170677336705_);fill:#E3918C;" cx="127.5" cy="372.8" rx="3.5" ry="1.2"/>
		
			<ellipse transform="matrix(0.994 -0.109 0.109 0.994 -40.0752 14.2722)" style="clip-path:url(#SVGID_00000119111057761831789040000013643068170677336705_);fill:#E3918C;" cx="110.5" cy="373.7" rx="3" ry="1.2"/>
		
			<path style="clip-path:url(#SVGID_00000119111057761831789040000013643068170677336705_);fill:none;stroke:#E3918C;stroke-width:1.7448;stroke-linecap:round;stroke-miterlimit:10;" d="
			M110.4,383.2c0,0,2.2-0.8,3.3-0.7c1.7,0.2,1.1,3,3.6,2.2c1-0.3,1.5-1.2,2-1.5c0.7-0.5,1.6-1,3.1-0.7"/>
		<path style="clip-path:url(#SVGID_00000119111057761831789040000013643068170677336705_);fill:#E5A380;" d="M98.6,368.4l-7.4,1.5
			C91.3,369.9,95,367.2,98.6,368.4z"/>
		<path style="clip-path:url(#SVGID_00000119111057761831789040000013643068170677336705_);fill:#E5A380;" d="M95.1,352.7
			c0,0,0.1,4.1-1.3,5.2L95.1,352.7z"/>
		<path style="clip-path:url(#SVGID_00000119111057761831789040000013643068170677336705_);fill:#ADB0B2;" d="M141,419.3
			c-1-0.9-2.2-1.6-3.5-1.6c-5.3-0.2-13.4-0.2-17.4,9c-4.7,11.1,6.2,10.8,6.2,10.8s0.1,0.1,0.2,0.2c0.2,0.2,0.8,0.3,0.8,0.7
			c-2.4,25.9,19.3,56.1,33.9,24.8c0.3-0.6,0.9-1,1.2-1.8l0,0c1.7-6-4.9-21.9-5.9-22.2c-1.2-0.4-10.3-10.9-10.3-10.9s-1.6-5-4.4-8.1
			C141.6,419.8,141.3,419.5,141,419.3"/>
		<path style="clip-path:url(#SVGID_00000119111057761831789040000013643068170677336705_);fill:#FFC29E;" d="M165.5,467.3
			c-5.1-12.5-27.3-40-40.3-49.9l-5.5,5.8c0,0,21.4,32.4,25.2,44.8c3.7,12.4,10.8,19,19.5,17.6C173.3,484.2,166.5,469.9,165.5,467.3"
			/>
		<path style="clip-path:url(#SVGID_00000119111057761831789040000013643068170677336705_);fill:#FFC29E;" d="M126.3,402.3
			c-2.6,9.8,5,13.8-0.2,20.6c-3.2,4.2-8.4,1.1-8.4,1.1c-2.7-5-8.8-11.6-12-14.3c-3.1-2.8-1-2.9-1-2.9c-0.3-0.2-0.6-0.4-0.9-0.7
			c-2.3-1.6-4.3-2.4-2.2-3.2c2.4-0.9,9.2,3.4,9.2,3.4c-8.3-8.4-11.2-7.4-9.2-8.4c2.8-1.4,11,4.8,11.3,5c-4.1-5.9-7.5-7.7-5.4-8
			c2.2-0.3,10.7,9.1,13.8,12.6c0.7,0.8,1.1,1.3,1.1,1.3C124,400.7,126.3,402.3,126.3,402.3"/>
		<path style="clip-path:url(#SVGID_00000119111057761831789040000013643068170677336705_);fill:#CFD1D4;" d="M138.2,421.5l1.4,1.9
			l0.7,1l2.2,3.2c0,0,6,8.1,9.1,8.6c2.2,0.4,9.1,14.8,10.8,25.2c0.7,4.2,0.6,7.8-1,9.5c-5.6,5.9-17,1.5-24-4.3
			c-6.1-5.1-11.5-22.1-12.8-26.5c-0.2-0.6-0.3-0.9-0.3-1l0,0l-5.2-2.8c0,0-1.9-5.9,1.1-9.6c0,0-1.8,9.1,2,8.5
			C126.1,434.4,137.5,424,138.2,421.5"/>
		<path style="clip-path:url(#SVGID_00000119111057761831789040000013643068170677336705_);fill:#ADB0B2;" d="M141,419.3
			c0.3,0.3,0.6,0.5,0.8,0.9c-0.4,1.5-1,2.9-1.6,4.3c-3.2,6.8-8.5,11.2-12.8,14c-1,0.6-1.9,1.2-2.8,1.6c-0.2-0.6-0.3-0.9-0.3-1
			c0.7-0.4,1.5-0.8,2.3-1.3c4.4-2.7,9.8-7.3,12.9-14.2C140.1,422.1,140.6,420.7,141,419.3"/>
		<polygon style="clip-path:url(#SVGID_00000119111057761831789040000013643068170677336705_);fill:#FFFFFF;" points="142.3,390 
			129.5,398.4 142.6,395.4 		"/>
		<polygon style="clip-path:url(#SVGID_00000119111057761831789040000013643068170677336705_);fill:#FFFFFF;" points="143.1,403.5 
			128.8,401.2 140.7,407.2 		"/>
		<polygon style="clip-path:url(#SVGID_00000119111057761831789040000013643068170677336705_);fill:#FFFFFF;" points="93.4,387.7 
			106.2,396.1 93.1,393.1 		"/>
		<polygon style="clip-path:url(#SVGID_00000119111057761831789040000013643068170677336705_);fill:#FFFFFF;" points="88.1,403.3 
			102.4,401 90.5,407 		"/>
	</g>
	<g>
		<g>
			<path class="st129" d="M57.2,343.4c0.6,0.5,1.5,0.4,2.1-0.2c0.5-0.6,0.4-1.5-0.2-2.1c-0.6-0.5-1.5-0.4-2.1,0.2
				C56.5,342,56.6,342.9,57.2,343.4z"/>
			<path class="st129" d="M57.6,340.9c0.3-0.1,0.6-0.3,0.9-0.6c0.2-0.2,0.3-0.4,0.5-0.6c0.2,0.2,0.4,0.4,0.6,0.5
				c0.3,0.2,0.5,0.4,0.8,0.6c-0.2,0.2-0.3,0.4-0.5,0.6c-0.2,0.2-0.3,0.5-0.3,0.7c0-0.4-0.2-0.8-0.5-1.1
				C58.6,340.8,58.1,340.7,57.6,340.9z"/>
		</g>
		<g>
			<path class="st130" d="M52.3,336.7c0.1,0.9,0.9,1.6,1.8,1.5c0.9-0.1,1.6-0.9,1.5-1.8c-0.1-0.9-0.9-1.6-1.8-1.5
				C52.9,335,52.2,335.8,52.3,336.7z"/>
			<path class="st130" d="M54.7,335c0.3,0.1,0.8,0.2,1.2,0.2c0.3,0,0.6,0,0.8-0.1c0,0.3,0,0.6,0,0.9c0,0.4,0.1,0.8,0.2,1.1
				c-0.3,0-0.5,0-0.9,0.1c-0.3,0.1-0.6,0.2-0.9,0.3c0.3-0.3,0.5-0.8,0.4-1.3C55.6,335.8,55.2,335.3,54.7,335z"/>
		</g>
		<g>
			<path class="st130" d="M71.5,341.7c0.5-0.6,0.4-1.5-0.2-2.1c-0.6-0.5-1.5-0.4-2.1,0.2c-0.5,0.6-0.4,1.5,0.2,2.1
				C70.1,342.5,71,342.4,71.5,341.7z"/>
			<path class="st130" d="M69,341.3c-0.1-0.3-0.3-0.6-0.6-0.9c-0.2-0.2-0.4-0.3-0.6-0.5c0.2-0.2,0.4-0.4,0.5-0.6
				c0.2-0.3,0.4-0.5,0.6-0.8c0.2,0.2,0.4,0.3,0.6,0.5c0.2,0.2,0.5,0.3,0.7,0.3c-0.4,0-0.8,0.2-1.1,0.5
				C68.9,340.3,68.8,340.9,69,341.3z"/>
		</g>
		<g>
			<path class="st129" d="M62.4,325.5c-0.8,0.1-1.4,0.8-1.3,1.6c0.1,0.8,0.8,1.4,1.6,1.3c0.8-0.1,1.4-0.8,1.3-1.6
				C63.9,326,63.2,325.4,62.4,325.5z"/>
			<path class="st129" d="M63.8,327.5c-0.1,0.3-0.2,0.7-0.2,1.1c0,0.3,0,0.5,0.1,0.7c-0.3,0-0.5,0-0.8,0c-0.3,0-0.7,0.1-1,0.2
				c0-0.2,0-0.5-0.1-0.7c-0.1-0.3-0.2-0.5-0.3-0.8c0.3,0.3,0.7,0.4,1.1,0.4C63.2,328.3,63.6,328,63.8,327.5z"/>
		</g>
		<g>
			<path class="st130" d="M70.3,326.9c-0.6-0.5-1.5-0.4-2.1,0.2c-0.5,0.6-0.4,1.5,0.2,2.1c0.6,0.5,1.5,0.4,2.1-0.2
				C71,328.3,70.9,327.4,70.3,326.9z"/>
			<path class="st130" d="M69.9,329.4c-0.3,0.1-0.6,0.3-0.9,0.6c-0.2,0.2-0.3,0.4-0.5,0.6c-0.2-0.2-0.4-0.4-0.6-0.5
				c-0.3-0.2-0.5-0.4-0.8-0.6c0.2-0.2,0.3-0.4,0.5-0.6c0.2-0.2,0.3-0.5,0.3-0.7c0,0.4,0.2,0.8,0.5,1.1
				C68.9,329.5,69.4,329.6,69.9,329.4z"/>
		</g>
		<g>
			<path class="st129" d="M55,328.7c-0.5,0.6-0.4,1.5,0.2,2.1c0.6,0.5,1.5,0.4,2.1-0.2c0.5-0.6,0.4-1.5-0.2-2.1
				C56.4,327.9,55.5,328,55,328.7z"/>
			<path class="st129" d="M57.5,329.1c0.1,0.3,0.3,0.6,0.6,0.9c0.2,0.2,0.4,0.3,0.6,0.5c-0.2,0.2-0.4,0.4-0.5,0.6
				c-0.2,0.3-0.4,0.5-0.6,0.8c-0.2-0.2-0.4-0.3-0.6-0.5c-0.2-0.2-0.5-0.3-0.7-0.3c0.4,0,0.8-0.2,1.1-0.5
				C57.6,330.1,57.7,329.6,57.5,329.1z"/>
		</g>
		<g>
			<path class="st130" d="M64.8,346.2c0.8-0.1,1.4-0.8,1.3-1.6c-0.1-0.8-0.8-1.4-1.6-1.3c-0.8,0.1-1.4,0.8-1.3,1.6
				C63.3,345.7,64,346.3,64.8,346.2z"/>
			<path class="st130" d="M63.3,344.2c0.1-0.3,0.2-0.7,0.2-1.1c0-0.3,0-0.5-0.1-0.7c0.3,0,0.5,0,0.8,0c0.3,0,0.7-0.1,1-0.2
				c0,0.2,0,0.5,0.1,0.7c0.1,0.3,0.2,0.5,0.3,0.8c-0.3-0.3-0.7-0.4-1.1-0.4C64,343.4,63.5,343.7,63.3,344.2z"/>
		</g>
		<g>
			<path class="st129" d="M74.4,334.2c-0.1-0.8-0.8-1.4-1.6-1.3c-0.8,0.1-1.4,0.8-1.3,1.6c0.1,0.8,0.8,1.4,1.6,1.3
				C73.9,335.7,74.4,335,74.4,334.2z"/>
			<path class="st129" d="M72.3,335.7c-0.3-0.1-0.7-0.2-1.1-0.2c-0.3,0-0.5,0-0.7,0.1c0-0.3,0-0.5,0-0.8c0-0.3-0.1-0.7-0.2-1
				c0.2,0,0.5,0,0.7-0.1c0.3-0.1,0.5-0.2,0.8-0.3c-0.3,0.3-0.4,0.7-0.4,1.1C71.5,335,71.8,335.4,72.3,335.7z"/>
		</g>
	</g>
	<path class="st130" d="M67.9,330c-3-2.4-7.4-2-9.8,1c-2.4,3-2,7.4,1,9.8c3,2.4,7.4,2,9.8-1C71.4,336.8,70.9,332.4,67.9,330z"/>
	<g>
		<path class="st129" d="M66.3,333.8c-1-0.8-2.5-0.7-3.3,0.3c-0.8,1-0.7,2.5,0.3,3.3c1,0.8,2.5,0.7,3.3-0.3
			C67.5,336.1,67.3,334.6,66.3,333.8z"/>
		<path class="st129" d="M66.2,330.4c-0.5-0.2-1,0-1.2,0.5c-0.2,0.5,0,1,0.5,1.2c0.5,0.2,1,0,1.2-0.5
			C66.9,331.1,66.6,330.6,66.2,330.4z"/>
		<path class="st129" d="M60.3,330.7c-0.6,0.4-0.7,1.2-0.3,1.7c0.4,0.6,1.2,0.7,1.7,0.3c0.6-0.4,0.7-1.2,0.3-1.7
			C61.6,330.4,60.8,330.3,60.3,330.7z"/>
		<path class="st129" d="M57.4,336.5c0.1,0.6,0.6,1,1.1,0.9c0.6-0.1,1-0.6,0.9-1.1c-0.1-0.6-0.6-1-1.1-0.9
			C57.8,335.4,57.4,336,57.4,336.5z"/>
		<path class="st129" d="M68.8,334.4c0.3-0.2,0.7-0.1,0.9,0.2c0.2,0.3,0.1,0.7-0.2,0.9c-0.3,0.2-0.7,0.1-0.9-0.2
			C68.3,335,68.4,334.6,68.8,334.4z"/>
		<path class="st129" d="M66.5,340.5c0.4-0.3,0.5-0.8,0.2-1.2c-0.3-0.4-0.8-0.5-1.2-0.2c-0.4,0.3-0.5,0.8-0.2,1.2
			C65.6,340.7,66.1,340.7,66.5,340.5z"/>
		<path class="st129" d="M61.3,340.6c0.8,0.3,1.6,0,2-0.8c0.3-0.8,0-1.6-0.8-2c-0.8-0.3-1.6,0-2,0.8
			C60.2,339.4,60.6,340.3,61.3,340.6z"/>
	</g>
	
		<ellipse transform="matrix(0.7071 -0.7071 0.7071 0.7071 -207.8457 224.849)" class="st130" cx="167.5" cy="363.3" rx="6.4" ry="6.4"/>
	<path class="st130" d="M167.5,350.7c1.2,0,2.2-1,2.2-2.2c0-1.2-1-2.2-2.2-2.2c-1.2,0-2.2,1-2.2,2.2
		C165.3,349.7,166.3,350.7,167.5,350.7z"/>
	<path class="st130" d="M60.4,369.7c1.3,0,2.3-1,2.3-2.3c0-1.3-1-2.3-2.3-2.3c-1.3,0-2.3,1-2.3,2.3
		C58.1,368.6,59.2,369.7,60.4,369.7z"/>
	<g>
		<g>
			<g>
				<path class="st129" d="M20.4,387.1c-0.5,0.6-0.4,1.4,0.2,1.9c0.6,0.5,1.4,0.4,1.8-0.2c0.5-0.6,0.4-1.4-0.2-1.9
					C21.7,386.5,20.9,386.6,20.4,387.1z"/>
				<path class="st129" d="M22.7,387.5c0.1,0.3,0.3,0.5,0.5,0.8c0.2,0.2,0.3,0.3,0.5,0.4c-0.2,0.2-0.3,0.3-0.5,0.5
					c-0.2,0.2-0.4,0.5-0.5,0.7c-0.1-0.1-0.3-0.3-0.5-0.4c-0.2-0.1-0.5-0.2-0.7-0.3c0.4,0,0.7-0.2,0.9-0.5
					C22.8,388.4,22.8,387.9,22.7,387.5z"/>
			</g>
			<g>
				<path class="st130" d="M26.4,382.7c-0.8,0.1-1.4,0.8-1.3,1.7c0.1,0.8,0.8,1.4,1.6,1.4c0.8-0.1,1.4-0.8,1.3-1.7
					C28,383.2,27.2,382.6,26.4,382.7z"/>
				<path class="st130" d="M27.9,384.8c-0.1,0.3-0.2,0.7-0.2,1.1c0,0.3,0,0.5,0.1,0.8c-0.3,0-0.6,0-0.8,0c-0.3,0-0.7,0.1-1,0.2
					c0-0.2,0-0.5-0.1-0.8c-0.1-0.3-0.2-0.6-0.3-0.8c0.3,0.3,0.7,0.4,1.2,0.4C27.3,385.7,27.7,385.3,27.9,384.8z"/>
			</g>
			<g>
				<path class="st130" d="M21.9,400.1c0.6,0.5,1.4,0.4,1.8-0.2c0.5-0.6,0.4-1.4-0.2-1.9c-0.6-0.5-1.4-0.4-1.8,0.2
					C21.3,398.8,21.4,399.6,21.9,400.1z"/>
				<path class="st130" d="M22.3,397.8c0.3-0.1,0.5-0.3,0.8-0.5c0.2-0.2,0.3-0.3,0.4-0.5c0.2,0.2,0.3,0.3,0.5,0.5
					c0.2,0.2,0.5,0.4,0.7,0.5c-0.1,0.1-0.3,0.3-0.4,0.5c-0.1,0.2-0.2,0.5-0.3,0.7c0-0.4-0.2-0.7-0.5-1
					C23.2,397.7,22.7,397.7,22.3,397.8z"/>
			</g>
			<g>
				<path class="st129" d="M36.5,391.8c-0.1-0.7-0.7-1.3-1.4-1.2c-0.7,0.1-1.2,0.7-1.2,1.5c0.1,0.7,0.7,1.3,1.4,1.2
					C36,393.2,36.5,392.5,36.5,391.8z"/>
				<path class="st129" d="M34.6,393.1c-0.3-0.1-0.6-0.2-0.9-0.2c-0.2,0-0.5,0-0.6,0.1c0-0.2,0-0.5,0-0.7c0-0.3-0.1-0.6-0.2-0.9
					c0.2,0,0.4,0,0.7-0.1c0.3-0.1,0.5-0.1,0.7-0.3c-0.2,0.3-0.4,0.6-0.3,1C33.9,392.6,34.2,393,34.6,393.1z"/>
			</g>
			<g>
				<path class="st130" d="M35.2,399c0.5-0.6,0.4-1.4-0.2-1.9c-0.6-0.5-1.4-0.4-1.8,0.2c-0.5,0.6-0.4,1.4,0.2,1.9
					C33.9,399.6,34.7,399.6,35.2,399z"/>
				<path class="st130" d="M33,398.6c-0.1-0.3-0.3-0.5-0.5-0.8c-0.2-0.2-0.3-0.3-0.5-0.4c0.2-0.2,0.3-0.3,0.5-0.5
					c0.2-0.2,0.4-0.5,0.5-0.7c0.1,0.1,0.3,0.3,0.5,0.4c0.2,0.1,0.5,0.2,0.7,0.3c-0.4,0-0.7,0.2-0.9,0.5
					C32.9,397.7,32.8,398.2,33,398.6z"/>
			</g>
			<g>
				<path class="st129" d="M33.6,385.2c-0.6-0.5-1.4-0.4-1.8,0.2c-0.5,0.6-0.4,1.4,0.2,1.9c0.6,0.5,1.4,0.4,1.8-0.2
					C34.3,386.4,34.2,385.6,33.6,385.2z"/>
				<path class="st129" d="M33.2,387.4c-0.3,0.1-0.5,0.3-0.8,0.6c-0.2,0.2-0.3,0.3-0.4,0.5c-0.2-0.2-0.3-0.3-0.5-0.5
					c-0.2-0.2-0.5-0.4-0.7-0.5c0.1-0.1,0.3-0.3,0.4-0.5c0.1-0.2,0.2-0.5,0.3-0.7c0,0.4,0.2,0.7,0.5,1
					C32.3,387.5,32.8,387.6,33.2,387.4z"/>
			</g>
			<g>
				<path class="st130" d="M17.9,394c0.1,0.7,0.7,1.3,1.4,1.2c0.7-0.1,1.2-0.7,1.2-1.5c-0.1-0.7-0.7-1.3-1.4-1.2
					C18.4,392.6,17.8,393.3,17.9,394z"/>
				<path class="st130" d="M19.8,392.7c0.3,0.1,0.6,0.2,0.9,0.2c0.2,0,0.5,0,0.6-0.1c0,0.2,0,0.5,0,0.7c0,0.3,0.1,0.6,0.2,0.9
					c-0.2,0-0.4,0-0.7,0.1c-0.3,0.1-0.5,0.1-0.7,0.3c0.2-0.3,0.4-0.6,0.3-1C20.5,393.3,20.2,392.9,19.8,392.7z"/>
			</g>
			<g>
				<path class="st129" d="M28.7,402.7c0.7-0.1,1.2-0.7,1.2-1.5c-0.1-0.7-0.7-1.3-1.4-1.2c-0.7,0.1-1.2,0.7-1.2,1.5
					C27.3,402.2,28,402.7,28.7,402.7z"/>
				<path class="st129" d="M27.4,400.8c0.1-0.3,0.2-0.6,0.2-1c0-0.2,0-0.5-0.1-0.7c0.2,0,0.5,0,0.7,0c0.3,0,0.6-0.1,0.9-0.2
					c0,0.2,0,0.4,0.1,0.7c0.1,0.3,0.1,0.5,0.3,0.7c-0.3-0.2-0.6-0.4-1-0.3C28,400.1,27.6,400.4,27.4,400.8z"/>
			</g>
		</g>
		<path class="st130" d="M32.4,396.9c2.2-2.7,1.8-6.7-0.9-8.9c-2.7-2.2-6.6-1.8-8.8,0.9c-2.2,2.7-1.8,6.7,0.9,8.9
			C26.3,400,30.2,399.6,32.4,396.9z"/>
		<g>
			<path class="st129" d="M29,395.4c0.7-0.9,0.6-2.3-0.3-3c-0.9-0.7-2.2-0.6-3,0.3c-0.7,0.9-0.6,2.3,0.3,3
				C27,396.4,28.3,396.3,29,395.4z"/>
			<path class="st129" d="M32.1,395.3c0.2-0.4,0-0.9-0.4-1.1c-0.4-0.2-0.9,0-1.1,0.4c-0.2,0.4,0,0.9,0.4,1.1
				C31.4,395.9,31.9,395.7,32.1,395.3z"/>
			<path class="st129" d="M31.8,389.9c-0.4-0.5-1.1-0.6-1.6-0.3c-0.5,0.4-0.6,1.1-0.2,1.6c0.4,0.5,1.1,0.6,1.6,0.3
				C32,391.1,32.2,390.4,31.8,389.9z"/>
			<path class="st129" d="M26.6,387.3c-0.5,0.1-0.9,0.5-0.8,1c0.1,0.5,0.5,0.9,1,0.8c0.5-0.1,0.9-0.5,0.8-1
				C27.6,387.7,27.1,387.3,26.6,387.3z"/>
			<path class="st129" d="M28.5,397.6c0.2,0.3,0.1,0.6-0.2,0.8c-0.3,0.2-0.6,0.1-0.8-0.2c-0.2-0.3-0.1-0.6,0.2-0.8
				C28,397.2,28.3,397.3,28.5,397.6z"/>
			<path class="st129" d="M23.1,395.5c0.2,0.3,0.7,0.4,1,0.2c0.3-0.2,0.4-0.7,0.2-1c-0.2-0.3-0.7-0.4-1-0.2
				C22.9,394.7,22.8,395.2,23.1,395.5z"/>
			<path class="st129" d="M23,390.9c-0.3,0.7,0,1.5,0.7,1.8c0.7,0.3,1.5,0,1.8-0.7c0.3-0.7,0-1.5-0.7-1.8
				C24,389.9,23.3,390.2,23,390.9z"/>
		</g>
	</g>
</g>
<g>
	<path class="st1" d="M628.3,125.2c-0.2,53.5-43.7,95.3-95.6,95c-53.1-0.3-94.8-43.8-94.6-95.3c0.1-51.3,41.7-95,95.4-94.9
		C585.5,30.2,628.2,72.2,628.3,125.2z"/>
	<path class="st131" d="M487.9,175.4c-0.7-1.1-0.6-2.3-0.6-3.5c0-7.4,0-14.7,0-22.1c0-14.9,0-29.9,0-44.8c1.2-1,2.6-0.9,4-0.9
		c29.8,0,59.6,0,89.5,0c1.4,0,2.8-0.1,4.1,0.8c1.1,1.3,1,2.8,1,4.3c0,20.4,0.1,40.8,0,61.1c0,6.4-2.7,9.1-9,9.1
		c-26.8,0.1-53.7,0-80.5,0c-1.1,0-2.2-0.1-3.3-0.2C491.1,178.5,488.3,178.6,487.9,175.4z"/>
	<path class="st132" d="M566.7,74.9c4.6,0,9.2,0,13.8,0c2.5,0.6,4.6,1.6,5.1,4.4c0.5,6.6,0.2,13.3,0.2,19.9c0,1.1-0.1,2.2-0.9,3.1
		c-1.2,0.8-2.5,0.6-3.8,0.6c-29.9,0-59.8,0-89.8,0c-1.4,0-2.9,0.2-4-1c-0.1-0.9-0.2-1.8-0.2-2.7c0-5.7,0-11.5,0-17.2
		c0-5.1,2.1-7.2,7.1-7.2c3.7,0,7.5,0,11.2,0c1.4,1.4,0.7,3.2,1,4.8c0.2,0.9,0.2,2,1.4,2c1.4,0.1,1.5-1.1,1.6-2.1
		c0.3-1.6-0.4-3.4,1-4.8c17.1,0,34.3,0,51.4,0c1.4,1.4,0.7,3.2,1,4.8c0.2,0.9,0.2,2,1.3,2.1c1.3,0.1,1.5-1.1,1.7-2.1
		C566.1,78.1,565.4,76.3,566.7,74.9z"/>
	<path class="st133" d="M584.7,78.6c-0.9-1.7-2.5-2.8-4.2-3.6c2.7-0.3,4.6,1.1,6.4,2.8c1.7,1.6,2.2,3.5,2.2,5.7
		c0,10.2,0,20.4,0,30.6c0,19.8,0,39.6,0,59.3c0,0.8,0,1.6,0,2.4c-0.2,2.9-4.1,6.8-7.1,6.9c-0.5,0-1,0-1.5,0c-27.9,0-55.9,0-83.8,0
		c-0.8,0-1.6,0.1-2.4-0.1c-3.3-0.7-5.4-2.9-6.8-5.9c-0.2-0.5,0-1,0.5-1.3c0.6,1.1,1.6,1.8,2.7,2.2c0.5,0.2,1.2,0.2,1.6,0.8
		c2.2,1.6,4.8,1.4,7.2,1.4c18.2,0,36.4,0,54.5,0c7.9,0,15.8,0,23.6,0c6.7,0,8.7-2,8.7-8.7c0-28.4,0-56.7,0-85.1
		C586.3,83.5,586.2,80.9,584.7,78.6z"/>
	<path class="st134" d="M584.9,105c-31.5,0-63,0-94.5,0c-1,0-2,0-3,0c-0.2-0.8-0.3-1.5-0.1-2.3c0.5-0.4,1.2-0.3,1.8-0.3
		c31.8,0,63.7-0.1,95.5,0C585.7,103.2,585.6,104.1,584.9,105z"/>
	<path class="st135" d="M566.7,74.9c0,1.6,0,3.2,0,4.8c0,0.7,0,1.4-0.4,2c-0.5,0.9-1.5,1.6-2.4,1.5c-0.9-0.1-1.8-1-1.9-2
		c-0.1-0.6-0.1-1.2-0.1-1.8c0-1.5,0-3-0.1-4.5c0-1.1,0-2.2,0.1-3.3c0.1-1.5,1-2.3,2.3-2.2c1.3,0,2.2,0.8,2.4,2.3
		C566.7,72.7,566.7,73.8,566.7,74.9z"/>
	<path class="st135" d="M510.4,74.9c0,1.4,0,2.8-0.1,4.2c0,0.6,0,1.2,0,1.8c-0.1,1.3-1.2,2.3-2.4,2.3c-1.2,0-2.3-1-2.4-2.3
		c-0.1-2-0.1-4-0.1-6c0-1.1,0-2.2,0.1-3.3c0.1-1.4,1.1-2.3,2.3-2.3c1.3,0,2.2,0.8,2.3,2.2C510.4,72.7,510.4,73.8,510.4,74.9z"/>
	<path class="st136" d="M584.9,102.7c-22.8,0-45.5,0-68.3,0c-9.8,0-19.5,0-29.3,0c0-0.2,0.1-0.5,0.1-0.7c0.7,0,1.4-0.1,2.1-0.1
		c31.7,0,63.5,0,95.2,0c0.2,0.2,0.2,0.3,0.2,0.5C585,102.6,584.9,102.7,584.9,102.7z"/>
	<path class="st137" d="M584.9,102.7c0-0.3-0.1-0.5-0.1-0.8c0.3-7.6,0.3-15.2,0-22.8c0-0.2,0-0.4-0.1-0.6c1.9,1.5,2.7,3.3,2.6,5.7
		c-0.1,7,0,13.9,0,20.9c0,22.4,0,44.8,0,67.2c0,1.2,0.1,2.4-0.3,3.6c-1,3.3-3.5,4.4-6.6,4.8c-0.5,0.1-1,0-1.5,0
		c-27.1,0-54.1,0-81.2,0c-2.2,0-4.2-0.4-6-1.6c-0.3-0.2-0.3-0.5,0-0.7c0.1-0.1,0.4-0.1,0.6-0.2c28.4,0,56.7,0,85.1,0
		c1.4,0,2.8,0,4.1-0.6c2.2-1,3.1-2.8,3.4-5c0.1-0.5,0-1,0-1.5c0-21.7,0-43.4,0-65.1c0-0.4,0-0.8,0-1.2
		C584.9,104.2,584.9,103.5,584.9,102.7z"/>
	<path class="st138" d="M525.5,157.3c1.6,0,3.2,0,4.8,0c0.7,0,1.2,0.4,1.2,1.1c0,3.1,0,6.3,0,9.4c0,0.9-0.6,1.5-1.6,1.5
		c-3.1,0-6.3,0-9.4,0c-1,0-1.5-0.6-1.6-1.5c-0.1-2.9-0.1-5.8,0-8.8c0-1.1,0.6-1.7,1.7-1.7C522.3,157.2,523.9,157.3,525.5,157.3
		C525.5,157.3,525.5,157.3,525.5,157.3z"/>
	<path class="st138" d="M525.4,147c-1.5,0-3,0-4.5,0c-1.3-0.1-1.9-0.6-2-1.8c-0.1-2.8-0.1-5.6,0-8.5c0-1.1,0.6-1.8,1.7-1.8
		c3.1-0.1,6.3,0,9.4,0c0.9,0,1.5,0.6,1.5,1.5c0.1,3.1,0,6.3,0,9.4c0,0.7-0.6,1.1-1.2,1.1C528.7,147,527,146.9,525.4,147
		C525.4,146.9,525.4,147,525.4,147z"/>
	<path class="st138" d="M525.3,125.1c-1.5,0-3,0.1-4.5,0c-1.3-0.1-1.8-0.6-1.8-1.9c-0.1-2.8,0-5.6,0-8.4c0-1.1,0.6-1.7,1.7-1.7
		c3-0.1,6-0.1,9,0c1.3,0,1.8,0.6,1.8,1.9c0.1,2.8,0,5.6,0,8.4c0,1.1-0.6,1.7-1.7,1.7C528.3,125.2,526.8,125.1,525.3,125.1
		C525.3,125.1,525.3,125.1,525.3,125.1z"/>
	<path class="st138" d="M568.8,125.1c-1.6,0-3.2,0-4.8,0c-1.1,0-1.4-0.4-1.4-1.5c0-3,0-6,0-9c0-1.1,0.4-1.5,1.4-1.5
		c3.1,0,6.2,0,9.3,0c0.9,0,1.3,0.4,1.3,1.3c0,3.1,0,6.2,0,9.3c0,0.9-0.4,1.3-1.3,1.3C571.8,125.2,570.3,125.1,568.8,125.1
		C568.8,125.1,568.8,125.1,568.8,125.1z"/>
	<path class="st138" d="M552.8,163.3c0,1.6,0,3.2,0,4.8c0,0.7-0.5,1.1-1.2,1.1c-3.1,0-6.2,0-9.4,0c-0.9,0-1.5-0.6-1.5-1.6
		c-0.1-3-0.1-6,0-9.1c0-0.9,0.4-1.3,1.3-1.3c3.1,0,6.2,0,9.4,0c1,0,1.4,0.4,1.4,1.5C552.8,160.3,552.8,161.8,552.8,163.3
		C552.8,163.3,552.8,163.3,552.8,163.3z"/>
	<path class="st139" d="M503.5,147.1c-1.5,0-3,0-4.5,0c-1,0-1.4-0.4-1.4-1.2c0-3.2,0-6.4,0-9.6c0-0.8,0.5-1.2,1.4-1.2c3,0,6,0,9,0
		c1.3,0,1.7,0.4,1.7,1.6c0,3,0,6,0,9c0,1.1-0.4,1.5-1.4,1.5C506.7,147.1,505.1,147.1,503.5,147.1
		C503.5,147.1,503.5,147.1,503.5,147.1z"/>
	<path class="st138" d="M552.8,140.8c0,1.6,0,3.2,0,4.8c0,0.9-0.4,1.3-1.3,1.3c-3.1,0-6.2,0-9.4,0c-0.9,0-1.4-0.4-1.4-1.2
		c0-3-0.1-6,0-9.1c0-1.1,0.6-1.7,1.7-1.7c3-0.1,6,0,9.1,0c0.9,0,1.3,0.4,1.3,1.3C552.8,137.7,552.8,139.3,552.8,140.8z"/>
	<path class="st138" d="M497.7,163.2c0-1.5,0-3,0-4.5c0-0.9,0.4-1.3,1.3-1.3c3.1,0,6.2,0,9.4,0c0.9,0,1.4,0.4,1.4,1.2
		c0,3,0.1,6,0,9.1c0,1.1-0.6,1.7-1.7,1.7c-3,0.1-6,0-9.1,0c-0.9,0-1.3-0.4-1.3-1.3C497.6,166.4,497.7,164.8,497.7,163.2z"/>
	<path class="st138" d="M552.8,119.1c0,1.6,0,3.2,0,4.8c0,0.7-0.5,1.1-1.2,1.2c-3,0-6.1,0.1-9.1,0c-1.1,0-1.8-0.6-1.8-1.7
		c-0.1-2.9-0.1-5.8,0-8.8c0-1,0.6-1.6,1.5-1.6c3.1-0.1,6.2,0,9.4,0c0.7,0,1.1,0.5,1.1,1.2C552.8,115.9,552.8,117.5,552.8,119.1
		C552.8,119.1,552.8,119.1,552.8,119.1z"/>
	<path class="st138" d="M568.3,147c-1.4,0-2.8,0-4.2,0c-1.1,0-1.6-0.4-1.6-1.4c0-2.9-0.1-5.8,0-8.8c0-1.3,0.6-1.9,1.9-1.9
		c2.8-0.1,5.6-0.1,8.5,0c1.1,0,1.7,0.6,1.7,1.7c0,3,0,6,0,9.1c0,0.8-0.4,1.2-1.4,1.2C571.6,147,569.9,146.9,568.3,147
		C568.3,147,568.3,147,568.3,147z"/>
	<path class="st131" d="M536.3,89.4c5.5,0,11.1,0,16.6,0c0.7,0,1.4-0.2,2.1,0.2c0.1,0.1,0.2,0.3,0.3,0.5c0.1,0.2,0,0.4-0.2,0.5
		c-0.3,0.1-0.6,0.2-0.8,0.3c-0.6,0-1.2,0-1.8,0c-10.9,0-21.8,0-32.7,0c-0.8,0-1.6-0.1-2.4-0.1c-0.3,0-0.5-0.2-0.6-0.6
		c0-0.4,0.2-0.6,0.5-0.7c0.8-0.1,1.6-0.1,2.4-0.1C525.2,89.3,530.8,89.4,536.3,89.4z"/>
</g>
<g>
	<path class="st3" d="M229.8,236.5c0.6-0.3,0.8,0.3,2.6-0.6c2.4-1.7,6.3-1.9,8.4-4c1.7-1.7,5.9-4.1,5.9-6.5c0-2.9-5.2-7-5.6-9.8
		c-0.1-1-0.3-2-0.5-3c-0.1-0.7-0.2-1.4,0.2-2.1c0.4-0.1,0.8,0,1.2-0.1c0.3-0.1,0.5-0.2,0.8-0.4c1.9-1.2,3.4-3.2,5.7-3.8
		c2.8-0.2,5.5,0.6,8.3,0.6c1.1,0,2.1-0.2,2.6-1.3c0.5-1.2-0.4-1.6-1.3-2c-0.5-0.1-1-0.2-1.5-0.3c-4.5-1.9-9.1-2.3-13.9-0.7
		c-0.5,0.1-0.9,0.4-1.3,0.6c0,0-0.1,0.1-0.1,0.1s-0.1-0.2,0-0.2c0.4-0.1,0.7-0.4,1-0.5c0.4-0.2,0,0.1,0.3-0.2
		c4.8-4.4,10.4-4.1,16.2-2.8c0.8-0.3,1.4-0.7,2-1.3c1.6-1.5,1.5-2.7-0.4-3.8c-1-0.5-1.7-1.4-2.9-1.6c-2.2,0.8-4.5,0.2-6.6-0.2
		c-4.4-0.8-8,0.6-11.4,3.1c0,0,0,0.1-0.1,0c0.6-0.6,1.2-1.1,1.7-1.8c4-5.3,9.1-8.9,15.4-10.9c2.3-2.9,2.2-3.6-0.9-4.9
		c-7.9,0.6-14.7,3.6-19.9,9.7c-0.5,0.6-1.3,1-1.2,2c0.8-5.3,4-9.3,7.2-13.3c1.1-1.4,2.2-2.7,3-4.3c0.5-1,0.7-2,0-2.9
		c-0.8-1.1-2-0.9-3.1-0.5c-1.8,0.5-3.4,1.5-4.7,2.9c-2.8,3-5.5,6.1-7.8,9.5c-0.1,0.6-0.2,1.2-0.7,1.7c-0.9,1.1-1.8,2.3-2.6,3.4
		c-1.3,1.9-2,3.9-1.7,6.4c0.4,3.7,1,7.3,1.7,10.9c0.2,1,0.5,2,0.3,3c1.2,3,1.4,6.2,2.2,9.2C228.8,216.9,229.8,236.5,229.8,236.5z"/>
	<path class="st140" d="M229.3,181.3c0.8,0,1.2-0.7,1.7-1.2c2.1-2.4,4.1-4.9,6.2-7.3c1.4-1.6,3.1-2.7,5-3.4c0.4-0.1,0.8-0.2,1.2-0.3
		c0.8-0.1,1.6,0.9,1.4,1.7c-0.2,0.9-0.8,1.7-1.4,2.4c-1.5,1.9-3.1,3.9-4.6,5.8c-0.8,1.1-1.6,2.1-2.4,3.2c-0.9,1.3-1.6,2.6-1.8,4.2
		c-0.2,1.3-0.6,2.6-0.9,3.9c1,0,1.3-0.7,1.8-1.2c2-1.8,3.9-3.6,5.9-5.4c1.9-1.7,4-2.8,6.5-3.3c1.9-0.4,3.8-0.9,5.7-1.1
		c0.7-0.1,1.5-0.1,1.9-0.9c0.9-1.1,0.5-2.3,0.3-3.5c-0.7-4-1.2-8-1.8-12c-0.2-0.8-0.3-1.6-0.3-2.4c-0.4-2.8-0.8-5.6-1.4-8.4
		c-0.7-2.9-2-3.9-4.8-3.9c-1.7,0.1-3.4,0.7-5.2,0.5c-0.1,0-0.3,0-0.4-0.1c-0.4,0-0.8,0-1.2,0c-2.1,0-4.1,0.3-5.9,1.4
		c-0.9,0.6-2,0.4-3,0.6c-0.6,0.2-1.2,0.1-1.8,0.3c-3.5,0.6-4.8,2.3-4.3,5.8c0.3,2.4,0.7,4.8,1.1,7.3
		C227.6,169.8,228.4,175.6,229.3,181.3z"/>
	<path class="st141" d="M257.7,193c-0.5-3.3-1-6.7-1.5-10c-3.1,0.4-5.9,1.8-8.6,3.2c-0.4,0.2-0.8,0.6-1.1,1
		c-2.6,2.9-5.3,5.8-7.9,8.7c-0.2,0.6,0,0.9,0.6,0.8c1.9-1,3.9-1.9,5.8-2.9c1.3-0.7,2.7-0.9,4.2-0.6c2.3,0.4,4.6,0.8,6.9,1.3
		C257.3,194.6,257.3,194.7,257.7,193z"/>
	<path class="st142" d="M257.7,202.8c0.3-0.5,0.6-1.1,0.8-1.6c0.4-0.4,0.4-0.8,0.1-1.2c-0.1-0.2-0.1-0.3,0-0.5
		c-0.4-0.9-0.8-1.5-2-1.5c-2.6,0-5.1-0.1-7.7-0.2c-0.6,0-1.2,0.1-1.7,0.5c-1.9,1.4-3.8,2.7-5.7,4.1c-0.2,0.6-0.1,1,0.7,0.9
		c1.8-0.3,3.6-0.5,5.4-0.9c1.7-0.4,3.2-0.2,4.8,0.4c1.2,0.5,2.5,0.8,3.8,1.2C256.9,203.9,257.4,203.5,257.7,202.8z"/>
	<path class="st143" d="M239.1,196.6c-0.2-0.3-0.4-0.5-0.6-0.8c-0.5,0.2-0.8,0.5-1.1,1c-0.1,0.1-0.1,0.4,0,0.5
		c0.1,0.1,0.3,0.1,0.5,0.1C238.4,197.3,238.8,197.1,239.1,196.6z"/>
	<path class="st144" d="M242.3,203.3c-0.2-0.3-0.5-0.6-0.7-0.9c-0.4,0.2-0.8,0.4-1.2,0.6c-0.2,0.6-0.1,0.8,0.6,0.8
		C241.4,203.7,241.9,203.7,242.3,203.3z"/>
	<path class="st145" d="M240.9,203.7c-0.2-0.3-0.4-0.5-0.6-0.8c-0.2,0.1-0.4,0.1-0.5,0.2c-0.2,0.2-0.3,0.5-0.4,0.7
		c0.3,0.1,0.5,0.3,0.8,0.3C240.4,204.1,240.6,203.9,240.9,203.7z"/>
	<path class="st146" d="M257.7,202.8c-0.6,0.3-1.1,0.7-1.5,1.2c0.5,0.1,0.9,0.1,1.4,0.2C257.6,203.7,257.7,203.3,257.7,202.8z"/>
	<path class="st147" d="M229.3,153.9c-1.1-0.1-2.3,0.9-2.5,1.9c-0.1,1.1,1,2.4,2.2,2.4c1.1,0.1,2.3-0.9,2.5-1.9
		C231.7,155.3,230.5,154,229.3,153.9z"/>
	<path class="st148" d="M242.3,148.9c-0.3,0.2-0.5,0.4-0.8,0.6C242,149.5,242.2,149.3,242.3,148.9z"/>
</g>
<path class="st149" d="M318.1,149.6c1.5,3,7.1,2.3,10.6-1c3.9-3.8,4-9,5.6-13.6c4-11.2,11-19.1,22.8-22.3c7.4-2,20.6,1.8,23.7,7.1
	c4.1,7.1,5.5,14.8,4.4,22.9c-0.1,1.2-0.3,2.3-0.5,3.5c-0.7,4.7-0.9,9.3,4.6,11.6c-1.1,2.1-3.1,1.9-5,1.7c-3.6-1.6-4.7-4.9-5.5-8.3
	c-1.8-7.6-2.5-15.3-1.7-23.1c0.6-5.5,0-6.2-5.5-7c-2.3-0.3-4.6-0.2-6.9-0.2c-3.3,0.7-6.9-0.8-10.1,1c-0.9,0.6-1.9,1.2-2.7,2
	c-3,2.6-5.7,5.4-8,8.6c-1.2,1.8-2.6,3.4-3.4,5.4c-0.2,0.4-0.3,0.8-0.6,1.2c-1.1,1.6-2.2,3.3-2.8,5.1c-0.3,0.9-0.5,1.8-0.9,2.6
	c-3,6.1-7.5,10-14.9,9.1c-1,0.1-1.8-0.3-2.5-1.1C318.7,153,316.9,151.6,318.1,149.6z"/>
<path class="st3" d="M347.1,188.7c-3.1-1.3-6.4-2.3-9.1-4.6c-5.5-5.3-8.6-11.8-9.1-19.2c-0.3-4.3-1.7-6.7-5.9-7.5
	c-0.6-0.8-1.3-1.6-1.9-2.3c7.2,0.5,11.5-3.7,14.8-9.3c1.6-2.5,3.5-4.9,4.9-7.5c3.5-1.3,3.2-5.2,5.1-7.5c4.7-5.9,10-10.9,18.2-11.2
	c1.7-0.1,3.3-0.4,5-0.4c9.7,0.3,9.9,0.8,9.4,10.2c-0.5,10.1-0.8,20.3,5.8,29c1,4.9-1.4,8.5-4.4,11.9c-2,5.3-5,9.2-8.8,13.2
	c-1.2,2.1-1.9,3-3.1,3.8C361.2,191.1,354.5,192.4,347.1,188.7z"/>
<path class="st150" d="M366,106.4c-11-0.5-20.2,3.1-28.2,10.4c-5.5,5-6.9,11.9-9.9,18.2c-1.1,2.3-2.3,4.3-3.9,6.6
	c1.7-16.4,9.6-27.6,24-34.1C351.7,105.6,361.7,104.9,366,106.4z"/>
<path class="st151" d="M379.9,170.4c1.5-4,3-7.9,4.4-11.9c1.6-0.6,3.5,0.3,5.1-0.8c2.4-0.7,3.7-0.4,3.3,2.7
	C391.9,166.9,387.2,170.6,379.9,170.4z"/>
<path class="st152" d="M390.6,153.1c-5.3-11,3.8-23.7-4.3-34.4C398.1,129,388.6,141.7,390.6,153.1z"/>
<path class="st153" d="M364.1,119.7c-7,1.9-12.5,6-16.9,11.7c-1.6,2.1-3.4,4,1.7,4.6c-2.7,2.1-5.7,1.2-7.6,3.1
	c-0.1,0.4-0.4,0.6-0.9,0.6c-0.4-0.2-0.6-0.4-0.6-0.9c-0.1-0.5-0.2-1-0.3-1.5c1.9-1.3,2.9-3.3,4.1-5.1c2-3.2,4.7-5.8,7.4-8.4
	c0.9-1,2.2-1.6,2.9-2.8C357,117.6,360.8,120.7,364.1,119.7z"/>
<path class="st154" d="M351.8,123.8c-2.6,2.9-5.2,5.8-7.8,8.7c-0.4,0.1-0.8-0.1-1.1-0.4c2.1-3.8,5-6.8,8.5-9.3
	c0.4,0.1,0.5,0.4,0.5,0.6C352,123.7,351.9,123.8,351.8,123.8z"/>
<path class="st155" d="M340.1,139.3c0.4-0.1,0.7-0.2,1.1-0.3c-0.5,3.3-2.7,5.2-5.3,6.8c-0.2-0.7-0.3-1.4,0.2-2.1
	C337.7,142.5,338,140.1,340.1,139.3z"/>
<path class="st156" d="M342.9,132.1c0.4,0.1,0.7,0.3,1.1,0.4c-1.2,1.8-1.8,4.3-4.5,4.7C340,135.1,341.7,133.7,342.9,132.1z"/>
<path class="st157" d="M340.1,139.3c-1.1,1.7-2,3.6-4,4.5c0.8-2,0.9-4.5,3.6-5.1C339.9,139,340,139.2,340.1,139.3z"/>
<path class="st158" d="M351.8,123.8c-0.1-0.4-0.2-0.7-0.3-1.1c0.4-1.2,1.6-1.4,2.5-1.8C354.7,123,352.2,122.6,351.8,123.8z"/>
<path class="st159" d="M359.1,170.8c-6.2,7.2-11.7,6-15.3-2.7C348.7,169.5,353.5,170.5,359.1,170.8z"/>
<path class="st160" d="M344.2,151.5c-1.5,0.6-2.2,0-2.5-1.1c-0.7-2.2-0.7-4.3,1.4-5.7c1-0.7,1.9,0,2.3,1
	C346.2,148,345.6,149.9,344.2,151.5z"/>
<path class="st161" d="M368.8,148.9c0.4,2.2,0.4,4.3-1.5,5.5c-1.4,0.9-2.2-0.4-2.4-1.6c-0.4-2-0.5-4,1.6-5.3
	C368,146.6,368.3,148,368.8,148.9z"/>
<path class="st162" d="M353.1,151.7c2.1,4.5-4.4,6-3.7,10.1C346.1,156.8,352.4,155.2,353.1,151.7z"/>
<path class="st163" d="M373.2,142.4c-2.5-1.5-5.2-2.5-7.6-4.1C369.3,137.4,371.9,138.6,373.2,142.4z"/>
</svg>
