<?xml version="1.0" encoding="utf-8"?>
<!-- Generator: Adobe Illustrator 26.0.0, SVG Export Plug-In . SVG Version: 6.00 Build 0)  -->
<svg version="1.1" id="Capa_1" xmlns="http://www.w3.org/2000/svg" xmlns:xlink="http://www.w3.org/1999/xlink" x="0px" y="0px"
	 viewBox="0 0 105.3 93.3" style="enable-background:new 0 0 105.3 93.3;" xml:space="preserve">
<style type="text/css">
	.st0{fill:#E9F0FF;}
	.st1{fill:#9FC5F4;}
	.st2{fill:#FFFFFF;}
	.st3{fill:#C6D1E5;}
	.st4{fill:#3C82F3;}
	.st5{fill:#3C82F5;}
	.st6{fill:#FEFEFE;}
	.st7{fill:none;stroke:#E6332A;stroke-width:3.3989;stroke-miterlimit:10;}
	.st8{fill:#E3ECFB;}
</style>
<circle class="st0" cx="48.9" cy="46.9" r="42.4"/>
<g>
	<path class="st1" d="M32.2,16.9L9.5,21c-0.7,0.1-1.4-0.3-1.5-1L5.5,6.3c-0.1-0.7,0.3-1.4,1-1.5l22.8-4.1c0.7-0.1,1.4,0.3,1.5,1
		l2.5,13.7C33.4,16.1,32.9,16.8,32.2,16.9z"/>
	<g>
		<rect x="8.9" y="9.8" transform="matrix(0.984 -0.1784 0.1784 0.984 -2.2735 2.068)" class="st2" width="3" height="7.8"/>
		<rect x="12.7" y="12" transform="matrix(0.984 -0.1784 0.1784 0.984 -2.3536 2.7712)" class="st2" width="3" height="4.9"/>
		<rect x="16.1" y="8.8" transform="matrix(0.984 -0.1784 0.1784 0.984 -1.9553 3.3425)" class="st2" width="3" height="7.5"/>
		<rect x="19.9" y="10.2" transform="matrix(0.984 -0.1784 0.1784 0.984 -1.9574 4.0241)" class="st2" width="3" height="5.4"/>
		<rect x="23" y="3.4" transform="matrix(0.984 -0.1784 0.1784 0.984 -1.2524 4.5108)" class="st2" width="3" height="11.6"/>
		<rect x="26.9" y="6.3" transform="matrix(0.984 -0.1784 0.1784 0.984 -1.3855 5.2286)" class="st2" width="3" height="8"/>
	</g>
</g>
<polygon class="st1" points="36.6,25.1 53.5,5.9 69.4,11.6 77.1,3 74.8,1.4 82.5,0 82.7,7.2 80.4,5.6 70.2,17.7 54.2,11.6 
	42.4,25.1 "/>
<g>
	<path class="st3" d="M84.4,74.7H5c-2.7,0-5-2.2-5-5V24c0-2.7,2.2-5,5-5h79.4c2.7,0,5,2.2,5,5v45.8C89.4,72.5,87.1,74.7,84.4,74.7z"
		/>
	<path class="st2" d="M83.1,72.9H6.4c-2.7,0-4.8-2.2-4.8-4.8V23.8c0-2.7,2.2-4.8,4.8-4.8h76.7c2.7,0,4.8,2.2,4.8,4.8v44.2
		C87.9,70.7,85.7,72.9,83.1,72.9z"/>
	<g>
		<g>
			<g>
				<g>
					<g>
						<path class="st4" d="M23.7,49.1H7.6c-0.6,0-1.2-0.5-1.2-1.2v-2.1c0-0.6,0.5-1.2,1.2-1.2h16.1c0.6,0,1.2,0.5,1.2,1.2v2.1
							C24.8,48.5,24.3,49.1,23.7,49.1z"/>
					</g>
					<g>
						<path class="st4" d="M43.2,49.1H27.1c-0.6,0-1.2-0.5-1.2-1.2v-2.1c0-0.6,0.5-1.2,1.2-1.2h16.1c0.6,0,1.2,0.5,1.2,1.2v2.1
							C44.3,48.5,43.8,49.1,43.2,49.1z"/>
					</g>
					<g>
						<path class="st4" d="M62.6,49.1H46.5c-0.6,0-1.2-0.5-1.2-1.2v-2.1c0-0.6,0.5-1.2,1.2-1.2h16.1c0.6,0,1.2,0.5,1.2,1.2v2.1
							C63.8,48.5,63.3,49.1,62.6,49.1z"/>
					</g>
					<g>
						<path class="st4" d="M81.8,49.1H65.7c-0.6,0-1.2-0.5-1.2-1.2v-2.1c0-0.6,0.5-1.2,1.2-1.2h16.1c0.6,0,1.2,0.5,1.2,1.2v2.1
							C82.9,48.5,82.4,49.1,81.8,49.1z"/>
					</g>
				</g>
			</g>
			<g>
				<g>
					<g>
						<path class="st3" d="M23.7,54.9H7.6c-0.6,0-1.2-0.5-1.2-1.2v-2.1c0-0.6,0.5-1.2,1.2-1.2h16.1c0.6,0,1.2,0.5,1.2,1.2v2.1
							C24.8,54.4,24.3,54.9,23.7,54.9z"/>
					</g>
					<g>
						<path class="st3" d="M43.2,54.9H27.1c-0.6,0-1.2-0.5-1.2-1.2v-2.1c0-0.6,0.5-1.2,1.2-1.2h16.1c0.6,0,1.2,0.5,1.2,1.2v2.1
							C44.3,54.4,43.8,54.9,43.2,54.9z"/>
					</g>
					<g>
						<path class="st3" d="M62.6,54.9H46.5c-0.6,0-1.2-0.5-1.2-1.2v-2.1c0-0.6,0.5-1.2,1.2-1.2h16.1c0.6,0,1.2,0.5,1.2,1.2v2.1
							C63.8,54.4,63.3,54.9,62.6,54.9z"/>
					</g>
					<g>
						<path class="st3" d="M81.8,54.9H65.7c-0.6,0-1.2-0.5-1.2-1.2v-2.1c0-0.6,0.5-1.2,1.2-1.2h16.1c0.6,0,1.2,0.5,1.2,1.2v2.1
							C82.9,54.4,82.4,54.9,81.8,54.9z"/>
					</g>
				</g>
			</g>
			<g>
				<g>
					<g>
						<path class="st3" d="M23.7,60.8H7.6c-0.6,0-1.2-0.5-1.2-1.2v-2.1c0-0.6,0.5-1.2,1.2-1.2h16.1c0.6,0,1.2,0.5,1.2,1.2v2.1
							C24.8,60.3,24.3,60.8,23.7,60.8z"/>
					</g>
					<g>
						<path class="st3" d="M43.2,60.8H27.1c-0.6,0-1.2-0.5-1.2-1.2v-2.1c0-0.6,0.5-1.2,1.2-1.2h16.1c0.6,0,1.2,0.5,1.2,1.2v2.1
							C44.3,60.3,43.8,60.8,43.2,60.8z"/>
					</g>
					<g>
						<path class="st3" d="M62.6,60.8H46.5c-0.6,0-1.2-0.5-1.2-1.2v-2.1c0-0.6,0.5-1.2,1.2-1.2h16.1c0.6,0,1.2,0.5,1.2,1.2v2.1
							C63.8,60.3,63.3,60.8,62.6,60.8z"/>
					</g>
					<g>
						<path class="st3" d="M81.8,60.8H65.7c-0.6,0-1.2-0.5-1.2-1.2v-2.1c0-0.6,0.5-1.2,1.2-1.2h16.1c0.6,0,1.2,0.5,1.2,1.2v2.1
							C82.9,60.3,82.4,60.8,81.8,60.8z"/>
					</g>
				</g>
			</g>
			<g>
				<g>
					<g>
						<path class="st3" d="M23.7,66.6H7.6c-0.6,0-1.2-0.5-1.2-1.2v-2.1c0-0.6,0.5-1.2,1.2-1.2h16.1c0.6,0,1.2,0.5,1.2,1.2v2.1
							C24.8,66.1,24.3,66.6,23.7,66.6z"/>
					</g>
					<g>
						<path class="st3" d="M43.2,66.6H27.1c-0.6,0-1.2-0.5-1.2-1.2v-2.1c0-0.6,0.5-1.2,1.2-1.2h16.1c0.6,0,1.2,0.5,1.2,1.2v2.1
							C44.3,66.1,43.8,66.6,43.2,66.6z"/>
					</g>
					<g>
						<path class="st3" d="M62.6,66.6H46.5c-0.6,0-1.2-0.5-1.2-1.2v-2.1c0-0.6,0.5-1.2,1.2-1.2h16.1c0.6,0,1.2,0.5,1.2,1.2v2.1
							C63.8,66.1,63.3,66.6,62.6,66.6z"/>
					</g>
					<g>
						<path class="st3" d="M81.8,66.6H65.7c-0.6,0-1.2-0.5-1.2-1.2v-2.1c0-0.6,0.5-1.2,1.2-1.2h16.1c0.6,0,1.2,0.5,1.2,1.2v2.1
							C82.9,66.1,82.4,66.6,81.8,66.6z"/>
					</g>
				</g>
			</g>
		</g>
		<circle class="st5" cx="12.3" cy="33.1" r="6.8"/>
		<path class="st3" d="M57.2,31.9H22.3c-0.9,0-1.7-0.7-1.7-1.7v-1.1c0-0.9,0.7-1.7,1.7-1.7h34.8c0.9,0,1.7,0.7,1.7,1.7v1.1
			C58.8,31.2,58.1,31.9,57.2,31.9z"/>
		<path class="st3" d="M39.7,37.7H21.9c-0.7,0-1.2-0.5-1.2-1.2v-2c0-0.7,0.5-1.2,1.2-1.2h17.8c0.7,0,1.2,0.5,1.2,1.2v2
			C40.9,37.1,40.4,37.7,39.7,37.7z"/>
		<ellipse class="st2" cx="12.3" cy="31" rx="2.3" ry="2.5"/>
		<g>
			<path class="st2" d="M12.3,38.9c1.8,0,3.5-0.7,4.7-1.9c-0.4-1.7-2.3-3-4.7-3S8,35.3,7.7,37C8.8,38.2,10.5,38.9,12.3,38.9z"/>
		</g>
	</g>
</g>
<g>
	<circle class="st1" cx="82.7" cy="73.4" r="20"/>
	<circle class="st6" cx="82.7" cy="73.4" r="15.6"/>
	<path class="st1" d="M105.1,57.8l-8.8-8.3c-0.2-0.2-0.6-0.1-0.9,0.2L93,52.3c-0.3,0.3-0.4,0.7-0.2,0.9l1.9,1.8l-1.1,1.2
		c-0.3,0.3-0.4,0.7-0.2,0.9l4.2,4c0.2,0.2,0.6,0.1,0.9-0.2l1.1-1.2l1.9,1.8c0.2,0.2,0.6,0.1,0.9-0.2l2.5-2.6
		C105.3,58.4,105.3,58,105.1,57.8z"/>
	<path class="st3" d="M83,62.7L83,62.7c-0.3,0-0.6-0.3-0.6-0.6v-2.6c0-0.3,0.3-0.6,0.6-0.6l0,0c0.3,0,0.6,0.3,0.6,0.6v2.6
		C83.5,62.5,83.3,62.7,83,62.7z"/>
	<path class="st3" d="M82.6,87.8L82.6,87.8c-0.3,0-0.6-0.3-0.6-0.6v-2.6c0-0.3,0.3-0.6,0.6-0.6l0,0c0.3,0,0.6,0.3,0.6,0.6v2.6
		C83.2,87.6,82.9,87.8,82.6,87.8z"/>
	<path class="st3" d="M68.1,73.7L68.1,73.7c0-0.3,0.3-0.6,0.6-0.6h2.6c0.3,0,0.6,0.3,0.6,0.6l0,0c0,0.3-0.3,0.6-0.6,0.6h-2.6
		C68.3,74.2,68.1,74,68.1,73.7z"/>
	<path class="st3" d="M75.4,65.9L75.4,65.9c-0.2,0.2-0.6,0.2-0.8,0l-1.8-1.8c-0.2-0.2-0.2-0.6,0-0.8l0,0c0.2-0.2,0.6-0.2,0.8,0
		l1.8,1.8C75.7,65.3,75.7,65.7,75.4,65.9z"/>
	<path class="st3" d="M72.5,83.1L72.5,83.1c-0.2-0.2-0.3-0.6-0.1-0.8l1.7-2c0.2-0.2,0.6-0.3,0.8-0.1l0,0c0.2,0.2,0.3,0.6,0.1,0.8
		l-1.7,2C73.1,83.3,72.7,83.3,72.5,83.1z"/>
	<path class="st7" d="M90.9,64.1"/>
	<path class="st1" d="M92.6,83.2l-2.4-2.4c2-2,3.2-4.7,3.2-7.5c0-3-1.3-5.9-3.6-7.9l2.2-2.6c3,2.6,4.8,6.5,4.8,10.5
		C96.8,77,95.2,80.6,92.6,83.2z"/>
	<path class="st1" d="M92.7,82.6L84.1,74c0.1-0.2,0.2-0.5,0.2-0.8c0-0.8-0.7-1.5-1.5-1.5c-0.3,0-0.6,0.1-0.8,0.2l-0.9-0.9
		c-0.2-0.2-0.4-0.2-0.6,0c-0.2,0.2-0.2,0.4,0,0.6l0.9,0.9c-0.1,0.2-0.2,0.4-0.2,0.7c0,0.8,0.7,1.5,1.5,1.5c0.2,0,0.5-0.1,0.7-0.2
		l8.6,8.6c0.2,0.2,0.4,0.2,0.6,0C92.9,83.1,92.9,82.8,92.7,82.6z"/>
</g>
<g>
	<rect x="88.6" y="10.2" class="st3" width="0.7" height="6.6"/>
	<rect x="88.1" y="11.2" class="st3" width="1.7" height="4.5"/>
	<rect x="103" y="8.5" class="st3" width="0.7" height="6.6"/>
	<rect x="102.5" y="9.6" class="st3" width="1.7" height="4.5"/>
	<rect x="92.2" y="8.6" class="st3" width="0.7" height="9.9"/>
	<rect x="91.7" y="13" class="st1" width="1.7" height="4.5"/>
	<rect x="95.8" y="6.5" class="st3" width="0.7" height="14.8"/>
	<rect x="95.3" y="10.5" class="st3" width="1.7" height="4.5"/>
	<rect x="99.4" y="11.5" class="st3" width="0.7" height="9.4"/>
	<rect x="98.9" y="14.7" class="st1" width="1.7" height="4.5"/>
</g>
<g>
	<circle class="st8" cx="7.7" cy="74.2" r="5.3"/>
	<path class="st1" d="M7.7,74.2l0-5.3c2.9,0,5.3,2.4,5.3,5.3c0,2.9-2.4,5.3-5.3,5.3c-2.1,0-4-1.2-4.8-3.1L7.7,74.2z"/>
	<circle class="st2" cx="7.7" cy="74.2" r="3.7"/>
</g>
<g>
	<circle class="st8" cx="20.7" cy="84" r="8"/>
	<path class="st1" d="M20.7,84l0-8c4.4,0,8,3.6,8,8c0,1.9-0.7,3.7-1.8,5.1L20.7,84z"/>
	<circle class="st2" cx="20.7" cy="84" r="5.5"/>
</g>
</svg>
