<?xml version="1.0" encoding="utf-8"?>
<!-- Generator: Adobe Illustrator 19.0.0, SVG Export Plug-In . SVG Version: 6.00 Build 0)  -->
<svg version="1.1" id="Layer_1" xmlns="http://www.w3.org/2000/svg" xmlns:xlink="http://www.w3.org/1999/xlink" x="0px" y="0px"
	 viewBox="0 0 449.9 281.1" style="enable-background:new 0 0 449.9 281.1;" xml:space="preserve">
<style type="text/css">
	.st0{clip-path:url(#SVGID_2_);fill:#00558C;}
	.st1{clip-path:url(#SVGID_2_);}
	.st2{clip-path:url(#SVGID_4_);fill:#FFFFFF;}
	.st3{fill:#146499;}
	.st4{fill:#08212D;}
	.st5{fill:#FBB13F;}
	.st6{fill:#E89022;}
	.st7{fill:#F8CE5D;}
	.st8{fill:#DFE5E9;}
	.st9{fill:#BFD4DD;}
	.st10{fill:#AAC9DC;}
	.st11{fill:#B8D1DD;}
	.st12{fill:#F6F182;}
	.st13{fill:#015784;}
	.st14{fill:#A8C8DB;}
	.st15{fill:#FABD8F;}
	.st16{opacity:0.45;}
	.st17{clip-path:url(#SVGID_6_);}
	.st18{clip-path:url(#SVGID_8_);fill:#FFFFFF;}
	.st19{clip-path:url(#SVGID_10_);fill:#FFFFFF;}
	.st20{fill:#F06D73;}
	.st21{fill:#38D6FE;}
	.st22{fill:#5C1403;}
	.st23{fill:#8A4415;}
	.st24{fill:#793711;}
	.st25{fill:#5C1704;}
	.st26{fill:#BC6736;}
	.st27{fill:#D9B576;}
	.st28{fill:#D9A610;}
	.st29{fill:#D78149;}
	.st30{fill:#D52029;}
	.st31{fill:#FD1719;}
	.st32{fill:#FC1A1E;}
	.st33{fill:#DC151B;}
	.st34{fill:#FFA59D;}
	.st35{fill:#FFFFFF;}
	.st36{fill:#25A8F4;}
	.st37{fill:#FA1E1D;}
	.st38{fill:#FFA7A8;}
	.st39{opacity:0.18;}
	.st40{clip-path:url(#SVGID_12_);}
	.st41{fill:#2B1A3B;}
	.st42{fill:#FF2525;}
	.st43{fill:#21A9F1;}
	.st44{fill:#A6DDF8;}
	.st45{fill:#535B65;}
	.st46{fill:#FBB03B;}
	.st47{fill:#E58126;}
	.st48{opacity:0.3;}
	.st49{fill:#F8CE5D;stroke:#000000;stroke-miterlimit:10;}
	.st50{font-family:'TrebuchetMS-Bold';}
	.st51{font-size:7.1956px;}
	.st52{fill:none;stroke:#000000;stroke-miterlimit:10;}
	.st53{fill:#B7B7B7;}
	.st54{fill:#878787;}
	.st55{opacity:0.6;fill:#F9ECD7;}
</style>
<g>
	<g>
		<defs>
			<rect id="SVGID_1_" width="449.9" height="281.1"/>
		</defs>
		<clipPath id="SVGID_2_">
			<use xlink:href="#SVGID_1_"  style="overflow:visible;"/>
		</clipPath>
		<rect class="st0" width="449.9" height="281.1"/>
		<g class="st1">
			<defs>
				<rect id="SVGID_3_" width="449.9" height="281.1"/>
			</defs>
			<clipPath id="SVGID_4_">
				<use xlink:href="#SVGID_3_"  style="overflow:visible;"/>
			</clipPath>
			<path class="st2" d="M406.3,256.6h1.9v9.9c0,1.1,0.3,2,0.9,2.6c0.6,0.7,1.5,1,2.4,0.9c0.9,0,1.8-0.3,2.5-0.9
				c0.6-0.6,0.9-1.5,0.9-2.7c0.1-1.8-1.2-3.5-3.1-3.6h-0.5c-0.9,0-1.7,0.2-2.4,0.8v-1.9c0.8-0.4,1.7-0.7,2.6-0.7
				c1.4,0,2.8,0.5,3.8,1.5s1.5,2.3,1.5,3.9c0,1.7-0.5,3-1.6,4c-1.1,1-2.5,1.5-3.9,1.4c-1.4,0.1-2.7-0.5-3.7-1.5
				c-0.9-1-1.4-2.3-1.4-4V256.6z"/>
			<path class="st2" d="M427.7,271.8H424c-1.6,0-2.7-0.2-3.4-0.7c-0.6-0.3-1-0.9-1.2-1.5c-0.2-0.8-0.3-1.5-0.2-2.3v-5.9h1.9v5.8
				c0,0.3,0,0.5,0,0.7c0,0.2,0.1,0.5,0.1,0.7c0.1,0.2,0.2,0.5,0.4,0.7c0.2,0.2,0.4,0.4,0.7,0.5c0.3,0.1,0.7,0.2,1.1,0.2h2.5v-8.6
				h1.9L427.7,271.8z"/>
			<path class="st2" d="M436.4,261.4h2.1l-2.6,4.5c1.8,0.5,2.7,1.9,2.7,4.3v1.6h-1.9v-1.6c0-0.8-0.3-1.7-0.9-2.3
				c-0.6-0.5-1.4-0.8-2.4-0.8c-0.3,0-0.7,0-1,0.1v4.5h-1.9v-15.1h1.9v8.9c0.6-0.1,1.2-0.1,1.8,0L436.4,261.4z"/>
			<path class="st2" d="M404.2,264.3c0,0.6-0.5,1-1,1c-0.6,0-1-0.5-1-1c0-0.6,0.5-1,1-1C403.7,263.3,404.2,263.7,404.2,264.3"/>
			<path class="st2" d="M442.2,264.3c0,0.6-0.5,1-1,1c-0.6,0-1-0.5-1-1c0-0.6,0.5-1,1-1C441.7,263.3,442.2,263.7,442.2,264.3"/>
		</g>
	</g>
	<path class="st3" d="M36.9,33c0,5-4,9-9,9c-5,0-9-4-9-9c0-5,4-9,9-9C32.8,23.9,36.9,28,36.9,33"/>
	<path class="st3" d="M21.8,16.5c0,3.1-2.5,5.6-5.6,5.6c-3.1,0-5.6-2.5-5.6-5.6c0-3.1,2.5-5.6,5.6-5.6
		C19.3,10.9,21.8,13.4,21.8,16.5"/>
	<path class="st3" d="M34.5,17.8c0,1.8-1.5,3.3-3.3,3.3c-1.8,0-3.3-1.5-3.3-3.3c0-1.8,1.5-3.3,3.3-3.3C33,14.5,34.5,16,34.5,17.8"/>
	<path class="st3" d="M74.2,253.5c0,6.8-5.5,12.3-12.3,12.3c-6.8,0-12.3-5.5-12.3-12.3c0-6.8,5.5-12.3,12.3-12.3
		C68.7,241.1,74.2,246.7,74.2,253.5"/>
	<path class="st3" d="M35,223.9c0,6.2-5.1,11.3-11.3,11.3s-11.3-5-11.3-11.3s5-11.3,11.3-11.3S35,217.7,35,223.9"/>
	<path class="st3" d="M407,12.7c0,4.2-3.4,7.6-7.6,7.6s-7.6-3.4-7.6-7.6c0-4.2,3.4-7.6,7.6-7.6S407,8.5,407,12.7"/>
	<path class="st3" d="M41.1,258c0,4.8-3.9,8.7-8.7,8.7s-8.7-3.9-8.7-8.7c0-4.8,3.9-8.7,8.7-8.7S41.1,253.2,41.1,258"/>
	<g>
		<path class="st4" d="M361.3,240.8c0,1.6,15.7,1.7,35,1.7c19.3,0,35-0.1,35-1.7s-15.7-3.9-35-3.9
			C376.9,237,361.3,239.2,361.3,240.8"/>
		<path class="st4" d="M258.8,203.4c0,1.6,15.7,1.7,35,1.7c19.3,0,35-0.1,35-1.7c0-1.6-15.7-3.9-35-3.9
			C274.5,199.5,258.8,201.7,258.8,203.4"/>
		<path class="st5" d="M390.1,214.8l-6.2-1.4l0,2.5l0,19.5c0,0-2.9,2.8-2.8,3.8c0.1,1,14.5,0.4,15.5-1.3c0.5-0.8,1.6-4,2.6-7.1
			c1.1-3.4,4.6-17.3,4.6-17.3L390.1,214.8z"/>
		<path class="st6" d="M397,226.8c-0.6,4-2.1,7.5-3.9,9.7c0.4,0.7,0.7,1.5,0.9,2.4c1.4-0.3,2.5-0.6,2.7-1.1c0.5-0.8,1.6-4,2.6-7.1
			c1.1-3.4,5-19.4,5-19.4l-7.3,5.6C397.2,218.9,397.3,224.6,397,226.8"/>
		<path class="st7" d="M382.2,238.6c0.4,1,4.4,1,5.2-0.9c0.4-0.9,0.1-2.3-0.6-2.7c-1.1-0.6-2.8,1-3.3,1.4
			C383.1,236.8,381.9,238,382.2,238.6"/>
		<polygon class="st8" points="378.1,181.4 388.7,169.1 408,180.7 408,206.3 388.6,219.7 384.3,218.6 378.1,207 		"/>
		<polygon class="st9" points="421.8,175.7 408.9,163.1 388.7,169.1 408,180.7 		"/>
		<polygon class="st10" points="433.1,182.2 421.8,175.7 408.9,163.1 424.5,170.2 		"/>
		<polygon class="st9" points="409.5,225 388.6,219.7 408,206.3 419.7,212.5 		"/>
		<polygon class="st10" points="425,217.4 409.5,225 419.7,212.5 433.1,206.9 		"/>
		<polygon class="st11" points="422,213.2 421.8,175.7 408,180.7 408,206.3 419.7,212.5 		"/>
		<polygon class="st10" points="433.1,206.9 433.1,182.2 421.8,175.7 422,213.2 		"/>
		<path class="st5" d="M422,213.2l-2.3-0.8l-2.5-0.7l-13.1,11.9c0,0,1.1,3.4,2.4,6.8c1.1,3.1-1,6.9-0.5,7.7
			c1.1,1.7,17.1,2.4,17.2,1.3c0.1-1-3.1-3.8-3.1-3.8l3.3-20.1L422,213.2z"/>
		<path class="st6" d="M422,213.2l-2.3-0.8c0.5,0.7,0.7,3.1,0.7,4c0,7-1.6,13.3-4.1,17.8c1.1,1.3,1.7,2.9,1.7,4.7
			c0,0.4,0,0.8-0.1,1.1c2.9,0.1,5.3-0.1,5.3-0.5c0.1-1-3.1-3.8-3.1-3.8l3.3-20.1L422,213.2z"/>
		<path class="st7" d="M416,238.2c-0.3,0.8-4.3,1.3-5.4-0.2c-0.5-0.7-0.4-1.9,0.3-2.3c1.1-0.6,3,0.6,3.5,0.8
			C414.8,236.8,416.2,237.7,416,238.2"/>
		<path class="st8" d="M406.3,101.7c19.4,0,35.2,17.1,35.2,36.1c0,6.7-1.7,12.8-5.3,17.7c-5.4,7.2-15,11.9-29.9,11.9
			c-15.3,0-25-4.6-30.3-12.6c-3.4-5-4.9-11.4-4.9-18.8C371,117.1,386.8,101.7,406.3,101.7"/>
		<path class="st10" d="M396.1,162.8c23.7,0,42.9-16.8,42.9-37.5c0-0.1,0-0.1,0-0.2c1.5,4,2.4,8.3,2.4,12.7c0,6.7-1.7,12.8-5.3,17.7
			c-5.4,7.2-15,11.9-29.9,11.9c-11.2,0-19.4-2.5-25.1-6.9C385.9,161.9,390.9,162.8,396.1,162.8"/>
		<path class="st5" d="M415.9,137.3c0,8.4,4.6,15.3,10.3,15.3c5.7,0,10.3-6.8,10.3-15.3c0-8.4-4.6-15.3-10.3-15.3
			C420.5,122.1,415.9,128.9,415.9,137.3"/>
		<path class="st6" d="M414.6,131C414.6,131.1,414.6,131.1,414.6,131c0,3.2,0.5,6.2,1.4,8.9c0.8,6.7,4.5,11.8,9,12.5
			c-0.4,0.1-0.7,0.1-1.1,0.1c-5.7,0-10.3-6.8-10.3-15.3C413.7,135.1,414,133,414.6,131"/>
		<path class="st12" d="M414.6,131c1.6-5.3,5.2-9,9.4-9c0.4,0,0.7,0,1.1,0.1c-5.2,0.8-9.2,7.3-9.2,15.2c0,0.9,0.1,1.8,0.2,2.6
			C415.1,137.2,414.6,134.2,414.6,131C414.6,131.1,414.6,131.1,414.6,131"/>
		<path class="st12" d="M433.6,141.4c0,0,2.8,4.5-2,5.6C427.5,145.4,433.6,141.4,433.6,141.4"/>
		<path class="st9" d="M366.8,156.7c0,0,1.7,5,4.5,6.1c0.7-1.1,2-2.5,3.6-3.3c2.7-1.4,0.7-9.6-1.1-11c-1.4-1.5-3.5-2.8-5.8-2.2
			C364.4,150.4,366.8,156.7,366.8,156.7"/>
		<path class="st13" d="M405.6,170.8c-5,0-9.2-2.1-10.6-4.4c6.3,0.9,13.5,1.1,21.5,0.2C415.1,169,410.7,170.8,405.6,170.8"/>
		<path class="st14" d="M383.2,161.3c0,0-4.6-0.5-7.2-3.1c-2.6-2.6-6.9-18.7-2.4-28.8c4.5-10.1,18.7-10.9,18.7-10.9s14.3-1.5,21,18
			c6.7,19.4-10,22.3-10,22.3S388.4,162,383.2,161.3"/>
		<path class="st13" d="M383.1,159.7c0,0-4.5-0.5-7.1-2.9c-2.6-2.4-6.6-17.8-2.2-27.4c4.5-9.6,18.5-10.5,18.5-10.5
			s14.1-1.5,20.5,16.9s-10,21.3-10,21.3S388.2,160.3,383.1,159.7"/>
		<path class="st15" d="M383,158.8c0,0-4.4-0.4-6.9-2.7c-2.5-2.3-6.4-17-2-26.2c4.4-9.2,18-10,18-10s13.6-1.5,19.9,16.1
			c6.2,17.6-9.7,20.4-9.7,20.4S387.9,159.4,383,158.8"/>
		<g class="st16">
			<g>
				<defs>
					<rect id="SVGID_5_" x="372.1" y="122.6" width="11.4" height="36.3"/>
				</defs>
				<clipPath id="SVGID_6_">
					<use xlink:href="#SVGID_5_"  style="overflow:visible;"/>
				</clipPath>
				<g class="st17">
					<defs>
						<rect id="SVGID_7_" x="372.1" y="122.6" width="11.4" height="36.3"/>
					</defs>
					<clipPath id="SVGID_8_">
						<use xlink:href="#SVGID_7_"  style="overflow:visible;"/>
					</clipPath>
					<path class="st18" d="M374.1,129.9c1.7-3.5,4.7-5.8,7.8-7.3c-1.9,8.7-1.9,19.3,0.2,30.3c0.4,2.1,0.9,4.1,1.4,6
						c-0.2,0-0.4,0-0.5,0c0,0-4.4-0.4-6.9-2.7C373.6,153.8,369.7,139.1,374.1,129.9"/>
				</g>
			</g>
		</g>
		<path class="st8" d="M371.2,162.8c-2.8-1.1-4.5-6.1-4.5-6.1s-2.3-6.3,1.1-10.5c-0.7,0.2-1.5,0.5-2.2,1.1
			c-3.5,4.1-1.1,10.5-1.1,10.5s2.3,6.7,5.9,6.3C370.4,164,370.7,163.5,371.2,162.8"/>
		<path class="st10" d="M421.8,176.2c0,0,3.4,15.4-2.9,22.3c-6.3,6.9-13.2,1.2-13.2,1.2l6.9-3.3l0.2-3.7l-7.3-0.4c0,0-3.9,4.4-9,3.9
			c-5.1-0.5-8.4-3.5-7.8-7.7c0.6-4.2,6.3-9.4,14.5-8.8c4.4,0.3,6.6,1.4,8.6,3c-0.9-1.9-0.4-2.3-0.4-2.3L421.8,176.2z"/>
		<path class="st8" d="M394.9,192.8c7.9,1.5,7-3.1,9.3-3.1c2.3,0,1.3,2.4,1.3,2.4l7.3,0.5l-0.2,3.3c3.1,0,6.5-1.4,9.1-2.7
			c2.2-7.4,0.1-17,0.1-17l-10.5,4.1c0,0,0.6,2,1.5,3.9c-2-1.6-5.2-3.3-9.6-3.6c-8-0.6-13,3.5-13.9,7.5
			C390.2,190.2,391.8,192.3,394.9,192.8"/>
		<path class="st8" d="M370.4,164l10.5,14.2l7.3-8.6l-11-7.7c0,0-2.3-1.7-1.5-3.6c0.7-1.9-4.5,2.3-4.5,2.3L370.4,164z"/>
		<path class="st9" d="M380.9,178.2c0,0-3.8-3.1-5.5-6c-4.5-7.8-5.9-8.2-5.9-8.2l1.4-0.4c0,0,4,5.3,5.9,5.9c1.9,0.6,6.2,6.2,6.2,6.2
			L380.9,178.2z"/>
		<path class="st10" d="M388.2,169.7l-5.2,6c0,0,1.5-3.1,2.9-4.6C387.4,169.7,388.2,169.7,388.2,169.7z"/>
		<path class="st15" d="M382.8,158.7c0,0-4.3-0.4-6.7-2.7c-2.4-2.2-6.2-16.5-2-25.5c4.3-9,17.5-9.8,17.5-9.8s13.3-1.4,19.3,15.7
			c6.1,17.1-9.5,19.9-9.5,19.9S387.6,159.2,382.8,158.7"/>
		<g class="st16">
			<g>
				<defs>
					<rect id="SVGID_9_" x="372.2" y="123.4" width="11.1" height="35.3"/>
				</defs>
				<clipPath id="SVGID_10_">
					<use xlink:href="#SVGID_9_"  style="overflow:visible;"/>
				</clipPath>
				<path class="st19" d="M374.1,130.5c1.6-3.4,4.6-5.7,7.6-7.1c-1.8,8.5-1.9,18.8,0.2,29.5c0.4,2,0.9,3.9,1.4,5.9
					c-0.2,0-0.4,0-0.5,0c0,0-4.3-0.4-6.7-2.7C373.7,153.8,369.9,139.5,374.1,130.5"/>
			</g>
		</g>
		<path class="st20" d="M402.6,147.8c0.3,1.8-0.8,3.4-2.6,3.8c-1.8,0.3-3.4-0.8-3.8-2.6c-0.3-1.8,0.8-3.4,2.6-3.8
			C400.6,144.8,402.3,146,402.6,147.8"/>
		<path d="M372.3,142.6c2.6-0.7,2.4-2.7,2.4-2.9c0-0.4,0.2-0.7,0.6-0.7c0,0,0.1,0,0.1,0c0.4,0,0.7,0.3,0.7,0.7
			c0,1.3-0.5,3.7-3.7,4.5L372.3,142.6z"/>
		<path d="M398.8,135.1c-0.3,0.1-0.6,0.4-0.6,0.7c0,0.3-0.1,2.6-3.1,3.2c0,0,0,0,0,0c-3.1,0.6-4-1.6-4-1.9c-0.1-0.4-0.5-0.6-0.9-0.4
			c-0.4,0.1-0.6,0.5-0.4,0.9c0.4,1.2,2.2,3.4,5.7,2.8c0,0,0,0,0,0c3.5-0.7,4.3-3.3,4.3-4.6c0-0.4-0.3-0.7-0.7-0.7
			C398.9,135,398.8,135,398.8,135.1"/>
		<path class="st13" d="M377.7,153.6c-0.2-0.4-0.3-0.9-0.4-1.3c-0.4-2-0.5-6.2,2.6-6.7c3-0.5,7.9,0.7,8.6,3.4
			c0.1,0.4,0.3,0.8,0.3,1.2c0.1,0.5,0.2,1.1-0.7,1.9c-0.9,0.7-3.9-0.2-7.1,0.5C379.5,152.8,378.2,153.3,377.7,153.6"/>
		<path d="M372.4,135.8c-0.1,0,0.1-1.3,0.3-1.5c0.8-0.9,1.2-1.7,1-3.1c0-0.3,0.1-0.5,0.4-0.6c0.3-0.1,0.5,0.1,0.6,0.4
			c0.3,1.7-0.5,3.5-2.1,4.7c-0.1,0.1-0.2,0.1-0.3,0.1"/>
		<path d="M393.2,132.9c-1.1,0-2.2-0.3-3.1-0.8c-1.3-0.7-2.2-1.8-2.4-3.1c0-0.3,0.1-0.5,0.4-0.6c0.3,0,0.5,0.1,0.6,0.4
			c0.2,1,0.9,1.9,2,2.5c1.1,0.6,2.5,0.8,3.8,0.5c0.2,0,0.5-0.1,0.7-0.2c0.3-0.1,0.5,0.1,0.6,0.3c0.1,0.3-0.1,0.5-0.3,0.6
			c-0.3,0.1-0.5,0.1-0.8,0.2C394.1,132.9,393.7,132.9,393.2,132.9"/>
		<path class="st21" d="M403.2,125.5c0.3,1.7-1.1,3.3-3.2,3.7c-2.1,0.4-4-0.7-4.3-2.4c-1-4,0.7-10,2-10.2
			C399.1,116.4,402.4,121.1,403.2,125.5"/>
		<g>
			<rect x="374.9" y="195.7" class="st22" width="46" height="28.7"/>
			<rect x="375.3" y="196.1" class="st23" width="45.2" height="27.8"/>
			<path class="st24" d="M420.5,196.1c0,0,0.4,23.5-4.5,24.4c-12.6,2.3-40.7,3.3-40.7,3.3h45.2V196.1z"/>
			<path class="st25" d="M420.5,203.9c0,0-16.7,6.8-22.6,6.8c-5.9,0-22.6-6.8-22.6-6.8v-7h45.2V203.9z"/>
			<path class="st26" d="M420.5,203.2c0,0-16.7,6.8-22.6,6.8c-5.9,0-22.6-6.8-22.6-6.8v-7h45.2V203.2z"/>
			<rect x="395.7" y="208.7" class="st27" width="4.5" height="2.4"/>
			<rect x="404" y="191.5" class="st23" width="1.8" height="4.2"/>
			<polygon class="st23" points="391.1,194.2 392.6,195.2 392.9,195.7 391.1,195.7 			"/>
			<rect x="395.7" y="209.7" class="st28" width="4.5" height="2.4"/>
			<rect x="405.8" y="195.4" class="st28" width="3.3" height="0.3"/>
			<rect x="387.8" y="195.4" class="st28" width="3.3" height="0.3"/>
		</g>
		<path class="st29" d="M375.3,203.2v-7h24.3c0,0-15.8-0.2-21.5,2.3C376.5,199.1,375.3,203.2,375.3,203.2z"/>
		<path class="st30" d="M336.4,144.2c-4.7-4.1-8.5-5.1-8.5-5.1l-8.2,24.5c11.5-2.7,21.2,15.4,22,20.7c0.8,5.4,2.6,2,2.6,2
			s1.5-3.1,2.6-7.7C336.2,162.4,334.8,151.3,336.4,144.2"/>
		<path class="st31" d="M345.1,155.3c-2.8-5.1-6-8.7-8.7-11.1c-1.6,7.1-0.2,18.2,10.6,34.5C348.6,172.4,349.6,163.3,345.1,155.3"/>
		<path class="st32" d="M266.6,167.3l-10.2-23.7c0,0-9.3,3.3-15.8,17.6c-6.5,14.3,3.3,30.8,3.3,30.8s2.1,3.2,2.5-2.2
			C246.7,184.3,254.8,165.6,266.6,167.3"/>
		<path class="st33" d="M240.6,161.2c-0.1,0.3-0.3,0.6-0.4,1c2.5,1.4,5,3.4,6.8,5.5c2.4,2.8,3.7,6.2,4.3,9.7
			c3.6-5.8,8.9-10.9,15.3-10l-10.2-23.7C256.4,143.6,247.1,146.8,240.6,161.2"/>
		<path class="st34" d="M245.1,161c0,0-3.8,10-0.9,25.8c0,0-8.7-13.6-1.3-27.4L245.1,161z"/>
		<path class="st35" d="M296.5,12.4c0,0-3.9-3.7-7.9,0.4c-6.1,6.4-39.9,50.7-39.9,93.2c0,37.6,11.9,72.3,31.9,95.7l23.1,0.7
			c0,0,32.5-44.8,30-92.5c-2.5-47.7-13.3-62.6-22.7-78.3C301.6,15.8,296.5,12.4,296.5,12.4"/>
		<path class="st36" d="M268.9,185.2c3.5,6.3,7.7,11.8,11.6,16.4l23.1,0.7c0,0,4.4-6.1,9.9-16.2
			C304.7,188.2,283.8,190.9,268.9,185.2"/>
		<path class="st37" d="M296.5,12.4c0,0-3.9-3.7-7.9,0.4c-2.1,2.1-9.5,10.7-15.9,22c8-4.9,33.6-3.5,40.2-0.1
			c-0.6-1.1-1.3-2.1-1.9-3.2C301.6,15.8,296.5,12.4,296.5,12.4"/>
		<path class="st38" d="M293.5,12.5c0,0-9.4,12.8-12.9,19.4l-5.8,1L289,13.5C289,13.5,291.8,10.1,293.5,12.5"/>
		<g class="st39">
			<g>
				<defs>
					
						<rect id="SVGID_11_" x="223.9" y="39" transform="matrix(-0.7538 0.6571 -0.6571 -0.7538 583.8373 4.3741)" width="134.3" height="145.1"/>
				</defs>
				<clipPath id="SVGID_12_">
					<use xlink:href="#SVGID_11_"  style="overflow:visible;"/>
				</clipPath>
				<path class="st40" d="M293.5,13.3c0,0,14.2,29.8,16,43c0.6,4.6,2.7,11,4.5,18.7c-6.2-7-16.5-9.8-16.5-9.8l-15,37.9
					c0,0,23.3,14.7,33.8-7.6c0.3-0.5,0.5-1.1,0.7-1.6c0.6,10.6-0.9,22.3-7.3,33.8c-15.8,28.7-37.9,9.1-37.9,9.1l-22.6-17.1
					c0,12,6.1,39.1,15,56.9c0,0,25.3-2.7,29.5,7.7c4.2,10.4-18.7,10.4-18.7,10.4l5.5,7.1l17,0.5c0,0,29.7-42,29.9-77.3
					c0.2-35.3-3.5-69.7-18-91.5C295,11.4,293.5,13.3,293.5,13.3"/>
			</g>
		</g>
		<path class="st41" d="M307.9,69.8c7.6,8.7,6.6,22.1-2.4,29.9c-8.9,7.8-22.3,7-29.9-1.7s-6.6-22.1,2.4-29.9
			C286.9,60.3,300.3,61.1,307.9,69.8"/>
		<path class="st42" d="M306.6,71c7,8,6,20.3-2.2,27.4c-8.2,7.1-20.5,6.4-27.4-1.6c-7-8-6-20.3,2.2-27.4
			C287.3,62.2,299.6,63,306.6,71"/>
		<path class="st41" d="M303.3,73.8c5.4,6.2,4.7,15.8-1.7,21.3c-6.4,5.5-15.9,5-21.3-1.2c-5.4-6.2-4.7-15.8,1.7-21.3
			C288.3,67,297.9,67.6,303.3,73.8"/>
		<path class="st38" d="M280.4,70.8c7.9-6.9,19.7-6.4,26.8,0.9c-0.2-0.3-0.4-0.5-0.6-0.8c-7-8-19.3-8.7-27.4-1.6
			c-8.2,7.1-9.1,19.4-2.2,27.4c0.2,0.2,0.4,0.5,0.7,0.7C271.4,89.4,272.5,77.7,280.4,70.8"/>
		<path class="st43" d="M301.7,75.2c4.7,5.4,4,13.6-1.4,18.3c-5.5,4.8-13.7,4.3-18.4-1.1c-4.7-5.4-4-13.6,1.4-18.3
			S297,69.9,301.7,75.2"/>
		<path class="st44" d="M283.3,74.2c-1.9,1.6-3.2,3.7-3.9,5.9c3.3-2.2,7.3-5.6,8.6-4.5c0.7,0.6,0,1.8,0.9,2.7
			c1.5,1.4,5.6,0.5,6.2-1.3c0.6-1.8-2.7-3.8-2.2-4.6c0.6-1,6.1,2.2,8.2,2.3C296.4,69.9,288.6,69.6,283.3,74.2"/>
		<polygon class="st45" points="356.7,237.9 356.7,236.5 323.2,236.5 323.2,237.9 339.9,245.7 		"/>
		<polygon class="st46" points="356.7,236.5 339.9,229.2 323.2,236.5 339.9,244.4 		"/>
		<path class="st35" d="M342.8,212.3c-1,0.1-1.9,0.2-2.9,0.2c-1,0-1.9-0.1-2.9-0.2c-3.1,8.4-6,16.2-8.8,23.4
			c3.6,2.2,7.6,3.3,11.6,3.3c4,0,8.1-1.1,11.6-3.3C348.9,228.5,345.9,220.7,342.8,212.3"/>
		<path class="st47" d="M328.3,235.7c3.6,2.2,7.6,3.3,11.6,3.3c4,0,8.1-1.1,11.6-3.3c-0.5-1.4-1.1-2.9-1.7-4.4
			c-6.3,3.1-13.7,3.1-19.9,0C329.4,232.7,328.9,234.2,328.3,235.7"/>
		<path class="st47" d="M331.7,226.8c5.3,2.1,11.2,2.1,16.5,0c-0.6-1.5-1.2-3.1-1.8-4.7c-4.2,1.3-8.7,1.3-13,0
			C332.9,223.7,332.3,225.3,331.7,226.8"/>
		<path class="st47" d="M342.8,212.3c-1,0.1-1.9,0.2-2.9,0.2c-1,0-1.9-0.1-2.9-0.2c-0.6,1.7-1.2,3.4-1.8,5c3.1,0.7,6.3,0.7,9.4,0
			C344,215.7,343.4,214,342.8,212.3"/>
		<path class="st45" d="M342.8,212.1c0,0.4-1.3,0.7-2.9,0.7c-1.6,0-2.9-0.3-2.9-0.7c0-0.4,1.3-0.7,2.9-0.7
			C341.5,211.4,342.8,211.7,342.8,212.1"/>
		<polygon class="st45" points="268.7,220.3 268.7,219.4 245.5,219.4 245.5,220.3 257.1,225.8 		"/>
		<polygon class="st46" points="268.7,219.4 257.1,214.3 245.5,219.4 257.1,224.8 		"/>
		<path class="st35" d="M259.1,202.7c-0.7,0.1-1.3,0.1-2,0.1c-0.7,0-1.3,0-2-0.1c-2.1,5.8-4.2,11.2-6.1,16.1c2.5,1.5,5.3,2.3,8,2.3
			c2.8,0,5.6-0.8,8-2.3C263.3,213.9,261.2,208.5,259.1,202.7"/>
		<path class="st47" d="M249.1,218.8c2.5,1.5,5.3,2.3,8,2.3c2.8,0,5.6-0.8,8-2.3c-0.4-1-0.8-2-1.2-3.1c-4.3,2.2-9.4,2.2-13.8,0
			C249.8,216.8,249.5,217.8,249.1,218.8"/>
		<path class="st47" d="M251.4,212.7c3.7,1.5,7.8,1.5,11.4,0c-0.4-1.1-0.8-2.2-1.2-3.3c-2.9,0.9-6,0.9-9,0
			C252.2,210.5,251.8,211.6,251.4,212.7"/>
		<path class="st47" d="M259.1,202.7c-0.7,0.1-1.3,0.1-2,0.1c-0.7,0-1.3,0-2-0.1c-0.4,1.2-0.9,2.3-1.3,3.5c2.1,0.5,4.4,0.5,6.5,0
			C260,205,259.5,203.9,259.1,202.7"/>
		<path class="st45" d="M259.1,202.7c0,0.3-0.9,0.5-2,0.5c-1.1,0-2-0.2-2-0.5c0-0.3,0.9-0.5,2-0.5
			C258.2,202.2,259.1,202.4,259.1,202.7"/>
		<g>
			<path class="st48" d="M315.9,151.2l-38.4-5.3c-3.1-0.4-5.3-3.3-4.9-6.4l3-22c0.4-3.1,3.3-5.3,6.4-4.9l38.4,5.3
				c3.1,0.4,5.3,3.3,4.9,6.4l-3,22C321.9,149.5,319,151.7,315.9,151.2z"/>
			<path class="st49" d="M320.2,148.1l-38.4-5.3c-3.1-0.4-5.3-3.3-4.9-6.4l3-22c0.4-3.1,3.3-5.3,6.4-4.9l38.4,5.3
				c3.1,0.4,5.3,3.3,4.9,6.4l-3,22C326.1,146.4,323.3,148.5,320.2,148.1z"/>
			<text transform="matrix(0.9907 0.1358 -0.1358 0.9907 287.6338 124.4112)"><tspan x="0" y="0" class="st50 st51">FUERA DE</tspan><tspan x="0" y="8.6" class="st50 st51">SERVICIO</tspan></text>
			<circle cx="325.7" cy="119" r="0.8"/>
			<line class="st52" x1="308.9" y1="98.3" x2="325.7" y2="119"/>
			<path class="st53" d="M310.9,98.2c0,1-1,1.9-2,1.9c-1,0-1.8-0.8-1.8-1.8s0.9-2.1,1.9-2.1C310,96.3,310.9,97.2,310.9,98.2z"/>
			<circle class="st54" cx="308.9" cy="98.3" r="1.8"/>
			<path class="st55" d="M305.8,112.7l-20-2.7c0,0-1.3-0.3-3.2,0.8c-1.5,0.9-2.1,2.9-2.1,2.9l-2.4,17.8c0,0,6.4-11.8,10.4-14.4
				C291.4,115,305.8,112.7,305.8,112.7z"/>
			<line class="st52" x1="284.1" y1="112.8" x2="308.9" y2="98.3"/>
			<circle cx="284.1" cy="112.8" r="0.8"/>
			<path class="st55" d="M303,145.2l17.3,2.5c0,0,2.2,0.2,3.8-1.1c1.8-1.5,1.9-3.2,1.9-3.2l1.7-12.5c0,0-5.4,8.7-8.2,10.3
				C316.2,143.1,303,145.2,303,145.2z"/>
		</g>
	</g>
</g>
</svg>
